<?xml version="1.0" encoding="utf-8" standalone="no"?>
<!DOCTYPE svg PUBLIC "-//W3C//DTD SVG 1.1//EN"
  "http://www.w3.org/Graphics/SVG/1.1/DTD/svg11.dtd">
<svg xmlns:xlink="http://www.w3.org/1999/xlink" width="567.654941pt" height="304.597812pt" viewBox="0 0 567.654941 304.597812" xmlns="http://www.w3.org/2000/svg" version="1.1">
 <metadata>
  <rdf:RDF xmlns:dc="http://purl.org/dc/elements/1.1/" xmlns:cc="http://creativecommons.org/ns#" xmlns:rdf="http://www.w3.org/1999/02/22-rdf-syntax-ns#">
   <cc:Work>
    <dc:type rdf:resource="http://purl.org/dc/dcmitype/StillImage"/>
    <dc:date>2025-12-15T17:45:43.086282</dc:date>
    <dc:format>image/svg+xml</dc:format>
    <dc:creator>
     <cc:Agent>
      <dc:title>Matplotlib v3.10.6, https://matplotlib.org/</dc:title>
     </cc:Agent>
    </dc:creator>
   </cc:Work>
  </rdf:RDF>
 </metadata>
 <defs>
  <style type="text/css">*{stroke-linejoin: round; stroke-linecap: butt}</style>
 </defs>
 <g id="figure_1">
  <g id="patch_1">
   <path d="M 0 304.597812 
L 567.654941 304.597812 
L 567.654941 0 
L 0 0 
z
" style="fill: #ffffff"/>
  </g>
  <g id="axes_1">
   <g id="patch_2">
    <path d="M 38.482813 226.637812 
L 277.312972 226.637812 
L 277.312972 23.837812 
L 38.482813 23.837812 
z
" style="fill: #ffffff"/>
   </g>
   <g id="matplotlib.axis_1">
    <g id="xtick_1">
     <g id="line2d_1">
      <defs>
       <path id="mfd3abac3c3" d="M 0 0 
L 0 3.5 
" style="stroke: #000000; stroke-width: 0.8"/>
      </defs>
      <g>
       <use xlink:href="#mfd3abac3c3" x="49.338729" y="226.637812" style="stroke: #000000; stroke-width: 0.8"/>
      </g>
     </g>
     <g id="text_1">
      <!-- 0.0 -->
      <g transform="translate(41.387166 241.23625) scale(0.1 -0.1)">
       <defs>
        <path id="DejaVuSans-30" d="M 2034 4250 
Q 1547 4250 1301 3770 
Q 1056 3291 1056 2328 
Q 1056 1369 1301 889 
Q 1547 409 2034 409 
Q 2525 409 2770 889 
Q 3016 1369 3016 2328 
Q 3016 3291 2770 3770 
Q 2525 4250 2034 4250 
z
M 2034 4750 
Q 2819 4750 3233 4129 
Q 3647 3509 3647 2328 
Q 3647 1150 3233 529 
Q 2819 -91 2034 -91 
Q 1250 -91 836 529 
Q 422 1150 422 2328 
Q 422 3509 836 4129 
Q 1250 4750 2034 4750 
z
" transform="scale(0.015625)"/>
        <path id="DejaVuSans-2e" d="M 684 794 
L 1344 794 
L 1344 0 
L 684 0 
L 684 794 
z
" transform="scale(0.015625)"/>
       </defs>
       <use xlink:href="#DejaVuSans-30"/>
       <use xlink:href="#DejaVuSans-2e" transform="translate(63.623047 0)"/>
       <use xlink:href="#DejaVuSans-30" transform="translate(95.410156 0)"/>
      </g>
     </g>
    </g>
    <g id="xtick_2">
     <g id="line2d_2">
      <g>
       <use xlink:href="#mfd3abac3c3" x="93.451659" y="226.637812" style="stroke: #000000; stroke-width: 0.8"/>
      </g>
     </g>
     <g id="text_2">
      <!-- 0.1 -->
      <g transform="translate(85.500096 241.23625) scale(0.1 -0.1)">
       <defs>
        <path id="DejaVuSans-31" d="M 794 531 
L 1825 531 
L 1825 4091 
L 703 3866 
L 703 4441 
L 1819 4666 
L 2450 4666 
L 2450 531 
L 3481 531 
L 3481 0 
L 794 0 
L 794 531 
z
" transform="scale(0.015625)"/>
       </defs>
       <use xlink:href="#DejaVuSans-30"/>
       <use xlink:href="#DejaVuSans-2e" transform="translate(63.623047 0)"/>
       <use xlink:href="#DejaVuSans-31" transform="translate(95.410156 0)"/>
      </g>
     </g>
    </g>
    <g id="xtick_3">
     <g id="line2d_3">
      <g>
       <use xlink:href="#mfd3abac3c3" x="137.564589" y="226.637812" style="stroke: #000000; stroke-width: 0.8"/>
      </g>
     </g>
     <g id="text_3">
      <!-- 0.2 -->
      <g transform="translate(129.613026 241.23625) scale(0.1 -0.1)">
       <defs>
        <path id="DejaVuSans-32" d="M 1228 531 
L 3431 531 
L 3431 0 
L 469 0 
L 469 531 
Q 828 903 1448 1529 
Q 2069 2156 2228 2338 
Q 2531 2678 2651 2914 
Q 2772 3150 2772 3378 
Q 2772 3750 2511 3984 
Q 2250 4219 1831 4219 
Q 1534 4219 1204 4116 
Q 875 4013 500 3803 
L 500 4441 
Q 881 4594 1212 4672 
Q 1544 4750 1819 4750 
Q 2544 4750 2975 4387 
Q 3406 4025 3406 3419 
Q 3406 3131 3298 2873 
Q 3191 2616 2906 2266 
Q 2828 2175 2409 1742 
Q 1991 1309 1228 531 
z
" transform="scale(0.015625)"/>
       </defs>
       <use xlink:href="#DejaVuSans-30"/>
       <use xlink:href="#DejaVuSans-2e" transform="translate(63.623047 0)"/>
       <use xlink:href="#DejaVuSans-32" transform="translate(95.410156 0)"/>
      </g>
     </g>
    </g>
    <g id="xtick_4">
     <g id="line2d_4">
      <g>
       <use xlink:href="#mfd3abac3c3" x="181.677518" y="226.637812" style="stroke: #000000; stroke-width: 0.8"/>
      </g>
     </g>
     <g id="text_4">
      <!-- 0.3 -->
      <g transform="translate(173.725956 241.23625) scale(0.1 -0.1)">
       <defs>
        <path id="DejaVuSans-33" d="M 2597 2516 
Q 3050 2419 3304 2112 
Q 3559 1806 3559 1356 
Q 3559 666 3084 287 
Q 2609 -91 1734 -91 
Q 1441 -91 1130 -33 
Q 819 25 488 141 
L 488 750 
Q 750 597 1062 519 
Q 1375 441 1716 441 
Q 2309 441 2620 675 
Q 2931 909 2931 1356 
Q 2931 1769 2642 2001 
Q 2353 2234 1838 2234 
L 1294 2234 
L 1294 2753 
L 1863 2753 
Q 2328 2753 2575 2939 
Q 2822 3125 2822 3475 
Q 2822 3834 2567 4026 
Q 2313 4219 1838 4219 
Q 1578 4219 1281 4162 
Q 984 4106 628 3988 
L 628 4550 
Q 988 4650 1302 4700 
Q 1616 4750 1894 4750 
Q 2613 4750 3031 4423 
Q 3450 4097 3450 3541 
Q 3450 3153 3228 2886 
Q 3006 2619 2597 2516 
z
" transform="scale(0.015625)"/>
       </defs>
       <use xlink:href="#DejaVuSans-30"/>
       <use xlink:href="#DejaVuSans-2e" transform="translate(63.623047 0)"/>
       <use xlink:href="#DejaVuSans-33" transform="translate(95.410156 0)"/>
      </g>
     </g>
    </g>
    <g id="xtick_5">
     <g id="line2d_5">
      <g>
       <use xlink:href="#mfd3abac3c3" x="225.790448" y="226.637812" style="stroke: #000000; stroke-width: 0.8"/>
      </g>
     </g>
     <g id="text_5">
      <!-- 0.4 -->
      <g transform="translate(217.838886 241.23625) scale(0.1 -0.1)">
       <defs>
        <path id="DejaVuSans-34" d="M 2419 4116 
L 825 1625 
L 2419 1625 
L 2419 4116 
z
M 2253 4666 
L 3047 4666 
L 3047 1625 
L 3713 1625 
L 3713 1100 
L 3047 1100 
L 3047 0 
L 2419 0 
L 2419 1100 
L 313 1100 
L 313 1709 
L 2253 4666 
z
" transform="scale(0.015625)"/>
       </defs>
       <use xlink:href="#DejaVuSans-30"/>
       <use xlink:href="#DejaVuSans-2e" transform="translate(63.623047 0)"/>
       <use xlink:href="#DejaVuSans-34" transform="translate(95.410156 0)"/>
      </g>
     </g>
    </g>
    <g id="xtick_6">
     <g id="line2d_6">
      <g>
       <use xlink:href="#mfd3abac3c3" x="269.903378" y="226.637812" style="stroke: #000000; stroke-width: 0.8"/>
      </g>
     </g>
     <g id="text_6">
      <!-- 0.5 -->
      <g transform="translate(261.951816 241.23625) scale(0.1 -0.1)">
       <defs>
        <path id="DejaVuSans-35" d="M 691 4666 
L 3169 4666 
L 3169 4134 
L 1269 4134 
L 1269 2991 
Q 1406 3038 1543 3061 
Q 1681 3084 1819 3084 
Q 2600 3084 3056 2656 
Q 3513 2228 3513 1497 
Q 3513 744 3044 326 
Q 2575 -91 1722 -91 
Q 1428 -91 1123 -41 
Q 819 9 494 109 
L 494 744 
Q 775 591 1075 516 
Q 1375 441 1709 441 
Q 2250 441 2565 725 
Q 2881 1009 2881 1497 
Q 2881 1984 2565 2268 
Q 2250 2553 1709 2553 
Q 1456 2553 1204 2497 
Q 953 2441 691 2322 
L 691 4666 
z
" transform="scale(0.015625)"/>
       </defs>
       <use xlink:href="#DejaVuSans-30"/>
       <use xlink:href="#DejaVuSans-2e" transform="translate(63.623047 0)"/>
       <use xlink:href="#DejaVuSans-35" transform="translate(95.410156 0)"/>
      </g>
     </g>
    </g>
    <g id="text_7">
     <!-- Time (s) -->
     <g transform="translate(129.437423 257.95375) scale(0.14 -0.14)">
      <defs>
       <path id="DejaVuSans-54" d="M -19 4666 
L 3928 4666 
L 3928 4134 
L 2272 4134 
L 2272 0 
L 1638 0 
L 1638 4134 
L -19 4134 
L -19 4666 
z
" transform="scale(0.015625)"/>
       <path id="DejaVuSans-69" d="M 603 3500 
L 1178 3500 
L 1178 0 
L 603 0 
L 603 3500 
z
M 603 4863 
L 1178 4863 
L 1178 4134 
L 603 4134 
L 603 4863 
z
" transform="scale(0.015625)"/>
       <path id="DejaVuSans-6d" d="M 3328 2828 
Q 3544 3216 3844 3400 
Q 4144 3584 4550 3584 
Q 5097 3584 5394 3201 
Q 5691 2819 5691 2113 
L 5691 0 
L 5113 0 
L 5113 2094 
Q 5113 2597 4934 2840 
Q 4756 3084 4391 3084 
Q 3944 3084 3684 2787 
Q 3425 2491 3425 1978 
L 3425 0 
L 2847 0 
L 2847 2094 
Q 2847 2600 2669 2842 
Q 2491 3084 2119 3084 
Q 1678 3084 1418 2786 
Q 1159 2488 1159 1978 
L 1159 0 
L 581 0 
L 581 3500 
L 1159 3500 
L 1159 2956 
Q 1356 3278 1631 3431 
Q 1906 3584 2284 3584 
Q 2666 3584 2933 3390 
Q 3200 3197 3328 2828 
z
" transform="scale(0.015625)"/>
       <path id="DejaVuSans-65" d="M 3597 1894 
L 3597 1613 
L 953 1613 
Q 991 1019 1311 708 
Q 1631 397 2203 397 
Q 2534 397 2845 478 
Q 3156 559 3463 722 
L 3463 178 
Q 3153 47 2828 -22 
Q 2503 -91 2169 -91 
Q 1331 -91 842 396 
Q 353 884 353 1716 
Q 353 2575 817 3079 
Q 1281 3584 2069 3584 
Q 2775 3584 3186 3129 
Q 3597 2675 3597 1894 
z
M 3022 2063 
Q 3016 2534 2758 2815 
Q 2500 3097 2075 3097 
Q 1594 3097 1305 2825 
Q 1016 2553 972 2059 
L 3022 2063 
z
" transform="scale(0.015625)"/>
       <path id="DejaVuSans-20" transform="scale(0.015625)"/>
       <path id="DejaVuSans-28" d="M 1984 4856 
Q 1566 4138 1362 3434 
Q 1159 2731 1159 2009 
Q 1159 1288 1364 580 
Q 1569 -128 1984 -844 
L 1484 -844 
Q 1016 -109 783 600 
Q 550 1309 550 2009 
Q 550 2706 781 3412 
Q 1013 4119 1484 4856 
L 1984 4856 
z
" transform="scale(0.015625)"/>
       <path id="DejaVuSans-73" d="M 2834 3397 
L 2834 2853 
Q 2591 2978 2328 3040 
Q 2066 3103 1784 3103 
Q 1356 3103 1142 2972 
Q 928 2841 928 2578 
Q 928 2378 1081 2264 
Q 1234 2150 1697 2047 
L 1894 2003 
Q 2506 1872 2764 1633 
Q 3022 1394 3022 966 
Q 3022 478 2636 193 
Q 2250 -91 1575 -91 
Q 1294 -91 989 -36 
Q 684 19 347 128 
L 347 722 
Q 666 556 975 473 
Q 1284 391 1588 391 
Q 1994 391 2212 530 
Q 2431 669 2431 922 
Q 2431 1156 2273 1281 
Q 2116 1406 1581 1522 
L 1381 1569 
Q 847 1681 609 1914 
Q 372 2147 372 2553 
Q 372 3047 722 3315 
Q 1072 3584 1716 3584 
Q 2034 3584 2315 3537 
Q 2597 3491 2834 3397 
z
" transform="scale(0.015625)"/>
       <path id="DejaVuSans-29" d="M 513 4856 
L 1013 4856 
Q 1481 4119 1714 3412 
Q 1947 2706 1947 2009 
Q 1947 1309 1714 600 
Q 1481 -109 1013 -844 
L 513 -844 
Q 928 -128 1133 580 
Q 1338 1288 1338 2009 
Q 1338 2731 1133 3434 
Q 928 4138 513 4856 
z
" transform="scale(0.015625)"/>
      </defs>
      <use xlink:href="#DejaVuSans-54"/>
      <use xlink:href="#DejaVuSans-69" transform="translate(57.958984 0)"/>
      <use xlink:href="#DejaVuSans-6d" transform="translate(85.742188 0)"/>
      <use xlink:href="#DejaVuSans-65" transform="translate(183.154297 0)"/>
      <use xlink:href="#DejaVuSans-20" transform="translate(244.677734 0)"/>
      <use xlink:href="#DejaVuSans-28" transform="translate(276.464844 0)"/>
      <use xlink:href="#DejaVuSans-73" transform="translate(315.478516 0)"/>
      <use xlink:href="#DejaVuSans-29" transform="translate(367.578125 0)"/>
     </g>
    </g>
   </g>
   <g id="matplotlib.axis_2">
    <g id="ytick_1">
     <g id="line2d_7">
      <defs>
       <path id="m9d7c06fce6" d="M 0 0 
L -3.5 0 
" style="stroke: #000000; stroke-width: 0.8"/>
      </defs>
      <g>
       <use xlink:href="#m9d7c06fce6" x="38.482813" y="205.658345" style="stroke: #000000; stroke-width: 0.8"/>
      </g>
     </g>
     <g id="text_8">
      <!-- −1.0 -->
      <g transform="translate(7.2 209.457564) scale(0.1 -0.1)">
       <defs>
        <path id="DejaVuSans-2212" d="M 678 2272 
L 4684 2272 
L 4684 1741 
L 678 1741 
L 678 2272 
z
" transform="scale(0.015625)"/>
       </defs>
       <use xlink:href="#DejaVuSans-2212"/>
       <use xlink:href="#DejaVuSans-31" transform="translate(83.789062 0)"/>
       <use xlink:href="#DejaVuSans-2e" transform="translate(147.412109 0)"/>
       <use xlink:href="#DejaVuSans-30" transform="translate(179.199219 0)"/>
      </g>
     </g>
    </g>
    <g id="ytick_2">
     <g id="line2d_8">
      <g>
       <use xlink:href="#m9d7c06fce6" x="38.482813" y="175.648573" style="stroke: #000000; stroke-width: 0.8"/>
      </g>
     </g>
     <g id="text_9">
      <!-- −0.5 -->
      <g transform="translate(7.2 179.447792) scale(0.1 -0.1)">
       <use xlink:href="#DejaVuSans-2212"/>
       <use xlink:href="#DejaVuSans-30" transform="translate(83.789062 0)"/>
       <use xlink:href="#DejaVuSans-2e" transform="translate(147.412109 0)"/>
       <use xlink:href="#DejaVuSans-35" transform="translate(179.199219 0)"/>
      </g>
     </g>
    </g>
    <g id="ytick_3">
     <g id="line2d_9">
      <g>
       <use xlink:href="#m9d7c06fce6" x="38.482813" y="145.638802" style="stroke: #000000; stroke-width: 0.8"/>
      </g>
     </g>
     <g id="text_10">
      <!-- 0.0 -->
      <g transform="translate(15.579688 149.43802) scale(0.1 -0.1)">
       <use xlink:href="#DejaVuSans-30"/>
       <use xlink:href="#DejaVuSans-2e" transform="translate(63.623047 0)"/>
       <use xlink:href="#DejaVuSans-30" transform="translate(95.410156 0)"/>
      </g>
     </g>
    </g>
    <g id="ytick_4">
     <g id="line2d_10">
      <g>
       <use xlink:href="#m9d7c06fce6" x="38.482813" y="115.62903" style="stroke: #000000; stroke-width: 0.8"/>
      </g>
     </g>
     <g id="text_11">
      <!-- 0.5 -->
      <g transform="translate(15.579688 119.428248) scale(0.1 -0.1)">
       <use xlink:href="#DejaVuSans-30"/>
       <use xlink:href="#DejaVuSans-2e" transform="translate(63.623047 0)"/>
       <use xlink:href="#DejaVuSans-35" transform="translate(95.410156 0)"/>
      </g>
     </g>
    </g>
    <g id="ytick_5">
     <g id="line2d_11">
      <g>
       <use xlink:href="#m9d7c06fce6" x="38.482813" y="85.619258" style="stroke: #000000; stroke-width: 0.8"/>
      </g>
     </g>
     <g id="text_12">
      <!-- 1.0 -->
      <g transform="translate(15.579688 89.418477) scale(0.1 -0.1)">
       <use xlink:href="#DejaVuSans-31"/>
       <use xlink:href="#DejaVuSans-2e" transform="translate(63.623047 0)"/>
       <use xlink:href="#DejaVuSans-30" transform="translate(95.410156 0)"/>
      </g>
     </g>
    </g>
    <g id="ytick_6">
     <g id="line2d_12">
      <g>
       <use xlink:href="#m9d7c06fce6" x="38.482813" y="55.609486" style="stroke: #000000; stroke-width: 0.8"/>
      </g>
     </g>
     <g id="text_13">
      <!-- 1.5 -->
      <g transform="translate(15.579688 59.408705) scale(0.1 -0.1)">
       <use xlink:href="#DejaVuSans-31"/>
       <use xlink:href="#DejaVuSans-2e" transform="translate(63.623047 0)"/>
       <use xlink:href="#DejaVuSans-35" transform="translate(95.410156 0)"/>
      </g>
     </g>
    </g>
    <g id="ytick_7">
     <g id="line2d_13">
      <g>
       <use xlink:href="#m9d7c06fce6" x="38.482813" y="25.599714" style="stroke: #000000; stroke-width: 0.8"/>
      </g>
     </g>
     <g id="text_14">
      <!-- 2.0 -->
      <g transform="translate(15.579688 29.398933) scale(0.1 -0.1)">
       <use xlink:href="#DejaVuSans-32"/>
       <use xlink:href="#DejaVuSans-2e" transform="translate(63.623047 0)"/>
       <use xlink:href="#DejaVuSans-30" transform="translate(95.410156 0)"/>
      </g>
     </g>
    </g>
    <g id="text_15">
     <!-- 1e−7 -->
     <g transform="translate(38.482813 20.837812) scale(0.1 -0.1)">
      <defs>
       <path id="DejaVuSans-37" d="M 525 4666 
L 3525 4666 
L 3525 4397 
L 1831 0 
L 1172 0 
L 2766 4134 
L 525 4134 
L 525 4666 
z
" transform="scale(0.015625)"/>
      </defs>
      <use xlink:href="#DejaVuSans-31"/>
      <use xlink:href="#DejaVuSans-65" transform="translate(63.623047 0)"/>
      <use xlink:href="#DejaVuSans-2212" transform="translate(125.146484 0)"/>
      <use xlink:href="#DejaVuSans-37" transform="translate(208.935547 0)"/>
     </g>
    </g>
   </g>
   <g id="line2d_14">
    <path d="M 49.338729 149.899958 
L 52.785051 140.084722 
L 56.231374 124.036597 
L 59.677697 103.046184 
L 63.124019 79.76914 
L 66.570342 57.677727 
L 70.016665 40.722376 
L 73.462987 32.562396 
L 76.90931 35.746388 
L 80.355633 50.95493 
L 83.801955 76.734357 
L 87.248278 109.252859 
L 90.694601 143.13888 
L 94.140923 172.751462 
L 97.587246 193.369156 
L 101.033569 202.720447 
L 104.479891 200.799974 
L 107.926214 190.171943 
L 111.372536 174.462426 
L 114.818859 157.581181 
L 118.265182 142.264415 
L 121.711504 129.828099 
L 125.157827 120.430618 
L 128.60415 113.509368 
L 132.050472 108.430176 
L 135.496795 104.832715 
L 138.943118 102.721408 
L 142.38944 102.146223 
L 145.835763 103.073364 
L 149.282086 105.209328 
L 152.728408 108.264419 
L 156.174731 111.752903 
L 159.621054 115.62444 
L 163.067376 119.907504 
L 166.513699 124.724821 
L 169.960021 129.905943 
L 173.406344 135.058385 
L 176.852667 139.741948 
L 180.298989 143.52893 
L 183.745312 146.416839 
L 187.191635 149.008695 
L 190.637957 152.17796 
L 194.08428 156.833951 
L 197.530603 163.474277 
L 200.976925 171.72429 
L 204.423248 180.440901 
L 207.869571 188.076425 
L 211.315893 193.141141 
L 214.762216 194.688551 
L 218.208539 192.803008 
L 221.654861 188.211202 
L 225.101184 182.552007 
L 228.547506 177.333854 
L 231.993829 173.926008 
L 235.440152 172.995833 
L 238.886474 174.417128 
L 242.332797 177.573596 
L 245.77912 181.409258 
L 249.225442 184.861027 
L 252.671765 187.030832 
L 256.118088 187.298355 
L 259.56441 185.68387 
L 263.010733 182.559203 
L 266.457056 178.58535 
" clip-path="url(#p699f5274ad)" style="fill: none; stroke: #d7255d; stroke-width: 4.5; stroke-linecap: square"/>
   </g>
   <g id="line2d_15">
    <path d="M 49.338729 100.346724 
L 52.785051 95.354172 
L 56.231374 91.281742 
L 59.677697 89.602937 
L 63.124019 91.971202 
L 66.570342 98.891572 
L 70.016665 109.955788 
L 73.462987 123.355081 
L 76.90931 136.075901 
L 80.355633 144.644001 
L 83.801955 146.028679 
L 87.248278 138.887082 
L 90.694601 124.167475 
L 94.140923 104.80114 
L 97.587246 85.388348 
L 101.033569 70.762645 
L 104.479891 64.65958 
L 107.926214 68.473453 
L 111.372536 81.443822 
L 114.818859 100.606214 
L 118.265182 122.315823 
L 121.711504 143.351271 
L 125.157827 161.525422 
L 128.60415 176.240893 
L 132.050472 187.875507 
L 135.496795 196.922462 
L 138.943118 203.50634 
L 142.38944 207.054066 
L 145.835763 206.906626 
L 149.282086 202.41416 
L 152.728408 193.994635 
L 156.174731 182.943195 
L 159.621054 171.329068 
L 163.067376 161.000851 
L 166.513699 153.264209 
L 169.960021 148.102571 
L 173.406344 144.909485 
L 176.852667 142.60902 
L 180.298989 140.404766 
L 183.745312 138.389045 
L 187.191635 137.239767 
L 190.637957 137.946882 
L 194.08428 141.0529 
L 197.530603 146.310944 
L 200.976925 152.865718 
L 204.423248 159.298728 
L 207.869571 164.741572 
L 211.315893 168.77048 
L 214.762216 171.386461 
L 218.208539 173.110431 
L 221.654861 174.388604 
L 225.101184 175.258359 
L 228.547506 175.599192 
L 231.993829 175.106679 
L 235.440152 173.768595 
L 238.886474 172.094963 
L 242.332797 170.694363 
L 245.77912 170.411194 
L 249.225442 171.728269 
L 252.671765 174.530121 
L 256.118088 178.458692 
L 259.56441 182.99166 
L 263.010733 187.643754 
L 266.457056 192.186271 
" clip-path="url(#p699f5274ad)" style="fill: none; stroke: #009da1; stroke-width: 4.5; stroke-linecap: square"/>
   </g>
   <g id="line2d_16">
    <path d="M 49.338729 123.136852 
L 52.785051 123.512105 
L 56.231374 127.119007 
L 59.677697 132.667901 
L 63.124019 138.151138 
L 66.570342 141.519593 
L 70.016665 141.645059 
L 73.462987 139.071997 
L 76.90931 135.594483 
L 80.355633 133.323482 
L 83.801955 133.599571 
L 87.248278 136.221813 
L 90.694601 139.228217 
L 94.140923 140.058857 
L 97.587246 136.449582 
L 101.033569 127.888208 
L 104.479891 115.45236 
L 107.926214 101.683744 
L 111.372536 89.295566 
L 114.818859 80.560026 
L 118.265182 76.590604 
L 121.711504 77.57938 
L 125.157827 83.264173 
L 128.60415 93.074246 
L 132.050472 106.667869 
L 135.496795 123.346097 
L 138.943118 141.428413 
L 142.38944 158.752723 
L 145.835763 172.303393 
L 149.282086 179.496162 
L 152.728408 179.466318 
L 156.174731 173.006 
L 159.621054 162.733067 
L 163.067376 152.202527 
L 166.513699 144.365748 
L 169.960021 140.796849 
L 173.406344 141.160745 
L 176.852667 143.705217 
L 180.298989 146.416466 
L 183.745312 147.759892 
L 187.191635 147.500918 
L 190.637957 146.219548 
L 194.08428 144.829952 
L 197.530603 144.196931 
L 200.976925 144.219792 
L 204.423248 144.505184 
L 207.869571 144.434802 
L 211.315893 143.787666 
L 214.762216 142.645139 
L 218.208539 141.777828 
L 221.654861 141.566496 
L 225.101184 142.439053 
L 228.547506 144.164035 
L 231.993829 146.528024 
L 235.440152 149.40207 
L 238.886474 152.868375 
L 242.332797 156.874883 
L 245.77912 161.098157 
L 249.225442 164.599788 
L 252.671765 166.140934 
L 256.118088 164.780852 
L 259.56441 160.382983 
L 263.010733 154.111363 
L 266.457056 148.09707 
" clip-path="url(#p699f5274ad)" style="fill: none; stroke: #603e95; stroke-width: 4.5; stroke-linecap: square"/>
   </g>
   <g id="line2d_17">
    <path d="M 49.338729 111.990354 
L 52.785051 110.957101 
L 56.231374 111.953642 
L 59.677697 114.503421 
L 63.124019 118.093939 
L 66.570342 122.078852 
L 70.016665 126.17814 
L 73.462987 129.727896 
L 76.90931 132.12202 
L 80.355633 132.293994 
L 83.801955 129.501063 
L 87.248278 123.832302 
L 90.694601 115.933541 
L 94.140923 107.830014 
L 97.587246 101.5987 
L 101.033569 99.455674 
L 104.479891 102.397909 
L 107.926214 110.392257 
L 111.372536 122.052668 
L 114.818859 135.336313 
L 118.265182 148.097485 
L 121.711504 158.66962 
L 125.157827 165.876621 
L 128.60415 169.486033 
L 132.050472 169.867109 
L 135.496795 167.654854 
L 138.943118 163.941057 
L 142.38944 159.729575 
L 145.835763 155.971976 
L 149.282086 153.156589 
L 152.728408 151.345573 
L 156.174731 150.139976 
L 159.621054 149.08893 
L 163.067376 147.529147 
L 166.513699 145.188171 
L 169.960021 142.235552 
L 173.406344 139.274981 
L 176.852667 137.049151 
L 180.298989 136.318678 
L 183.745312 137.548262 
L 187.191635 140.848545 
L 190.637957 145.732591 
L 194.08428 151.31119 
L 197.530603 156.4745 
L 200.976925 160.06907 
L 204.423248 161.292678 
L 207.869571 159.862386 
L 211.315893 156.30765 
L 214.762216 151.855114 
L 218.208539 148.031746 
L 221.654861 146.422964 
L 225.101184 148.103805 
L 228.547506 153.229341 
L 231.993829 161.020865 
L 235.440152 169.95469 
L 238.886474 178.217255 
L 242.332797 184.090324 
L 245.77912 186.428081 
L 249.225442 185.012516 
L 252.671765 180.576927 
L 256.118088 174.344632 
L 259.56441 167.90685 
L 263.010733 162.576571 
L 266.457056 159.222531 
" clip-path="url(#p699f5274ad)" style="fill: none; stroke: #ffa500; stroke-width: 4.5; stroke-linecap: square"/>
   </g>
   <g id="patch_3">
    <path d="M 38.482813 226.637812 
L 38.482813 23.837813 
" style="fill: none; stroke: #000000; stroke-width: 0.8; stroke-linejoin: miter; stroke-linecap: square"/>
   </g>
   <g id="patch_4">
    <path d="M 277.312972 226.637812 
L 277.312972 23.837813 
" style="fill: none; stroke: #000000; stroke-width: 0.8; stroke-linejoin: miter; stroke-linecap: square"/>
   </g>
   <g id="patch_5">
    <path d="M 38.482813 226.637812 
L 277.312972 226.637812 
" style="fill: none; stroke: #000000; stroke-width: 0.8; stroke-linejoin: miter; stroke-linecap: square"/>
   </g>
   <g id="patch_6">
    <path d="M 38.482813 23.837812 
L 277.312972 23.837812 
" style="fill: none; stroke: #000000; stroke-width: 0.8; stroke-linejoin: miter; stroke-linecap: square"/>
   </g>
   <g id="text_16">
    <!-- (FC) ses=1 -->
    <g transform="translate(119.377111 17.837812) scale(0.14 -0.14)">
     <defs>
      <path id="DejaVuSans-46" d="M 628 4666 
L 3309 4666 
L 3309 4134 
L 1259 4134 
L 1259 2759 
L 3109 2759 
L 3109 2228 
L 1259 2228 
L 1259 0 
L 628 0 
L 628 4666 
z
" transform="scale(0.015625)"/>
      <path id="DejaVuSans-43" d="M 4122 4306 
L 4122 3641 
Q 3803 3938 3442 4084 
Q 3081 4231 2675 4231 
Q 1875 4231 1450 3742 
Q 1025 3253 1025 2328 
Q 1025 1406 1450 917 
Q 1875 428 2675 428 
Q 3081 428 3442 575 
Q 3803 722 4122 1019 
L 4122 359 
Q 3791 134 3420 21 
Q 3050 -91 2638 -91 
Q 1578 -91 968 557 
Q 359 1206 359 2328 
Q 359 3453 968 4101 
Q 1578 4750 2638 4750 
Q 3056 4750 3426 4639 
Q 3797 4528 4122 4306 
z
" transform="scale(0.015625)"/>
      <path id="DejaVuSans-3d" d="M 678 2906 
L 4684 2906 
L 4684 2381 
L 678 2381 
L 678 2906 
z
M 678 1631 
L 4684 1631 
L 4684 1100 
L 678 1100 
L 678 1631 
z
" transform="scale(0.015625)"/>
     </defs>
     <use xlink:href="#DejaVuSans-28"/>
     <use xlink:href="#DejaVuSans-46" transform="translate(39.013672 0)"/>
     <use xlink:href="#DejaVuSans-43" transform="translate(96.533203 0)"/>
     <use xlink:href="#DejaVuSans-29" transform="translate(166.357422 0)"/>
     <use xlink:href="#DejaVuSans-20" transform="translate(205.371094 0)"/>
     <use xlink:href="#DejaVuSans-73" transform="translate(237.158203 0)"/>
     <use xlink:href="#DejaVuSans-65" transform="translate(289.257812 0)"/>
     <use xlink:href="#DejaVuSans-73" transform="translate(350.78125 0)"/>
     <use xlink:href="#DejaVuSans-3d" transform="translate(402.880859 0)"/>
     <use xlink:href="#DejaVuSans-31" transform="translate(486.669922 0)"/>
    </g>
   </g>
  </g>
  <g id="axes_2">
   <g id="patch_7">
    <path d="M 321.082813 226.637812 
L 559.912972 226.637812 
L 559.912972 23.837812 
L 321.082813 23.837812 
z
" style="fill: #ffffff"/>
   </g>
   <g id="matplotlib.axis_3">
    <g id="xtick_7">
     <g id="line2d_18">
      <g>
       <use xlink:href="#mfd3abac3c3" x="331.938729" y="226.637812" style="stroke: #000000; stroke-width: 0.8"/>
      </g>
     </g>
     <g id="text_17">
      <!-- 0.0 -->
      <g transform="translate(323.987166 241.23625) scale(0.1 -0.1)">
       <use xlink:href="#DejaVuSans-30"/>
       <use xlink:href="#DejaVuSans-2e" transform="translate(63.623047 0)"/>
       <use xlink:href="#DejaVuSans-30" transform="translate(95.410156 0)"/>
      </g>
     </g>
    </g>
    <g id="xtick_8">
     <g id="line2d_19">
      <g>
       <use xlink:href="#mfd3abac3c3" x="376.051659" y="226.637812" style="stroke: #000000; stroke-width: 0.8"/>
      </g>
     </g>
     <g id="text_18">
      <!-- 0.1 -->
      <g transform="translate(368.100096 241.23625) scale(0.1 -0.1)">
       <use xlink:href="#DejaVuSans-30"/>
       <use xlink:href="#DejaVuSans-2e" transform="translate(63.623047 0)"/>
       <use xlink:href="#DejaVuSans-31" transform="translate(95.410156 0)"/>
      </g>
     </g>
    </g>
    <g id="xtick_9">
     <g id="line2d_20">
      <g>
       <use xlink:href="#mfd3abac3c3" x="420.164589" y="226.637812" style="stroke: #000000; stroke-width: 0.8"/>
      </g>
     </g>
     <g id="text_19">
      <!-- 0.2 -->
      <g transform="translate(412.213026 241.23625) scale(0.1 -0.1)">
       <use xlink:href="#DejaVuSans-30"/>
       <use xlink:href="#DejaVuSans-2e" transform="translate(63.623047 0)"/>
       <use xlink:href="#DejaVuSans-32" transform="translate(95.410156 0)"/>
      </g>
     </g>
    </g>
    <g id="xtick_10">
     <g id="line2d_21">
      <g>
       <use xlink:href="#mfd3abac3c3" x="464.277518" y="226.637812" style="stroke: #000000; stroke-width: 0.8"/>
      </g>
     </g>
     <g id="text_20">
      <!-- 0.3 -->
      <g transform="translate(456.325956 241.23625) scale(0.1 -0.1)">
       <use xlink:href="#DejaVuSans-30"/>
       <use xlink:href="#DejaVuSans-2e" transform="translate(63.623047 0)"/>
       <use xlink:href="#DejaVuSans-33" transform="translate(95.410156 0)"/>
      </g>
     </g>
    </g>
    <g id="xtick_11">
     <g id="line2d_22">
      <g>
       <use xlink:href="#mfd3abac3c3" x="508.390448" y="226.637812" style="stroke: #000000; stroke-width: 0.8"/>
      </g>
     </g>
     <g id="text_21">
      <!-- 0.4 -->
      <g transform="translate(500.438886 241.23625) scale(0.1 -0.1)">
       <use xlink:href="#DejaVuSans-30"/>
       <use xlink:href="#DejaVuSans-2e" transform="translate(63.623047 0)"/>
       <use xlink:href="#DejaVuSans-34" transform="translate(95.410156 0)"/>
      </g>
     </g>
    </g>
    <g id="xtick_12">
     <g id="line2d_23">
      <g>
       <use xlink:href="#mfd3abac3c3" x="552.503378" y="226.637812" style="stroke: #000000; stroke-width: 0.8"/>
      </g>
     </g>
     <g id="text_22">
      <!-- 0.5 -->
      <g transform="translate(544.551816 241.23625) scale(0.1 -0.1)">
       <use xlink:href="#DejaVuSans-30"/>
       <use xlink:href="#DejaVuSans-2e" transform="translate(63.623047 0)"/>
       <use xlink:href="#DejaVuSans-35" transform="translate(95.410156 0)"/>
      </g>
     </g>
    </g>
    <g id="text_23">
     <!-- Time (s) -->
     <g transform="translate(412.037423 257.95375) scale(0.14 -0.14)">
      <use xlink:href="#DejaVuSans-54"/>
      <use xlink:href="#DejaVuSans-69" transform="translate(57.958984 0)"/>
      <use xlink:href="#DejaVuSans-6d" transform="translate(85.742188 0)"/>
      <use xlink:href="#DejaVuSans-65" transform="translate(183.154297 0)"/>
      <use xlink:href="#DejaVuSans-20" transform="translate(244.677734 0)"/>
      <use xlink:href="#DejaVuSans-28" transform="translate(276.464844 0)"/>
      <use xlink:href="#DejaVuSans-73" transform="translate(315.478516 0)"/>
      <use xlink:href="#DejaVuSans-29" transform="translate(367.578125 0)"/>
     </g>
    </g>
   </g>
   <g id="matplotlib.axis_4">
    <g id="ytick_8">
     <g id="line2d_24">
      <g>
       <use xlink:href="#m9d7c06fce6" x="321.082813" y="205.658345" style="stroke: #000000; stroke-width: 0.8"/>
      </g>
     </g>
     <g id="text_24">
      <!-- −1.0 -->
      <g transform="translate(289.8 209.457564) scale(0.1 -0.1)">
       <use xlink:href="#DejaVuSans-2212"/>
       <use xlink:href="#DejaVuSans-31" transform="translate(83.789062 0)"/>
       <use xlink:href="#DejaVuSans-2e" transform="translate(147.412109 0)"/>
       <use xlink:href="#DejaVuSans-30" transform="translate(179.199219 0)"/>
      </g>
     </g>
    </g>
    <g id="ytick_9">
     <g id="line2d_25">
      <g>
       <use xlink:href="#m9d7c06fce6" x="321.082813" y="175.648573" style="stroke: #000000; stroke-width: 0.8"/>
      </g>
     </g>
     <g id="text_25">
      <!-- −0.5 -->
      <g transform="translate(289.8 179.447792) scale(0.1 -0.1)">
       <use xlink:href="#DejaVuSans-2212"/>
       <use xlink:href="#DejaVuSans-30" transform="translate(83.789062 0)"/>
       <use xlink:href="#DejaVuSans-2e" transform="translate(147.412109 0)"/>
       <use xlink:href="#DejaVuSans-35" transform="translate(179.199219 0)"/>
      </g>
     </g>
    </g>
    <g id="ytick_10">
     <g id="line2d_26">
      <g>
       <use xlink:href="#m9d7c06fce6" x="321.082813" y="145.638802" style="stroke: #000000; stroke-width: 0.8"/>
      </g>
     </g>
     <g id="text_26">
      <!-- 0.0 -->
      <g transform="translate(298.179688 149.43802) scale(0.1 -0.1)">
       <use xlink:href="#DejaVuSans-30"/>
       <use xlink:href="#DejaVuSans-2e" transform="translate(63.623047 0)"/>
       <use xlink:href="#DejaVuSans-30" transform="translate(95.410156 0)"/>
      </g>
     </g>
    </g>
    <g id="ytick_11">
     <g id="line2d_27">
      <g>
       <use xlink:href="#m9d7c06fce6" x="321.082813" y="115.62903" style="stroke: #000000; stroke-width: 0.8"/>
      </g>
     </g>
     <g id="text_27">
      <!-- 0.5 -->
      <g transform="translate(298.179688 119.428248) scale(0.1 -0.1)">
       <use xlink:href="#DejaVuSans-30"/>
       <use xlink:href="#DejaVuSans-2e" transform="translate(63.623047 0)"/>
       <use xlink:href="#DejaVuSans-35" transform="translate(95.410156 0)"/>
      </g>
     </g>
    </g>
    <g id="ytick_12">
     <g id="line2d_28">
      <g>
       <use xlink:href="#m9d7c06fce6" x="321.082813" y="85.619258" style="stroke: #000000; stroke-width: 0.8"/>
      </g>
     </g>
     <g id="text_28">
      <!-- 1.0 -->
      <g transform="translate(298.179688 89.418477) scale(0.1 -0.1)">
       <use xlink:href="#DejaVuSans-31"/>
       <use xlink:href="#DejaVuSans-2e" transform="translate(63.623047 0)"/>
       <use xlink:href="#DejaVuSans-30" transform="translate(95.410156 0)"/>
      </g>
     </g>
    </g>
    <g id="ytick_13">
     <g id="line2d_29">
      <g>
       <use xlink:href="#m9d7c06fce6" x="321.082813" y="55.609486" style="stroke: #000000; stroke-width: 0.8"/>
      </g>
     </g>
     <g id="text_29">
      <!-- 1.5 -->
      <g transform="translate(298.179688 59.408705) scale(0.1 -0.1)">
       <use xlink:href="#DejaVuSans-31"/>
       <use xlink:href="#DejaVuSans-2e" transform="translate(63.623047 0)"/>
       <use xlink:href="#DejaVuSans-35" transform="translate(95.410156 0)"/>
      </g>
     </g>
    </g>
    <g id="ytick_14">
     <g id="line2d_30">
      <g>
       <use xlink:href="#m9d7c06fce6" x="321.082813" y="25.599714" style="stroke: #000000; stroke-width: 0.8"/>
      </g>
     </g>
     <g id="text_30">
      <!-- 2.0 -->
      <g transform="translate(298.179688 29.398933) scale(0.1 -0.1)">
       <use xlink:href="#DejaVuSans-32"/>
       <use xlink:href="#DejaVuSans-2e" transform="translate(63.623047 0)"/>
       <use xlink:href="#DejaVuSans-30" transform="translate(95.410156 0)"/>
      </g>
     </g>
    </g>
    <g id="text_31">
     <!-- 1e−7 -->
     <g transform="translate(321.082813 20.837812) scale(0.1 -0.1)">
      <use xlink:href="#DejaVuSans-31"/>
      <use xlink:href="#DejaVuSans-65" transform="translate(63.623047 0)"/>
      <use xlink:href="#DejaVuSans-2212" transform="translate(125.146484 0)"/>
      <use xlink:href="#DejaVuSans-37" transform="translate(208.935547 0)"/>
     </g>
    </g>
   </g>
   <g id="line2d_31">
    <path d="M 331.938729 142.660825 
L 335.385051 139.995282 
L 338.831374 130.793225 
L 342.277697 115.113317 
L 345.724019 94.432907 
L 349.170342 72.453546 
L 352.616665 54.076869 
L 356.062987 44.256544 
L 359.50931 46.675525 
L 362.955633 62.454487 
L 366.401955 89.696695 
L 369.848278 123.843207 
L 373.294601 158.762691 
L 376.740923 188.567844 
L 380.187246 208.879655 
L 383.633569 217.95299 
L 387.079891 216.328212 
L 390.526214 206.645287 
L 393.972536 192.030359 
L 397.418859 175.161159 
L 400.865182 158.490092 
L 404.311504 143.260395 
L 407.757827 130.134204 
L 411.20415 119.618139 
L 414.650472 111.89508 
L 418.096795 107.052359 
L 421.543118 104.679522 
L 424.98944 104.404608 
L 428.435763 105.577738 
L 431.882086 107.729639 
L 435.328408 110.792233 
L 438.774731 114.705487 
L 442.221054 119.537638 
L 445.667376 125.147007 
L 449.113699 131.071877 
L 452.560021 136.712583 
L 456.006344 141.442445 
L 459.452667 145.165366 
L 462.898989 148.054546 
L 466.345312 150.74552 
L 469.791635 153.634079 
L 473.237957 156.873666 
L 476.68428 160.147846 
L 480.130603 163.046911 
L 483.576925 165.279868 
L 487.023248 166.974846 
L 490.469571 168.487639 
L 493.915893 170.168847 
L 497.362216 172.375965 
L 500.808539 175.069918 
L 504.254861 177.859671 
L 507.701184 180.256081 
L 511.147506 182.059231 
L 514.593829 183.254331 
L 518.040152 183.919394 
L 521.486474 184.128814 
L 524.932797 183.430256 
L 528.37912 181.413361 
L 531.825442 177.927643 
L 535.271765 173.215313 
L 538.718088 168.266463 
L 542.16441 164.261809 
L 545.610733 162.13795 
L 549.057056 162.25281 
" clip-path="url(#p1f7175fc47)" style="fill: none; stroke: #d7255d; stroke-width: 4.5; stroke-linecap: square"/>
   </g>
   <g id="line2d_32">
    <path d="M 331.938729 90.982516 
L 335.385051 95.967566 
L 338.831374 102.519512 
L 342.277697 109.877859 
L 345.724019 117.505229 
L 349.170342 124.715094 
L 352.616665 130.981124 
L 356.062987 135.512102 
L 359.50931 137.324659 
L 362.955633 135.749483 
L 366.401955 130.584837 
L 369.848278 122.076929 
L 373.294601 111.547101 
L 376.740923 100.632089 
L 380.187246 91.281793 
L 383.633569 85.437678 
L 387.079891 84.78297 
L 390.526214 89.935399 
L 393.972536 100.447905 
L 397.418859 114.867214 
L 400.865182 130.910057 
L 404.311504 146.584144 
L 407.757827 160.533277 
L 411.20415 172.270368 
L 414.650472 182.476817 
L 418.096795 191.910116 
L 421.543118 200.832997 
L 424.98944 208.573338 
L 428.435763 213.502517 
L 431.882086 213.67818 
L 435.328408 207.745458 
L 438.774731 196.060872 
L 442.221054 180.315159 
L 445.667376 163.74718 
L 449.113699 149.413465 
L 452.560021 139.635938 
L 456.006344 135.43166 
L 459.452667 135.744958 
L 462.898989 138.764112 
L 466.345312 142.695405 
L 469.791635 145.958246 
L 473.237957 147.937933 
L 476.68428 148.838445 
L 480.130603 149.01917 
L 483.576925 148.739751 
L 487.023248 148.386971 
L 490.469571 148.053991 
L 493.915893 147.92763 
L 497.362216 148.451323 
L 500.808539 150.186999 
L 504.254861 153.449585 
L 507.701184 158.099219 
L 511.147506 163.29733 
L 514.593829 168.011028 
L 518.040152 171.318186 
L 521.486474 172.590285 
L 524.932797 172.077305 
L 528.37912 170.236065 
L 531.825442 168.274555 
L 535.271765 167.253712 
L 538.718088 167.912508 
L 542.16441 170.276688 
L 545.610733 173.854033 
L 549.057056 177.636266 
" clip-path="url(#p1f7175fc47)" style="fill: none; stroke: #009da1; stroke-width: 4.5; stroke-linecap: square"/>
   </g>
   <g id="line2d_33">
    <path d="M 331.938729 156.017131 
L 335.385051 155.002906 
L 338.831374 150.796891 
L 342.277697 143.822637 
L 345.724019 134.947348 
L 349.170342 125.22396 
L 352.616665 115.933411 
L 356.062987 108.838828 
L 359.50931 105.78425 
L 362.955633 107.432017 
L 366.401955 114.125695 
L 369.848278 123.657985 
L 373.294601 133.42911 
L 376.740923 139.572356 
L 380.187246 139.362889 
L 383.633569 131.202929 
L 387.079891 116.258048 
L 390.526214 97.678889 
L 393.972536 80.011393 
L 397.418859 67.352462 
L 400.865182 62.68972 
L 404.311504 66.226685 
L 407.757827 76.530739 
L 411.20415 90.509855 
L 414.650472 105.433867 
L 418.096795 119.259069 
L 421.543118 131.278882 
L 424.98944 141.545017 
L 428.435763 150.254489 
L 431.882086 157.266286 
L 435.328408 161.895445 
L 438.774731 163.532452 
L 442.221054 161.993704 
L 445.667376 158.089483 
L 449.113699 153.434499 
L 452.560021 149.486706 
L 456.006344 147.408541 
L 459.452667 147.133036 
L 462.898989 147.866001 
L 466.345312 148.396785 
L 469.791635 148.083347 
L 473.237957 146.865673 
L 476.68428 145.779899 
L 480.130603 145.529034 
L 483.576925 146.219501 
L 487.023248 147.717334 
L 490.469571 148.473458 
L 493.915893 147.728696 
L 497.362216 145.116984 
L 500.808539 141.373653 
L 504.254861 137.961064 
L 507.701184 136.228347 
L 511.147506 137.123681 
L 514.593829 140.116406 
L 518.040152 144.375436 
L 521.486474 148.678439 
L 524.932797 152.598375 
L 528.37912 156.323223 
L 531.825442 160.552961 
L 535.271765 165.486282 
L 538.718088 170.658429 
L 542.16441 174.488075 
L 545.610733 175.46529 
L 549.057056 172.518958 
" clip-path="url(#p1f7175fc47)" style="fill: none; stroke: #603e95; stroke-width: 4.5; stroke-linecap: square"/>
   </g>
   <g id="line2d_34">
    <path d="M 331.938729 115.681351 
L 335.385051 108.600764 
L 338.831374 103.824991 
L 342.277697 102.651035 
L 345.724019 105.733568 
L 349.170342 112.185818 
L 352.616665 120.444307 
L 356.062987 127.744809 
L 359.50931 131.588054 
L 362.955633 130.634813 
L 366.401955 124.960932 
L 369.848278 116.118934 
L 373.294601 107.110773 
L 376.740923 100.892583 
L 380.187246 99.391751 
L 383.633569 102.994861 
L 387.079891 110.728243 
L 390.526214 121.187506 
L 393.972536 132.611738 
L 397.418859 144.082942 
L 400.865182 155.142741 
L 404.311504 165.275171 
L 407.757827 174.18946 
L 411.20415 180.831914 
L 414.650472 184.266717 
L 418.096795 183.895788 
L 421.543118 179.767553 
L 424.98944 173.093188 
L 428.435763 165.337506 
L 431.882086 158.336738 
L 435.328408 153.049505 
L 438.774731 150.016209 
L 442.221054 148.87999 
L 445.667376 148.831109 
L 449.113699 149.173895 
L 452.560021 149.638319 
L 456.006344 149.979071 
L 459.452667 149.778214 
L 462.898989 148.94586 
L 466.345312 147.233741 
L 469.791635 145.233156 
L 473.237957 143.453717 
L 476.68428 142.878791 
L 480.130603 144.455797 
L 483.576925 148.308756 
L 487.023248 153.652177 
L 490.469571 159.091092 
L 493.915893 162.872556 
L 497.362216 164.185683 
L 500.808539 163.041027 
L 504.254861 160.290592 
L 507.701184 157.530854 
L 511.147506 155.945869 
L 514.593829 156.047323 
L 518.040152 157.439419 
L 521.486474 158.818373 
L 524.932797 159.370194 
L 528.37912 159.096264 
L 531.825442 158.459769 
L 535.271765 158.476051 
L 538.718088 159.990979 
L 542.16441 162.75943 
L 545.610733 165.882029 
L 549.057056 167.755705 
" clip-path="url(#p1f7175fc47)" style="fill: none; stroke: #ffa500; stroke-width: 4.5; stroke-linecap: square"/>
   </g>
   <g id="patch_8">
    <path d="M 321.082813 226.637812 
L 321.082813 23.837813 
" style="fill: none; stroke: #000000; stroke-width: 0.8; stroke-linejoin: miter; stroke-linecap: square"/>
   </g>
   <g id="patch_9">
    <path d="M 559.912972 226.637812 
L 559.912972 23.837813 
" style="fill: none; stroke: #000000; stroke-width: 0.8; stroke-linejoin: miter; stroke-linecap: square"/>
   </g>
   <g id="patch_10">
    <path d="M 321.082813 226.637812 
L 559.912972 226.637812 
" style="fill: none; stroke: #000000; stroke-width: 0.8; stroke-linejoin: miter; stroke-linecap: square"/>
   </g>
   <g id="patch_11">
    <path d="M 321.082813 23.837812 
L 559.912972 23.837812 
" style="fill: none; stroke: #000000; stroke-width: 0.8; stroke-linejoin: miter; stroke-linecap: square"/>
   </g>
   <g id="text_32">
    <!-- (FC) ses=2 -->
    <g transform="translate(401.977111 17.837812) scale(0.14 -0.14)">
     <use xlink:href="#DejaVuSans-28"/>
     <use xlink:href="#DejaVuSans-46" transform="translate(39.013672 0)"/>
     <use xlink:href="#DejaVuSans-43" transform="translate(96.533203 0)"/>
     <use xlink:href="#DejaVuSans-29" transform="translate(166.357422 0)"/>
     <use xlink:href="#DejaVuSans-20" transform="translate(205.371094 0)"/>
     <use xlink:href="#DejaVuSans-73" transform="translate(237.158203 0)"/>
     <use xlink:href="#DejaVuSans-65" transform="translate(289.257812 0)"/>
     <use xlink:href="#DejaVuSans-73" transform="translate(350.78125 0)"/>
     <use xlink:href="#DejaVuSans-3d" transform="translate(402.880859 0)"/>
     <use xlink:href="#DejaVuSans-32" transform="translate(486.669922 0)"/>
    </g>
   </g>
  </g>
  <g id="legend_1">
   <g id="line2d_35">
    <path d="M 31.671875 283.98625 
L 45.671875 283.98625 
L 59.671875 283.98625 
" style="fill: none; stroke: #d7255d; stroke-width: 4.5; stroke-linecap: square"/>
   </g>
   <g id="text_33">
    <!-- Vowel -->
    <g transform="translate(70.871875 288.88625) scale(0.14 -0.14)">
     <defs>
      <path id="DejaVuSans-56" d="M 1831 0 
L 50 4666 
L 709 4666 
L 2188 738 
L 3669 4666 
L 4325 4666 
L 2547 0 
L 1831 0 
z
" transform="scale(0.015625)"/>
      <path id="DejaVuSans-6f" d="M 1959 3097 
Q 1497 3097 1228 2736 
Q 959 2375 959 1747 
Q 959 1119 1226 758 
Q 1494 397 1959 397 
Q 2419 397 2687 759 
Q 2956 1122 2956 1747 
Q 2956 2369 2687 2733 
Q 2419 3097 1959 3097 
z
M 1959 3584 
Q 2709 3584 3137 3096 
Q 3566 2609 3566 1747 
Q 3566 888 3137 398 
Q 2709 -91 1959 -91 
Q 1206 -91 779 398 
Q 353 888 353 1747 
Q 353 2609 779 3096 
Q 1206 3584 1959 3584 
z
" transform="scale(0.015625)"/>
      <path id="DejaVuSans-77" d="M 269 3500 
L 844 3500 
L 1563 769 
L 2278 3500 
L 2956 3500 
L 3675 769 
L 4391 3500 
L 4966 3500 
L 4050 0 
L 3372 0 
L 2619 2869 
L 1863 0 
L 1184 0 
L 269 3500 
z
" transform="scale(0.015625)"/>
      <path id="DejaVuSans-6c" d="M 603 4863 
L 1178 4863 
L 1178 0 
L 603 0 
L 603 4863 
z
" transform="scale(0.015625)"/>
     </defs>
     <use xlink:href="#DejaVuSans-56"/>
     <use xlink:href="#DejaVuSans-6f" transform="translate(60.658203 0)"/>
     <use xlink:href="#DejaVuSans-77" transform="translate(121.839844 0)"/>
     <use xlink:href="#DejaVuSans-65" transform="translate(203.626953 0)"/>
     <use xlink:href="#DejaVuSans-6c" transform="translate(265.150391 0)"/>
    </g>
   </g>
   <g id="line2d_36">
    <path d="M 139.883125 283.98625 
L 153.883125 283.98625 
L 167.883125 283.98625 
" style="fill: none; stroke: #009da1; stroke-width: 4.5; stroke-linecap: square"/>
   </g>
   <g id="text_34">
    <!-- Stop -->
    <g transform="translate(179.083125 288.88625) scale(0.14 -0.14)">
     <defs>
      <path id="DejaVuSans-53" d="M 3425 4513 
L 3425 3897 
Q 3066 4069 2747 4153 
Q 2428 4238 2131 4238 
Q 1616 4238 1336 4038 
Q 1056 3838 1056 3469 
Q 1056 3159 1242 3001 
Q 1428 2844 1947 2747 
L 2328 2669 
Q 3034 2534 3370 2195 
Q 3706 1856 3706 1288 
Q 3706 609 3251 259 
Q 2797 -91 1919 -91 
Q 1588 -91 1214 -16 
Q 841 59 441 206 
L 441 856 
Q 825 641 1194 531 
Q 1563 422 1919 422 
Q 2459 422 2753 634 
Q 3047 847 3047 1241 
Q 3047 1584 2836 1778 
Q 2625 1972 2144 2069 
L 1759 2144 
Q 1053 2284 737 2584 
Q 422 2884 422 3419 
Q 422 4038 858 4394 
Q 1294 4750 2059 4750 
Q 2388 4750 2728 4690 
Q 3069 4631 3425 4513 
z
" transform="scale(0.015625)"/>
      <path id="DejaVuSans-74" d="M 1172 4494 
L 1172 3500 
L 2356 3500 
L 2356 3053 
L 1172 3053 
L 1172 1153 
Q 1172 725 1289 603 
Q 1406 481 1766 481 
L 2356 481 
L 2356 0 
L 1766 0 
Q 1100 0 847 248 
Q 594 497 594 1153 
L 594 3053 
L 172 3053 
L 172 3500 
L 594 3500 
L 594 4494 
L 1172 4494 
z
" transform="scale(0.015625)"/>
      <path id="DejaVuSans-70" d="M 1159 525 
L 1159 -1331 
L 581 -1331 
L 581 3500 
L 1159 3500 
L 1159 2969 
Q 1341 3281 1617 3432 
Q 1894 3584 2278 3584 
Q 2916 3584 3314 3078 
Q 3713 2572 3713 1747 
Q 3713 922 3314 415 
Q 2916 -91 2278 -91 
Q 1894 -91 1617 61 
Q 1341 213 1159 525 
z
M 3116 1747 
Q 3116 2381 2855 2742 
Q 2594 3103 2138 3103 
Q 1681 3103 1420 2742 
Q 1159 2381 1159 1747 
Q 1159 1113 1420 752 
Q 1681 391 2138 391 
Q 2594 391 2855 752 
Q 3116 1113 3116 1747 
z
" transform="scale(0.015625)"/>
     </defs>
     <use xlink:href="#DejaVuSans-53"/>
     <use xlink:href="#DejaVuSans-74" transform="translate(63.476562 0)"/>
     <use xlink:href="#DejaVuSans-6f" transform="translate(102.685547 0)"/>
     <use xlink:href="#DejaVuSans-70" transform="translate(163.867188 0)"/>
    </g>
   </g>
   <g id="line2d_37">
    <path d="M 238.913437 283.98625 
L 252.913437 283.98625 
L 266.913437 283.98625 
" style="fill: none; stroke: #603e95; stroke-width: 4.5; stroke-linecap: square"/>
   </g>
   <g id="text_35">
    <!-- Fricative -->
    <g transform="translate(278.113437 288.88625) scale(0.14 -0.14)">
     <defs>
      <path id="DejaVuSans-72" d="M 2631 2963 
Q 2534 3019 2420 3045 
Q 2306 3072 2169 3072 
Q 1681 3072 1420 2755 
Q 1159 2438 1159 1844 
L 1159 0 
L 581 0 
L 581 3500 
L 1159 3500 
L 1159 2956 
Q 1341 3275 1631 3429 
Q 1922 3584 2338 3584 
Q 2397 3584 2469 3576 
Q 2541 3569 2628 3553 
L 2631 2963 
z
" transform="scale(0.015625)"/>
      <path id="DejaVuSans-63" d="M 3122 3366 
L 3122 2828 
Q 2878 2963 2633 3030 
Q 2388 3097 2138 3097 
Q 1578 3097 1268 2742 
Q 959 2388 959 1747 
Q 959 1106 1268 751 
Q 1578 397 2138 397 
Q 2388 397 2633 464 
Q 2878 531 3122 666 
L 3122 134 
Q 2881 22 2623 -34 
Q 2366 -91 2075 -91 
Q 1284 -91 818 406 
Q 353 903 353 1747 
Q 353 2603 823 3093 
Q 1294 3584 2113 3584 
Q 2378 3584 2631 3529 
Q 2884 3475 3122 3366 
z
" transform="scale(0.015625)"/>
      <path id="DejaVuSans-61" d="M 2194 1759 
Q 1497 1759 1228 1600 
Q 959 1441 959 1056 
Q 959 750 1161 570 
Q 1363 391 1709 391 
Q 2188 391 2477 730 
Q 2766 1069 2766 1631 
L 2766 1759 
L 2194 1759 
z
M 3341 1997 
L 3341 0 
L 2766 0 
L 2766 531 
Q 2569 213 2275 61 
Q 1981 -91 1556 -91 
Q 1019 -91 701 211 
Q 384 513 384 1019 
Q 384 1609 779 1909 
Q 1175 2209 1959 2209 
L 2766 2209 
L 2766 2266 
Q 2766 2663 2505 2880 
Q 2244 3097 1772 3097 
Q 1472 3097 1187 3025 
Q 903 2953 641 2809 
L 641 3341 
Q 956 3463 1253 3523 
Q 1550 3584 1831 3584 
Q 2591 3584 2966 3190 
Q 3341 2797 3341 1997 
z
" transform="scale(0.015625)"/>
      <path id="DejaVuSans-76" d="M 191 3500 
L 800 3500 
L 1894 563 
L 2988 3500 
L 3597 3500 
L 2284 0 
L 1503 0 
L 191 3500 
z
" transform="scale(0.015625)"/>
     </defs>
     <use xlink:href="#DejaVuSans-46"/>
     <use xlink:href="#DejaVuSans-72" transform="translate(50.269531 0)"/>
     <use xlink:href="#DejaVuSans-69" transform="translate(91.382812 0)"/>
     <use xlink:href="#DejaVuSans-63" transform="translate(119.166016 0)"/>
     <use xlink:href="#DejaVuSans-61" transform="translate(174.146484 0)"/>
     <use xlink:href="#DejaVuSans-74" transform="translate(235.425781 0)"/>
     <use xlink:href="#DejaVuSans-69" transform="translate(274.634766 0)"/>
     <use xlink:href="#DejaVuSans-76" transform="translate(302.417969 0)"/>
     <use xlink:href="#DejaVuSans-65" transform="translate(361.597656 0)"/>
    </g>
   </g>
   <g id="line2d_38">
    <path d="M 365.350937 283.98625 
L 379.350937 283.98625 
L 393.350937 283.98625 
" style="fill: none; stroke: #ffa500; stroke-width: 4.5; stroke-linecap: square"/>
   </g>
   <g id="text_36">
    <!-- Nasal-approximant -->
    <g transform="translate(404.550937 288.88625) scale(0.14 -0.14)">
     <defs>
      <path id="DejaVuSans-4e" d="M 628 4666 
L 1478 4666 
L 3547 763 
L 3547 4666 
L 4159 4666 
L 4159 0 
L 3309 0 
L 1241 3903 
L 1241 0 
L 628 0 
L 628 4666 
z
" transform="scale(0.015625)"/>
      <path id="DejaVuSans-2d" d="M 313 2009 
L 1997 2009 
L 1997 1497 
L 313 1497 
L 313 2009 
z
" transform="scale(0.015625)"/>
      <path id="DejaVuSans-78" d="M 3513 3500 
L 2247 1797 
L 3578 0 
L 2900 0 
L 1881 1375 
L 863 0 
L 184 0 
L 1544 1831 
L 300 3500 
L 978 3500 
L 1906 2253 
L 2834 3500 
L 3513 3500 
z
" transform="scale(0.015625)"/>
      <path id="DejaVuSans-6e" d="M 3513 2113 
L 3513 0 
L 2938 0 
L 2938 2094 
Q 2938 2591 2744 2837 
Q 2550 3084 2163 3084 
Q 1697 3084 1428 2787 
Q 1159 2491 1159 1978 
L 1159 0 
L 581 0 
L 581 3500 
L 1159 3500 
L 1159 2956 
Q 1366 3272 1645 3428 
Q 1925 3584 2291 3584 
Q 2894 3584 3203 3211 
Q 3513 2838 3513 2113 
z
" transform="scale(0.015625)"/>
     </defs>
     <use xlink:href="#DejaVuSans-4e"/>
     <use xlink:href="#DejaVuSans-61" transform="translate(74.804688 0)"/>
     <use xlink:href="#DejaVuSans-73" transform="translate(136.083984 0)"/>
     <use xlink:href="#DejaVuSans-61" transform="translate(188.183594 0)"/>
     <use xlink:href="#DejaVuSans-6c" transform="translate(249.462891 0)"/>
     <use xlink:href="#DejaVuSans-2d" transform="translate(277.246094 0)"/>
     <use xlink:href="#DejaVuSans-61" transform="translate(313.330078 0)"/>
     <use xlink:href="#DejaVuSans-70" transform="translate(374.609375 0)"/>
     <use xlink:href="#DejaVuSans-70" transform="translate(438.085938 0)"/>
     <use xlink:href="#DejaVuSans-72" transform="translate(501.5625 0)"/>
     <use xlink:href="#DejaVuSans-6f" transform="translate(540.425781 0)"/>
     <use xlink:href="#DejaVuSans-78" transform="translate(598.482422 0)"/>
     <use xlink:href="#DejaVuSans-69" transform="translate(657.662109 0)"/>
     <use xlink:href="#DejaVuSans-6d" transform="translate(685.445312 0)"/>
     <use xlink:href="#DejaVuSans-61" transform="translate(782.857422 0)"/>
     <use xlink:href="#DejaVuSans-6e" transform="translate(844.136719 0)"/>
     <use xlink:href="#DejaVuSans-74" transform="translate(907.515625 0)"/>
    </g>
   </g>
  </g>
 </g>
 <defs>
  <clipPath id="p699f5274ad">
   <rect x="38.482813" y="23.837812" width="238.830159" height="202.8"/>
  </clipPath>
  <clipPath id="p1f7175fc47">
   <rect x="321.082813" y="23.837812" width="238.830159" height="202.8"/>
  </clipPath>
 </defs>
</svg>
