<?xml version="1.0" encoding="UTF-8"?>
<svg id="Layer_1" data-name="Layer 1" xmlns="http://www.w3.org/2000/svg" viewBox="0 0 417.45 210.78">
  <defs>
    <style>
      .cls-1 {
        fill: #1b304c;
        font-family: AvenirNext-Bold, 'Avenir Next';
        font-size: 37.64px;
        font-weight: 700;
      }

      .cls-1, .cls-2 {
        isolation: isolate;
      }

      .cls-3 {
        letter-spacing: -.02em;
      }

      .cls-4 {
        fill: #f9cbcd;
      }

      .cls-4, .cls-5, .cls-6, .cls-7, .cls-8, .cls-9, .cls-10, .cls-11, .cls-12, .cls-13, .cls-14, .cls-15, .cls-16, .cls-17, .cls-18, .cls-19, .cls-20, .cls-21, .cls-22, .cls-23, .cls-24, .cls-25, .cls-26, .cls-27, .cls-28, .cls-29, .cls-30, .cls-31, .cls-32, .cls-33, .cls-34, .cls-35, .cls-36, .cls-37, .cls-38, .cls-39, .cls-40, .cls-41, .cls-42, .cls-43, .cls-44, .cls-45, .cls-46, .cls-47, .cls-48, .cls-49, .cls-50, .cls-51 {
        stroke-width: 0px;
      }

      .cls-5 {
        fill: #f7ec3c;
      }

      .cls-6 {
        fill: #f6f7f7;
      }

      .cls-7 {
        fill: #faa33e;
      }

      .cls-8 {
        fill: #f9f9fa;
      }

      .cls-9 {
        fill: #f8eb30;
      }

      .cls-10 {
        fill: #f89825;
      }

      .cls-11 {
        fill: #2578bc;
      }

      .cls-12 {
        fill: #263c57;
      }

      .cls-13 {
        fill: #2d3f90;
      }

      .cls-14 {
        fill: #707a85;
      }

      .cls-15 {
        fill: #19314e;
      }

      .cls-16 {
        fill: #06a89e;
      }

      .cls-17 {
        fill: #0b6c3b;
      }

      .cls-18 {
        fill: #452f61;
      }

      .cls-19 {
        fill: #0d9548;
      }

      .cls-20 {
        fill: #cfd3e6;
      }

      .cls-21 {
        fill: #ccdfef;
      }

      .cls-22 {
        fill: #c6e8e7;
      }

      .cls-23 {
        fill: #e0e1e0;
      }

      .cls-24 {
        fill: #dccfe5;
      }

      .cls-25 {
        fill: #c7ded2;
      }

      .cls-26 {
        fill: #c7e6d4;
      }

      .cls-27 {
        fill: #dbdadb;
      }

      .cls-28 {
        fill: #da2360;
      }

      .cls-29 {
        fill: #d8df2d;
      }

      .cls-30 {
        fill: #ceecf8;
      }

      .cls-31 {
        fill: #304052;
      }

      .cls-32 {
        fill: #2faae1;
      }

      .cls-33 {
        fill: #a02366;
      }

      .cls-34 {
        fill: #92c744;
      }

      .cls-35 {
        fill: #fcf9d2;
      }

      .cls-36 {
        fill: #ef463b;
      }

      .cls-37 {
        fill: #fff;
      }

      .cls-38 {
        fill: #ffeed6;
      }

      .cls-39 {
        fill: #e4f0d4;
      }

      .cls-40 {
        fill: #f15f2f;
      }

      .cls-41 {
        fill: #fbb044;
      }

      .cls-42 {
        fill: #fafafb;
      }

      .cls-43 {
        fill: #fbfcfc;
      }

      .cls-44 {
        fill: #ee3437;
      }

      .cls-45 {
        fill: #f2683a;
      }

      .cls-46 {
        fill: #e9272f;
      }

      .cls-47 {
        fill: #ea2a2c;
      }

      .cls-48 {
        fill: #e9e8e9;
      }

      .cls-49 {
        fill: #f5f6d0;
      }

      .cls-50 {
        fill: #f4f4f5;
      }

      .cls-51 {
        fill: #683491;
      }
    </style>
  </defs>
  <g id="g448">
    <rect id="rect447" class="cls-37" width="417.45" height="204.63"/>
    <g id="g447">
      <path id="path2" class="cls-15" d="m387.12,58.13c.25.61.5,1.23.8,2.01.41,1.06.77,1.96,1.13,2.85.78,3.36,1.59,6.72,2.31,10.1.26,1.24.53,2.55.36,3.78-.5,3.72,1.07,6.66,3.21,9.43,2.33,3.01,4.68,6,6.99,9.03.42.56.75,1.22.98,1.89.49,1.48-.05,2.7-1.42,3.45-1.03.56-2.08,1.07-3.08,1.68-2.66,1.6-2.9,2.7-1.22,5.32.32.5.69.96,1.08,1.41,1.38,1.59,1.5,2.6.38,4.56-.39.37-.68.62-.96.88-.36.28-.71.55-1.13.88,1.5,2.07.12,3.67-.84,5.49-1.72,1.85-.96,3.66-.34,5.47.26,2.01.65,4.02.73,6.04.06,1.5-.3,3.02-.55,4.68-.22.47-.37.79-.51,1.11-.38.43-.77.86-1.27,1.41-.92.57-1.73,1.03-2.53,1.49-2.95.86-5.97,1.25-9.04,1.2-.92-.01-1.85.13-2.99.22-1,.1-1.78.18-2.56.26-3.27.12-6.42.8-9.55,2.26-1.06,1.09-1.97,2.1-2.88,3.11-1.03,2.9-1.8,5.94-.32,8.78.8,1.53,2.36,2.74,3.78,3.84,3.04,2.35,6.22,4.53,9.33,6.79.31.22.56.52.89.93.04.26.03.37-.08.47-.38-.02-.65-.03-1.01-.09-.52-.12-.96-.18-1.41-.25-2.25-.57-4.51-1.14-6.94-1.76-1.07-.25-1.97-.45-2.86-.65-.45-.11-.89-.23-1.5-.41-.81-.17-1.45-.28-2.09-.39-1.03-.29-2.07-.59-3.28-.95-.47-.13-.77-.17-1.06-.24-2.4-.55-4.8-1.1-7.21-1.66-1.3-.35-2.6-.69-4.09-1.07-.38-.02-.57,0-.8-.07-.28-.15-.51-.2-.83-.31-2.85-.71-5.62-1.37-8.39-2.04-.6-.17-1.21-.33-2-.54-2.45-.55-4.72-1.07-6.98-1.59-2.94-.71-5.89-1.42-8.83-2.13-.4-.1-.8-.16-1.35-.33-.64-.19-1.13-.29-1.62-.4-2.67-.67-5.34-1.33-8.2-2.07-.96-.22-1.74-.38-2.51-.53.26-1.96.53-3.93.85-6.08.16-.88.27-1.57.36-2.27.17-1.4.32-2.8.49-4.21.2-.78.53-1.56.56-2.35.08-2.27.44-4.63-.07-6.78-.56-2.4-1.78-4.71-3.03-6.88-2.38-4.17-5.93-7.46-8.85-11.24-1.83-2.38-4.19-4.36-5.41-7.2-.7-1.63-1.42-3.26-2.16-5.07-.53-1.58-1.02-2.97-1.5-4.46-.1-.46-.21-.82-.31-1.29-.34-1.49-.69-2.88-1.04-4.26-.08-1.12-.16-2.24-.25-3.36-.16-1.96-.51-3.92-.45-5.87.08-2.48.49-4.95.83-7.61.24-1.27.42-2.36.6-3.44.51-1.82,1.03-3.63,1.6-5.62.11-.38.17-.59.23-.8.68-1.65,1.37-3.3,2.11-5.11.38-.87.7-1.58,1.02-2.29.24-.37.47-.74.82-1.23,1.15-1.82,2.18-3.53,3.22-5.23.36-.45.72-.9,1.19-1.48,4.03-5.05,8.58-9.28,13.92-12.64.15-.1.24-.31.35-.47.62-.28,1.25-.56,2.02-.93,1.39-.78,2.64-1.47,3.88-2.16.36-.09.72-.19,1.26-.33.72-.28,1.26-.52,1.81-.76.71-.24,1.41-.47,2.29-.76.47-.17.77-.29,1.06-.4,1.69-.39,3.37-.78,5.23-1.24.93-.19,1.69-.3,2.45-.42,3.1-.16,6.21-.4,9.31-.45,1.95-.03,3.91.22,6.06.38,1.69.3,3.17.57,4.65.84,1.99.56,3.97,1.12,6.13,1.74,2.09.86,4,1.65,5.97,2.51.79.44,1.53.81,2.27,1.18.28.18.56.36.98.61,2.41,1.65,4.68,3.24,6.95,4.83.64.56,1.28,1.13,2.02,1.8.45.39.79.68,1.13.96.51.54,1.02,1.07,1.63,1.71.53.56.97,1.01,1.4,1.46.28.38.57.77.97,1.26,1.28,1.63,2.45,3.14,3.61,4.66.11.21.22.43.42.76.34.49.59.85.83,1.22.39.75.79,1.49,1.27,2.38.59,1.11,1.1,2.07,1.6,3.04m-55.83,37.99c-1.07-.9-2.29-1.68-3.17-2.74-.91-1.08-1.88-1.31-3.15-1.11-5.35.8-10.48-.25-15.35-2.31-3.19-1.35-6.16-3.21-9.2-4.88-.24-.13-.31-.6-.46-.9.36-.08.76-.31,1.07-.22.91.28,1.78.68,2.85,1.11-.14-1.13-.33-2.05-.34-2.97,0-.38.38-.76.58-1.14.26.31.68.59.76.94.16.7.06,1.46.22,2.16.16.71.31,1.66.81,2,1.66,1.15,3.4,2.27,5.26,3.06,4.32,1.84,8.88,2.23,13.53,1.81.35-.03.69-.15,1.14-.25-.24-.46-.4-.75-.54-1.06-.16-.35-.36-.7-.41-1.07-.04-.28.14-.59.23-.89.32.13.66.22.94.4.16.1.23.35.32.54,2.99,5.94,7.98,8.48,14.45,8.38,1.22-.02,2.43-.37,3.68-.57-1.17-1.34-2.21-2.4-3.08-3.57-.54-.72-1.07-1.01-1.99-1.07-3.67-.24-6.47-1.94-8.15-5.29-.37-.74-.66-1.52-.97-2.24-3.92,1.55-7.8,2.22-11.86,1.37-1.13-.24-2.27-.42-3.37-.75-.4-.12-.7-.6-1.05-.91.44-.14.88-.39,1.32-.39.5,0,.99.25,1.49.34,1.47.24,2.95.67,4.41.64,3.18-.06,6.4-.18,9.18-2.13.66-.46,1.22-.4,1.26.62.23,5.25,6.35,8.72,10.27,6.97.54-.24,1.08-.52,1.65-.62.44-.08.93.11,1.4.18-.24.36-.4.84-.73,1.04-.63.4-1.37.64-2.28,1.04.88.95,1.59,1.91,2.48,2.65,1.81,1.48,3.91.92,5.88.47,2.62-.6,4.61-3.06,4.58-5.7-.04-4.23-2.11-7.02-5.61-9.02-2.51-1.44-5.14-1.49-7.63-.93,0,1.27.07,2.33-.04,3.37-.04.35-.52.66-.8.98-.2-.35-.58-.71-.57-1.05.11-3.53-1.68-5.96-4.5-7.75-3.38-2.14-9.54-1.59-11.43,2.04-.24.46-.91.68-1.38,1.02-.13-.11-.26-.22-.4-.33.2-.47.31-.99.61-1.39.54-.71,1.15-1.38,1.78-2.01.48-.47.42-.8-.02-1.28-2.94-3.29-7.12-3.87-10.34-.4-.37.4-.9.65-1.35.96-.12-.1-.25-.2-.37-.3.16-.38.23-.82.49-1.11.55-.65,1.23-1.19,1.78-1.84.25-.29.53-.8.43-1.09-.73-2.32-1.87-4.36-4.04-5.7-3.1-1.91-6.38-1.84-9.49-.38-2.85,1.34-4.82,3.71-5.35,6.95-.15.93.09,1.95.29,2.9.49,2.35,1.09,4.67,3.41,6,.32.18.49.61.84,1.07-.5.12-.89.33-1.02.23-1.28-1.05-2.52-2.15-3.8-3.26-2.7,2.51-2.83,6.54-1.51,10.03,1.42,3.74,4.39,5.74,8.3,6.32,1.04.15,1.33.41,1.04,1.57-.22.88-.1,2.2.44,2.86,1.24,1.52,2.71,2.91,4.29,4.07,2.49,1.81,5.45,2.23,8.46,2.42,1.71.11,1.87.46,1.58,2.1-.5,2.81-.97,5.62-1.43,8.44-.06.36-.04,1.03.09,1.07.8.23,1.67.51,2.45.38.57-.09,1.33-.68,1.51-1.22,1.14-3.39,2.13-6.83,3.18-10.25.29-.95.85-1.55,1.89-1.86,3-.9,5.35-2.81,7.46-5.11-.95-.46-1.86-.89-2.92-1.44m16.14-33c-.32-1.93-.62-3.86-.98-5.79-.2-1.08-.93-1.65-2.01-1.85-.84-.15-1.67-.36-2.46-.66-.24-.09-.33-.58-.49-.89.28-.13.54-.32.83-.37.23-.04.5.1.74.17q2.56.71,3.95-1.46c.07-.11.1-.3.19-.33.26-.08.57-.18.81-.11.16.05.33.43.29.61-.13.53-.45,1.03-.54,1.56-.13.81-.38,1.73-.13,2.45,1.71,4.84,1.53,9.75.55,14.64-.43,2.13-1.31,4.16-2,6.29.97.31,1.96.64,3.09,1,.91-2.53,1.8-4.96,2.64-7.41.11-.32,0-.76-.12-1.1-.33-.87-.78-1.7-1.07-2.59-.18-.55-.18-1.17-.31-2.1,2.08.95,1.79,2.93,2.82,4.07,1.42-.51,1.95-2.55,3.85-2.51,0,1.06-.4,1.5-1.85,2.75-.82.71-1.69,1.52-2.14,2.48-.78,1.69-1.25,3.51-1.84,5.29-.67,2.02-.61,2.18,1.25,3.27.38.22.9.42,1.31.36,1.42-.22,2.84-.47,4.21-.89,1.08-.33,2.09-.93,3.08-1.39-.66-1.41-2.24-1.95-2.08-3.89.62.45,1.05.68,1.37,1.01,2.95,3.09,6.52,3.99,10.59,2.91,5.49-1.46,7.69-5.92,6.85-11.18-.25-1.57-1.01-3.06-1.64-4.87-1.48,2.02-2.6,3.78-4.76,4.5-.51-1.42.64-1.82,1.25-2.34,1.84-1.59,2.76-3.53,2.67-5.94-.04-1.06-.08-2.13-.2-3.19-.51-4.23-3.63-6.6-7.42-7.33-.24.43-.45.81-.67,1.2-.33-.32-.79-.57-.97-.96-1.37-3.01-3.1-5.58-6.64-6.32-1.94-.4-3.83-.53-5.6.04.08.7.13,1.2.18,1.69-.5-.12-1-.22-1.48-.37-.15-.04-.26-.22-.4-.31-1.87-1.33-4.01-1.99-6.23-2.45-4.91-1-9.77-.63-14.58.57-1.77.44-3.28,1.43-4.7,2.76,1.84.85,3.56,1.65,5.29,2.43.92.41,1.86.65,2.77-.04,1.59-1.2,3.44-1.6,5.36-1.83,2.69-.32,5.08.24,7.03,2.24,2.72,2.8,5.83,3.71,9.63,2.28,2.12-.8,4.37-.35,6.01,1.16,1.68,1.54,3.08,3.41,4.4,5.27.66.94.92,2.17,1.27,3.3.08.24-.23.61-.36.92-.28-.19-.71-.31-.82-.57-.47-1.08-.85-2.2-1.3-3.4-1.55.31-2.53,1.21-3.24,2.58-.27.51-.88.84-1.33,1.26.05-.58-.1-1.31.19-1.73.84-1.22,1.85-2.31,2.79-3.46-.03-.5-.45-1.12-.92-1.7-1.9-2.34-4.19-3.05-7.17-2.13-1.48.45-3.19.37-4.77.26-1.96-.13-3.41-1.4-4.86-2.63-1.6-1.36-3.35-2.65-5.57-2.37-2.25.28-4.52.67-6.38,2.27.21.2.43.4.65.59,4.32,3.88,7.22,8.45,7.11,14.51-.03,1.87.37,3.62,1.44,5.21.37.55.53,1.25.78,1.89-1.64.61-1.43-.99-2.19-1.44-.34,2.85-.68,5.62-1.01,8.38,2.41.44,3.08,0,3.96-2.07,1.65-3.85,2.22-7.85,2.06-12.25m-11.79-12.17c-3.45-2.92-7.18-5.17-11.81-5.78-7.77-1.02-13.54,2.34-18.42,7.93-1.95,2.24-2.52,4.99-2.99,7.88.22-.03.42-.04.61-.1,2.68-.75,5.36-.59,7.88.45,2.81,1.15,4.62,3.36,5.69,6.21.17.47.78,1.19,1.06,1.14,3.51-.67,6.09.84,8.42,3.23.37.38,1.22.57,1.78.47,3.98-.75,7.6-.31,10.58,2.76.46.47,1.02.84,1.73,1.41.31-2.75.59-5.26.88-7.78-.44.16-.56.42-.76.54-.46.28-.96.5-1.45.75.12-.53.14-1.1.38-1.57.29-.56.82-.99,1.13-1.54.34-.62.82-1.34.76-1.97-.24-2.4-.49-4.82-1.08-7.15-.67-2.65-2.54-4.68-4.38-6.88h0Z"/>
      <path id="path3" class="cls-12" d="m31.92,69.35c3.84-.97,7.05.38,9.86,2.84,2.36,2.06,4.32,4.48,5.89,7.19.72,1.25.6,1.95-.64,2.64-.77.43-1.16.95-1.35,1.84-.11.53-.78,1.2-1.3,1.3-.41.09-1.15-.47-1.45-.94-1.68-2.55-3.44-4.96-6.28-6.38-2.23-1.12-4.39-.56-6.16,1.43-2.46,2.77-3.08,6.19-3.2,9.69-.17,5.31.83,10.44,3.13,15.25,1.74,3.63,3.84,6.97,7.52,9.02,2.61,1.46,6.04,1.1,7.86-2.15.39-.69.81-1.36,1.24-2.09,2.09.64,3.83.44,5-1.63.19-.34.98-.55,1.41-.46.28.06.66.83.58,1.19-.53,2.36-1.2,4.69-1.78,7.03-.53,2.12-1.99,3.55-3.55,4.9-2.72,2.36-6.64,2.3-9.49.14-.32-.25-.68-.44-1.26-.82.14.5.14.79.28.93,2.13,2.14,4.52,3.95,7.56,4.43,4.25.68,7.26-.8,9.84-5.07,2.41-3.98,3.21-8.46,3.21-13.32-.03-.66-.15-1.1-.06-1.5.14-.61.32-1.57.69-1.69.66-.2,1.52.02,2.23.25.5.16.88.66,1.35.93,1.33.76,2.44.64,3.27-.3.12-.06.25-.12.54-.22,1.85-.27,2.28.09,2.31,1.8,0,.25.04.49.06.74-.16,3.04-.16,6.1-.55,9.1-.27,2.1-1.05,4.14-1.68,6.18-.8,2.58-2.32,4.76-4.2,6.63-.95.95-2.22,1.64-3.46,2.22-2.32,1.08-4.78,1.75-7.37,1.74-5.05-.03-9.55-1.67-13.57-4.7-2.93-2.21-5.1-5.06-6.84-8.23-1.66-3.03-3.41-6.04-4.65-9.24-1.42-3.67-2.52-7.5-3.4-11.35-.7-3.08-1.39-6.2-1.3-9.43.06-2.07-.36-4.16-.28-6.23.09-2.28.64-4.53.77-6.81.16-2.94,1.19-5.62,2.36-8.21,1.27-2.82,3.03-5.49,5.78-7.07,1.8-1.03,3.82-1.83,6.1-1.39,1.78.34,3.63.28,5.41.62,1.29.25,2.64.65,3.73,1.34,2.35,1.5,4.59,3.17,6.79,4.88,3.65,2.84,5.99,6.68,8.01,10.96.93,2.81.35,4.06-2.51,3.5-.79-.15-1.75.53-2.63.82-.09,0-.17.03-.31.18-.72-.02-1.34-.11-1.96-.2-.05-.14-.09-.27-.19-.54-.72-1.4-1.39-2.68-2.05-3.95-1.59-3.14-3.97-5.59-6.69-7.75-2.39-1.9-4.99-3.25-8.14-3.1-1.01.05-2.01.3-3.2.49-.73.44-1.28.86-1.82,1.27-.15.12-.31.23-.58.45-.71,1.31-1.52,2.46-1.3,3.87.81-1.03,1.6-2.05,2.4-3.06Z"/>
      <path id="path4" class="cls-51" d="m121.38,154.69c-.03-1.75-.1-3.5-.1-5.25-.01-38.85-.02-77.7-.03-116.54,0-.73.05-1.45.15-2.34,1.16-1.72,2.32-2.25,3.73-1.84,1.51.44,2.24,1.56,2.28,3.45,0,.34,0,.68,0,1.03,0,23.8,0,47.59,0,71.39,0,.51.06,1.02.09,1.53-.02,6.15-.03,12.3-.06,18.69-.02,9.34-.03,18.44-.04,27.55,0,.51.02,1.03-.05,1.54-.3,1.96-2.15,3.2-3.96,2.49-.77-.3-1.35-1.1-2.01-1.67h0Z"/>
      <path id="path5" class="cls-29" d="m223.44,110.72c-.07.05-.15.1-.35.23-1.45.91-2.77.66-4.08.05-.05-.07-.11-.14-.23-.34-.31-1.1-.75-2.08-.75-3.06-.04-26.64-.03-53.28-.03-79.92,0-.38-.02-.77.04-1.15.25-1.65,1.48-2.79,3.01-2.81,1.56-.02,2.87,1.17,3.09,2.88.06.51.03,1.02.03,1.54,0,26.26.01,52.51-.03,78.77,0,1.28-.45,2.56-.7,3.83h0Z"/>
      <path id="path6" class="cls-5" d="m229.79,128.71c-.05-.07-.11-.14-.23-.34-.31-1.1-.75-2.08-.75-3.06-.04-26.68-.03-53.36-.03-80.05,0-.3-.01-.6.02-.9.21-1.71,1.46-2.92,3.03-2.94,1.61-.02,2.92,1.24,3.1,3.01.05.51.02,1.03.02,1.54,0,26.17.01,52.34-.03,78.51,0,1.32-.46,2.64-.7,3.96-.07.05-.15.1-.35.23-1.45.9-2.77.65-4.08.05h0Z"/>
      <path id="path7" class="cls-40" d="m276.54,47.48c2.14.81,2.76,1.76,2.76,4.34,0,20.35,0,40.7,0,61.04,0,.81-.02,1.63,0,2.44.05,1.54-.51,2.75-2.01,3.58-.27.11-.39.18-.52.25-.44,0-.87,0-1.47-.06-.3-.08-.44-.1-.59-.12-1.49-.86-2.01-2.18-2.01-3.86.02-21.16.01-42.31.02-63.47,0-2.32.65-3.3,2.78-4.08.47-.03.75-.05,1.03-.07h0Z"/>
      <path id="path8" class="cls-14" d="m8.3,101.46c0-2.86-.11-5.73.07-8.58.1-1.57.71-3.1,1.1-4.65.12-.48.3-.95.45-1.43.36-1.2.95-1.54,2.23-1.28,1.12.23,1.81-.3,2.1-1.63.68-3.16,1.35-6.32,2.03-9.47.33-1.51.97-1.82,2.33-1.18.58.27.79.56.58,1.28-1.56,5.27-1.54,10.71-1.27,16.09.19,3.67,1.13,7.31,1.83,10.94,1.05,5.43,3.14,10.54,5.58,15.43,1.83,3.69,4.44,6.99,6.77,10.42.41.6,1.14.98,1.71,1.45-1.1,1.94-1.25,1.95-3.07.83-3.43-2.11-5.71-5.3-8.08-8.42-.08-.1-.13-.22-.2-.33-1.08-1.65-1.55-1.79-3.29-.95-1.9.92-2.25.95-3.58-.7-2.41-2.98-4.94-5.95-6.06-9.69-.66-2.21-.79-4.58-1.11-7.07-.01-.48-.06-.78-.11-1.08Z"/>
      <path id="path9" class="cls-18" d="m132.28,86.31c0-19.77,0-39.54.07-59.48.07-.4.08-.62.09-.84.31-1.18,1-2,2.41-2.34.65-.02,1.1-.03,1.55-.05,1.18.31,1.96,1.03,2.34,2.38.08.38.15.58.21.78,0,19.77,0,39.54-.07,59.47-.07.31-.08.45-.09.6-.28,1.61-1.54,2.36-2.85,2.75-1.08.32-2.18-.23-2.89-1.19-.28-.38-.38-.91-.56-1.54-.08-.29-.14-.42-.2-.54Z"/>
      <path id="path10" class="cls-10" d="m263.92,106.64c-.06-.08-.11-.15-.24-.35-.31-1.15-.75-2.17-.75-3.19-.05-13.73-.03-27.46-.03-41.19,0-2.57,1.12-4.05,3.06-4.08,1.98-.03,3.13,1.49,3.13,4.14,0,13.56.02,27.12-.03,40.67,0,1.24-.45,2.47-.69,3.71-.08.05-.15.11-.36.23-1.45.93-2.77.69-4.09.05Z"/>
      <path id="path11" class="cls-11" d="m154.21,97.58c.02-.26.03-.52.06-.96,0-.32-.04-.45-.06-.58.02-.26.03-.52.07-.97,0-.41-.04-.62-.06-.83.01-.18.03-.36.06-.72,0-.4-.04-.61-.06-.82.02-.18.03-.36.07-.72,0-.4-.04-.61-.06-.82.02-.26.03-.52.06-.96,0-.32-.04-.45-.06-.58.02-.26.03-.52.06-.97,0-.41-.04-.62-.06-.83.01-.18.03-.36.06-.72,0-.4-.04-.61-.07-.82.02-.18.03-.36.07-.72,0-.4-.04-.61-.06-.82.02-.26.03-.52.06-.96,0-.32-.04-.45-.06-.58.02-.26.03-.52.06-.97,0-.41-.04-.62-.06-.83.01-.18.03-.36.06-.72,0-.4-.04-.61-.07-.82.02-.18.03-.36.07-.72,0-.4-.04-.61-.06-.82.02-.26.03-.52.06-.96,0-.32-.04-.45-.06-.58.02-.26.03-.52.06-.97,0-.41-.04-.62-.06-.83.01-.18.03-.36.06-.72,0-.4-.04-.61-.06-.82.02-.18.03-.36.07-.72,0-.4-.04-.61-.06-.82.02-.26.03-.52.06-.96,0-.32-.04-.45-.06-.58.02-.26.03-.52.06-.97,0-.41-.04-.62-.06-.83.01-.18.03-.36.06-.72,0-.4-.04-.61-.07-.82.02-.18.03-.36.07-.72,0-.4-.04-.61-.06-.82.02-.26.03-.52.06-.96,0-.32-.04-.45-.06-.58.01-.26.03-.52.06-.97,0-.41-.04-.62-.06-.83.01-.18.03-.36.06-.72,0-.4-.04-.61-.07-.82.02-.18.03-.36.07-.72,0-.4-.04-.61-.06-.82.02-.26.03-.52.07-.97.2-.91.38-1.63.57-2.34.49-.33.98-.65,1.54-.99.23-.1.38-.2.53-.29,1.33.22,2.67.43,3.35,2.06.16.64.27,1.1.38,1.57-.01.26-.03.52-.06.96.01.32.04.45.06.58-.02.26-.03.52-.07.97,0,.41.04.62.07.83-.02.26-.03.52-.06.96,0,.32.04.45.06.58-.02.26-.03.52-.06.96,0,.32.04.45.06.58-.02.26-.03.52-.06.96.01.32.04.45.06.58-.02.26-.03.52-.06.97,0,.41.04.62.07.83-.02.26-.03.52-.06.96,0,.32.04.45.06.58-.02.26-.03.52-.06.96,0,.32.04.45.06.58-.01.26-.03.52-.06.96.01.32.04.45.06.58-.02.26-.03.52-.06.97,0,.41.04.62.06.83-.02.26-.03.52-.06.96,0,.32.04.45.06.58-.02.26-.03.52-.06.96,0,.32.04.45.06.58-.01.26-.03.52-.06.96.01.32.04.45.06.58-.02.26-.03.52-.06.97,0,.41.04.62.07.83-.02.26-.03.52-.06.96,0,.32.04.45.06.58-.02.26-.03.52-.06.96.01.32.04.45.06.58-.02.26-.03.52-.06.96,0,.32.04.45.06.58-.02.26-.03.52-.06.97,0,.41.04.62.07.83-.02.26-.03.52-.06.96,0,.32.04.45.06.58-.02.26-.03.52-.06.96,0,.32.04.45.06.58-.02.26-.03.52-.06.96.01.32.04.45.06.58-.02.26-.03.52-.06.97,0,.41.04.62.07.83-.02.18-.03.36-.07.72,0,.4.04.61.06.82-.01.26-.03.52-.06.96.01.32.04.45.06.58-.02.26-.03.52-.06.96.01.32.04.45.06.58-.02.26-.03.52-.07.97-.28,1-.55,1.81-.81,2.61-.07.05-.14.1-.32.22-.27.2-.43.33-.59.46-.91.47-1.84.73-2.89.05-.25-.26-.43-.36-.61-.46-.06-.07-.11-.13-.24-.33-.36-.93-.64-1.74-.92-2.55.02-.18.03-.36.07-.72,0-.4-.04-.61-.07-.82Z"/>
      <path id="path12" class="cls-36" d="m98.95,80.15c0-1.07.02-2.01.02-2.95-.01-2.37,1.27-3.73,3.52-3.73,2.04,0,3.5,1.55,3.5,3.72,0,9.07-.02,18.13-.03,27.2,0,1.97.01,3.93,0,5.9,0,2.81-3.04,4.63-5.41,3.1-1.17-.75-1.58-1.92-1.57-3.26,0-9.78.01-19.56.01-29.34,0-.17-.02-.34-.04-.64Z"/>
      <path id="path13" class="cls-41" d="m257.29,129.95c-.08.03-.15.07-.33.21-1.44.91-2.74.67-4.04.04-.03-.08-.08-.15-.22-.32-.32-.88-.77-1.64-.77-2.4-.05-9.4-.04-18.8-.02-28.21,0-2.02,1.3-3.43,3.04-3.45,1.78-.03,3.07,1.42,3.12,3.51,0,.38,0,.77,0,1.15,0,8.59.03,17.18-.03,25.77,0,1.23-.48,2.46-.73,3.69h0Z"/>
      <path id="path14" class="cls-33" d="m84.81,102.23c-.07.05-.14.1-.34.22-1.44.95-2.74.71-4.04.04-.05-.07-.1-.14-.23-.33-.32-1.1-.77-2.07-.78-3.05-.06-6.41-.03-12.83-.03-19.25,0-2.61,0-5.22,0-7.83,0-2.47,1.14-3.92,3.06-3.94,1.96-.02,3.12,1.45,3.13,4.01,0,.17,0,.34,0,.51,0,8.72.03,17.45-.03,26.17,0,1.15-.48,2.29-.73,3.44h0Z"/>
      <path id="path15" class="cls-18" d="m139.22,99.4c0,6.34,0,12.68-.06,19.2-.07.4-.09.62-.11.84-.33,1.17-1.03,1.97-2.41,2.35-.65.02-1.1.03-1.55.04-1.19-.3-1.98-1.01-2.34-2.38-.08-.38-.15-.58-.22-.79,0-6.34.01-12.68.06-19.2.07-.4.09-.62.11-.84.32-1.17,1-1.99,2.41-2.34.65-.02,1.1-.03,1.55-.04,1.17.31,1.97,1.03,2.34,2.38.08.38.15.58.22.79Z"/>
      <path id="path16" class="cls-11" d="m155.37,131.54c-.14-.15-.29-.29-.48-.59-.23-.52-.41-.88-.59-1.25,0-.11-.02-.22-.02-.51-.02-.3-.05-.43-.08-.56.02-.26.03-.52.06-.97,0-.41-.04-.62-.06-.83.01-.18.03-.36.06-.72,0-.4-.04-.61-.06-.82.02-.18.03-.36.07-.72,0-.4-.04-.61-.06-.82.02-.26.03-.52.06-.96,0-.32-.04-.45-.06-.58.02-.26.03-.52.06-.97,0-.41-.04-.62-.06-.83.01-.18.03-.36.06-.72,0-.4-.04-.61-.06-.82.02-.18.03-.36.07-.72,0-.4-.04-.61-.06-.82.02-.26.03-.52.06-.96,0-.32-.04-.45-.06-.58.02-.26.03-.52.06-.97,0-.41-.04-.62-.06-.83.01-.18.03-.36.06-.72,0-.4-.04-.61-.06-.82.02-.18.03-.36.07-.72,0-.4-.04-.61-.07-.82.02-.26.03-.52.06-.96,0-.32-.03-.45-.05-.58.03-.11.06-.22.14-.44.05-.27.05-.42.05-.57.49-1.27,1.56-1.99,2.78-1.96,1.2.02,2.48.42,3.07,1.95.13.28.21.4.29.52,0,.11.02.22.02.51.02.3.05.43.08.56-.01.26-.03.52-.06.96.01.32.04.45.06.58-.02.26-.03.52-.07.97,0,.41.04.62.06.83-.02.26-.03.52-.06.96,0,.32.04.45.06.58-.02.26-.03.52-.06.96.01.32.04.45.06.58-.02.26-.03.52-.06.96.01.32.04.45.06.58-.02.26-.03.52-.06.97,0,.41.04.62.06.83-.02.26-.03.52-.06.96,0,.32.04.45.06.58-.02.26-.03.52-.06.96.01.32.04.45.06.58-.02.26-.03.52-.06.96.01.32.04.45.06.58-.02.26-.03.52-.06.97,0,.41.04.62.07.83-.02.26-.03.52-.06.96,0,.32.04.45.06.58-.02.26-.03.52-.06.96,0,.32.03.45.05.58-.03.11-.06.22-.15.45-.1.27-.14.42-.19.56-.58,1.62-1.96,1.88-3.56,1.94-.56-.26-.97-.44-1.37-.63Z"/>
      <path id="path18" class="cls-7" d="m50.82,107c-.8.82-1.66,1.07-2.63.64-.95-.42-1.43-1.18-1.43-2.23,0-1.15,0-2.3,0-3.45,0-5.34,0-10.67.01-16.01,0-.38-.01-.77.01-1.15.1-1.38,1.28-2.55,2.57-2.55,1.31,0,2.24,1.02,2.26,2.58.05,3.8.07,7.6.08,11.4,0,2.73.05,5.46-.05,8.18-.03.85-.49,1.68-.82,2.59h0Z"/>
      <path id="path19" class="cls-25" d="m184.67,63.73c0-9.49,0-18.86,0-28.23,0-1.68.55-3.04,2.16-3.74,2.32-1.01,4.77.55,4.97,3.12.02.26,0,.51,0,.77,0,33.19,0,66.38,0,99.56,0,1.46-.21,2.85-1.56,3.7-2.46,1.55-5.34,0-5.56-2.95-.03-.38,0-.77,0-1.15,0-23.65,0-47.3,0-71.08m6.66-18.09c0-3.46.03-6.93-.02-10.39-.03-2-1.24-3.26-3.02-3.29-1.83-.03-3.05,1.26-3.14,3.31-.01.26,0,.51,0,.77,0,32.97,0,65.95,0,98.92,0,.51,0,1.03.08,1.53.26,1.58,1.48,2.61,3.02,2.61,1.54,0,2.77-1.04,3-2.62.11-.76.08-1.53.08-2.3,0-29.42,0-58.85,0-88.53h0Z"/>
      <path id="path20" class="cls-26" d="m195.96,108.9c0-27.93,0-55.73,0-83.52,0-2.07.73-3.35,2.25-3.94,2.29-.88,4.67.65,4.87,3.15.02.25,0,.51,0,.77,0,33.19,0,66.38,0,99.56,0,1.46-.25,2.86-1.56,3.72-1.24.81-2.6.81-3.89.07-1.3-.74-1.66-2.04-1.67-3.39-.04-5.43-.02-10.86-.02-16.42m6.66-24.25c0-19.54,0-39.08,0-58.63,0-.72-.01-1.47-.18-2.16-.32-1.33-1.45-2.14-2.83-2.16-1.44-.03-2.62.79-2.97,2.16-.16.61-.18,1.27-.18,1.9,0,32.97,0,65.94,0,98.91,0,.64.02,1.29.16,1.91.32,1.36,1.52,2.24,2.92,2.24,1.4,0,2.6-.87,2.92-2.24.15-.66.17-1.36.17-2.03,0-13.21,0-26.43,0-39.9h0Z"/>
      <path id="path21" class="cls-40" d="m62.44,78.1c.13-1.57.78-2.27,2.11-2.27,1.29,0,2.14.85,2.22,2.38.08,1.66.07,3.33.07,5,0,5.6,0,11.2,0,16.8,0,1.73-.76,2.45-2.62,2.45-1.12,0-1.78-.9-1.79-2.41,0-6.5-.02-13-.01-19.7.01-.89.01-1.57.01-2.25h0Z"/>
      <path id="path22" class="cls-36" d="m98.54,54.65c-.04-.77-.1-1.47.02-2.13.39-2.1,1.79-3.17,4.52-2.93,1.14.1,2.67,1.17,2.73,3.56.08,3.03.07,6.07,0,9.1-.04,1.41-.46,2.78-1.89,3.44-1.44.66-2.98.54-4.11-.55-.68-.67-1.22-1.77-1.3-2.72-.14-1.77.11-3.58.16-5.37.02-.77-.05-1.54-.14-2.39Z"/>
      <path id="path23" class="cls-20" d="m149.97,125.33c0,3.72.02,7.31,0,10.9-.01,1.66-.93,2.94-2.38,3.45-1.44.51-3.05.19-3.87-1.11-.53-.84-.85-1.98-.85-2.98-.04-25.48-.04-50.97-.04-76.45,0-4.53.05-9.07-.02-13.6-.03-2.11,1.31-4.04,3.65-4.09,2.04-.04,3.51,1.75,3.51,4.08,0,26.55,0,53.11,0,79.79m-1.81-82.84c-2.78-1.37-4.85.08-4.85,3.43,0,29.85,0,59.7,0,89.56,0,.59.03,1.21.18,1.78.32,1.3,1.49,2.19,2.81,2.23,1.32.04,2.56-.75,2.95-2.04.19-.64.24-1.34.24-2.02.01-11.72.01-23.44.01-35.16,0-18.09,0-36.18,0-54.27,0-1.27-.09-2.49-1.34-3.5h0Z"/>
      <path id="path24" class="cls-35" d="m240.96,27.88c3.03-2.04,5.8.42,5.8,3.43-.03,28.39-.02,56.79-.02,85.18,0,1.57-.39,2.98-1.93,3.76-2.47,1.26-4.98-.32-5.22-3.26-.02-.25,0-.51,0-.77,0-28.22,0-56.45,0-84.67,0-1.38.34-2.61,1.4-3.67m5.28,25.96c0-7.57,0-15.14,0-22.71,0-2.12-1.26-3.56-3.05-3.58-1.79-.03-3.07,1.42-3.12,3.52,0,.17,0,.34,0,.51,0,28.23,0,56.45,0,84.68,0,.59.04,1.2.19,1.77.59,2.26,3.3,2.97,4.99,1.36.94-.9.99-2.02.99-3.19,0-20.7,0-41.4,0-62.36h0Z"/>
      <path id="path25" class="cls-49" d="m223.53,110.7c.15-1.26.61-2.54.61-3.82.04-26.26.03-52.51.03-78.77,0-.51.03-1.03-.03-1.54-.22-1.7-1.52-2.9-3.09-2.88-1.53.02-2.77,1.17-3.01,2.81-.06.38-.04.77-.04,1.15,0,26.64,0,53.28.03,79.92,0,.98.45,1.96.69,3.03-.4-.6-.83-1.27-1.19-1.99-.1-.2-.02-.5-.02-.76,0-26.77,0-53.53,0-80.3,0-1.42.29-2.76,1.53-3.61,2.53-1.73,5.32-.05,5.62,2.92.03.25,0,.51,0,.77,0,26.72.01,53.45-.04,80.17,0,.96-.65,1.91-1.09,2.88h0Z"/>
      <path id="path26" class="cls-35" d="m234.31,128.41c.15-1.3.61-2.62.61-3.94.04-26.17.03-52.34.03-78.51,0-.51.03-1.03-.02-1.54-.18-1.77-1.49-3.03-3.1-3.01-1.57.02-2.82,1.23-3.03,2.94-.04.3-.02.6-.02.9,0,26.68,0,53.36.03,80.05,0,.98.45,1.96.69,3.03-.3-.23-.74-.5-.87-.88-.22-.63-.34-1.33-.34-2-.02-26.76-.02-53.52,0-80.28,0-1.41.32-2.76,1.63-3.54,2.49-1.51,5.28.02,5.52,2.98.02.21,0,.43,0,.64,0,26.68,0,53.35-.01,80.03,0,1.13.04,2.33-1.12,3.14h0Z"/>
      <path id="path27" class="cls-17" d="m190.81,24.98c-.09.02-.16.07-.34.21-1.44.97-2.74.72-4.04.04-.03-.08-.08-.15-.23-.32-.32-.92-.75-1.71-.78-2.52-.08-2.94-.05-5.88-.03-8.82.02-2.11,1.29-3.49,3.11-3.47,1.82.02,3.04,1.4,3.05,3.53.02,2.69.08,5.37-.03,8.06-.04,1.1-.48,2.19-.73,3.29Z"/>
      <path id="path28" class="cls-30" d="m171.28,98.38c0,6.89,0,13.64,0,20.4,0,1.62-.42,3.07-2.03,3.83-2.46,1.16-4.88-.41-5.12-3.3-.02-.21,0-.43,0-.64,0-21.38,0-42.77,0-64.15,0-1.42.3-2.75,1.55-3.6,2.53-1.72,5.33-.02,5.6,2.95.03.34,0,.68,0,1.03,0,14.46,0,28.91,0,43.5m-.49,20.57c0-21.35,0-42.69-.01-64.04,0-.8-.08-1.64-.32-2.39-.37-1.15-1.63-1.9-2.81-1.87-1.27.03-2.46.88-2.78,2.1-.18.69-.24,1.43-.24,2.15-.02,8.94,0,17.88-.01,26.82,0,11.89-.01,23.78-.01,35.68,0,.51,0,1.03.01,1.54.06,2.11,1.17,3.48,2.91,3.58,1.79.11,3.01-1.14,3.27-3.58h0Z"/>
      <path id="path31" class="cls-22" d="m174.13,40.73c.38-2.34,1.91-3.78,3.8-3.67,1.92.1,3.34,1.86,3.34,4.14,0,18.76,0,37.53,0,56.29,0,2.62-1.39,4.5-3.42,4.43-1.91-.07-3.74-1.16-3.73-4.4.02-18.89,0-37.78,0-56.79m.48,54.69c0,.64,0,1.28,0,1.92,0,2.61,1.08,4.04,3.04,4.08,2.01.04,3.13-1.44,3.14-4.12,0-18.55,0-37.1,0-55.65,0-.59-.03-1.2-.16-1.78-.32-1.38-1.48-2.28-2.87-2.3-1.44-.02-2.66.9-2.97,2.34-.14.66-.16,1.36-.16,2.04,0,17.74,0,35.47,0,53.47h0Z"/>
      <path id="path32" class="cls-14" d="m34.81,103.44c-.33-.53-.85-1.04-.78-1.46.52-3.24-.18-6.25-1.52-9.16-.33-.71-.92-1.29-1.35-1.96-.78-1.21.11-1.92.88-2.58.79-.68,1.75-.82,2.5.02,3.45,3.89,4.95,8.33,3.34,13.46-.63,1.99-1.27,2.67-3.07,1.67h0Z"/>
      <path id="path33" class="cls-45" d="m59.56,96.98c-.78.86-1.65,1.09-2.62.65-.96-.44-1.32-1.28-1.32-2.3,0-3.42-.02-6.84.01-10.26.01-1.49.94-2.48,2.21-2.48,1.27,0,2.19.98,2.2,2.48.03,3.42.03,6.84,0,10.26,0,.53-.27,1.05-.48,1.66Z"/>
      <path id="path34" class="cls-44" d="m75.02,90.78c-.64,1.98-1.52,2.69-2.77,2.12-.57-.26-1.28-1.02-1.3-1.57-.16-4.39-.23-8.78-.17-13.17,0-.5.89-1.35,1.44-1.41.74-.08,1.69.28,2.28.78.41.35.5,1.23.51,1.88.04,3.75.02,7.51.01,11.38Z"/>
      <path id="path35" class="cls-39" d="m213.89,46.27c0,13.85,0,27.58,0,41.31,0,1.62-.39,3.09-1.93,3.9-2.44,1.3-4.99-.31-5.23-3.24-.02-.21,0-.43,0-.64,0-17.1,0-34.21,0-51.31,0-1.42.3-2.75,1.55-3.6,2.61-1.78,5.56.1,5.6,3.2.05,3.42.01,6.84.01,10.39m-.49,38.63c0-16.12,0-32.25-.01-48.37,0-.68-.05-1.38-.24-2.02-.37-1.25-1.54-2.06-2.8-2.08-1.29-.02-2.51.83-2.89,2.13-.17.56-.22,1.18-.22,1.77-.01,17.11,0,34.22,0,51.32,0,.21,0,.43,0,.64.13,1.87,1.37,3.16,3.04,3.18,1.73.02,3.02-1.3,3.11-3.24.05-1.02.01-2.05.01-3.33h0Z"/>
      <path id="path37" class="cls-4" d="m95.75,55.74c.04,16.17.05,32.24.05,48.31,0,2.15-1.55,3.78-3.51,3.8-2.02.02-3.61-1.62-3.61-3.83-.01-15.81,0-31.63,0-47.44,0-1.93,1.23-3.37,3.16-3.78,1.46-.31,2.96.78,3.92,2.94m-6.6,33.53c0,4.88-.02,9.75,0,14.63.01,2.31,1.43,3.73,3.43,3.53,1.73-.18,2.73-1.57,2.73-3.86,0-15.44,0-30.88,0-46.32,0-.63-.05-1.29-.22-1.9-.46-1.61-2.17-2.47-3.77-1.95-1.53.5-2.17,1.6-2.17,3.79,0,10.61,0,21.21,0,32.07h0Z"/>
      <path id="path38" class="cls-41" d="m39.68,97.35c0-1.79-.02-3.46,0-5.13.02-1.48.83-2.45,2.03-2.49,1.2-.04,2.09.88,2.11,2.38.05,3.2.05,6.4,0,9.61-.02,1.55-.83,2.35-2.15,2.31-1.24-.03-1.96-.85-1.99-2.33-.03-1.41,0-2.82,0-4.36h0Z"/>
      <path id="path39" class="cls-4" d="m109.45,89.14c0-12.4,0-24.68,0-36.96,0-1.88,1.29-3.53,2.96-3.81,1.63-.28,3.3.7,3.96,2.38.16.42.22.91.22,1.37.01,14.84.01,29.69,0,44.53,0,2.1-1.57,3.75-3.54,3.77-2.03.01-3.6-1.65-3.61-3.83,0-2.44,0-4.88,0-7.44m.48-25.79c0,10.78,0,21.55,0,32.33,0,.64.01,1.29.16,1.91.41,1.76,2.14,2.7,3.87,2.15,1.44-.45,2.15-1.59,2.15-3.54,0-14.54,0-29.08-.01-43.61,0-.63-.09-1.3-.31-1.88-.46-1.19-1.45-1.8-2.7-1.83-1.31-.03-2.34.58-2.83,1.82-.23.58-.31,1.25-.31,1.87-.03,3.51-.01,7.01-.01,10.78Z"/>
      <path id="path40" class="cls-38" d="m258.29,51.66c0,12.05,0,23.98,0,35.9,0,1.6-.39,3.1-1.93,3.92-2.43,1.29-5-.34-5.23-3.27-.02-.21,0-.43,0-.64,0-14.96,0-29.92,0-44.88,0-1.41.28-2.78,1.55-3.59,2.63-1.7,5.52-.02,5.6,3.2.07,3.08.02,6.15.02,9.36m-2.1,39.44c1.29-.84,1.62-2.09,1.62-3.55-.01-14.91,0-29.83-.02-44.74,0-.63-.06-1.29-.24-1.89-.38-1.24-1.54-2.06-2.8-2.08-1.29-.02-2.5.83-2.89,2.13-.17.56-.22,1.17-.23,1.76-.02,4.87-.01,9.74-.01,14.61,0,10.13,0,20.25,0,30.38,0,2.89,1.77,4.26,4.56,3.36h0Z"/>
      <path id="path43" class="cls-38" d="m268.46,106.34c.15-1.22.6-2.45.61-3.69.05-13.56.03-27.12.03-40.67,0-2.66-1.15-4.17-3.13-4.14-1.94.03-3.06,1.51-3.06,4.08,0,13.73-.02,27.46.03,41.19,0,1.02.44,2.04.69,3.16-1.14-.48-1.19-1.57-1.19-2.63-.02-4.4-.01-8.81,0-13.21,0-9.66,0-19.33,0-28.99,0-1.55.55-2.78,1.98-3.59,2.52-1.43,5.08.78,5.18,3.16.03.85,0,1.71,0,2.57,0,13.3.02,26.6-.04,39.9,0,.96-.65,1.92-1.08,2.89h0Z"/>
      <path id="path45" class="cls-39" d="m213.89,100.96c0,9.91,0,19.7,0,29.49,0,1.41-.3,2.74-1.56,3.59-2.61,1.77-5.54-.12-5.59-3.22-.04-2.31,0-4.62,0-6.93,0-7.99,0-15.99,0-23.98,0-1.42.31-2.74,1.56-3.59,2.53-1.71,5.33,0,5.59,2.97.04.51,0,1.03,0,1.66m-.49,3.19c0-1.5.01-2.99,0-4.49-.03-2.12-1.26-3.55-3.05-3.58-1.79-.02-3.07,1.42-3.12,3.51,0,.26,0,.51,0,.77v29.64c0,2.78,1.12,4.31,3.12,4.28,1.97-.03,3.05-1.52,3.05-4.22,0-8.55,0-17.11,0-25.92h0Z"/>
      <path id="path46" class="cls-24" d="m127.6,106.06c-.12-.47-.18-.98-.18-1.48,0-23.8,0-47.59,0-71.39,0-.34,0-.68,0-1.03-.03-1.89-.77-3.01-2.28-3.45-1.41-.41-2.56.11-3.72,1.73.11-1.47,1.83-2.63,3.36-2.27,2.12.5,3.11,1.78,3.11,4.06,0,19.7,0,39.4,0,59.1,0,4.44,0,8.89,0,13.33,0,.45-.13.9-.29,1.39h0Z"/>
      <path id="path47" class="cls-4" d="m116.34,105.93c0,8.97,0,17.82,0,26.67,0,3-2.51,4.8-5.07,3.62-1.43-.66-2.06-1.88-2.06-3.41-.01-8.85,0-17.7,0-26.55,0-2.3,1.4-3.98,3.47-3.95,1.65.02,3.34.77,3.66,3.63m-6.66,13.37c0,2.35,0,4.7,0,7.05,0,2.22-.03,4.45.02,6.67.03,1.29.61,2.32,1.83,2.86,1.11.49,2.18.36,3.13-.4.96-.76,1.2-1.81,1.2-2.97,0-4.83,0-9.66,0-14.49,0-3.89,0-7.78,0-11.67,0-1.37-.38-2.54-1.68-3.22-2.13-1.12-4.46.39-4.49,2.96-.05,4.32-.02,8.63-.02,13.21h0Z"/>
      <path id="path48" class="cls-24" d="m84.9,102.22c.16-1.14.63-2.28.64-3.43.06-8.72.03-17.45.03-26.17,0-.17,0-.34,0-.51,0-2.55-1.16-4.03-3.13-4.01-1.92.02-3.05,1.47-3.06,3.94,0,2.61,0,5.22,0,7.83,0,6.42-.03,12.83.03,19.25,0,.98.46,1.95.72,3.02-1.25-.47-1.22-1.63-1.22-2.71-.02-7.99-.01-15.98-.01-23.98,0-1.37-.03-2.74,0-4.1.06-2.53,1.8-3.63,3.61-3.7,1.95-.08,3.52,1.59,3.53,3.65.02,9.49.04,18.98-.04,28.46,0,.82-.66,1.64-1.11,2.47Z"/>
      <path id="path49" class="cls-44" d="m73.27,94.97c.52.55,1.05,1.11,1.58,1.87-.09,2.45-.19,4.69-.29,6.94-1.45,1.4-2.57,1.46-3.51.14-.18-.25-.3-.59-.3-.9-.03-1.96-.01-3.91-.03-5.87-.01-1,.37-1.72,1.52-2.12.47-.03.76-.05,1.05-.06Z"/>
      <path id="path51" class="cls-38" d="m257.38,129.94c.16-1.22.63-2.45.64-3.68.06-8.59.03-17.18.03-25.77,0-.38,0-.77,0-1.15-.05-2.09-1.34-3.54-3.12-3.51-1.75.03-3.04,1.43-3.04,3.45-.02,9.4-.02,18.81.02,28.21,0,.76.46,1.52.72,2.37-1.38-.52-1.22-1.84-1.23-2.97-.04-7.99-.02-15.99-.02-23.98,0-1.24-.05-2.48,0-3.72.15-3.22,3.16-4.73,5.58-3.14,1.15.76,1.55,1.96,1.55,3.2.04,9.32.05,18.64-.03,27.96,0,.91-.67,1.81-1.12,2.72h0Z"/>
      <path id="path52" class="cls-42" d="m309.9,34.16c-.11.25-.19.47-.35.57-5.34,3.36-9.89,7.59-13.88,12.56-1.01-.03-.96-.72-.92-1.37.09-1.41,1.33-1.01,2.31-1.36,0-.59-.22-1.34.05-1.81.57-1.02.12-2.64,2.2-2.86,1.49-.16,3.05-1.15,4.24-2.17.88-.76,1.21-2.15,1.66-3.02,1.47-.39,2.89-.78,4.31-1.13.08-.02.25.32.38.59Z"/>
      <path id="path55" class="cls-22" d="m179.41,129.9c-2.71,1.17-5.21-.32-5.25-3.21-.09-6.36-.06-12.73-.01-19.1.01-1.95,1.76-3.54,3.67-3.55,1.65,0,3.43,1.7,3.44,3.51.04,6.37.04,12.73,0,19.1,0,1.32-.5,2.51-1.85,3.25m1.39-3.75c0-6.07.01-12.14-.01-18.2,0-2.02-1.31-3.4-3.08-3.4-1.68,0-3.05,1.3-3.06,3.15-.04,6.37-.04,12.73,0,19.1,0,1.4.7,2.45,2.08,2.94,2.14.76,3.92-.71,4.08-3.58h0Z"/>
      <path id="path58" class="cls-35" d="m233.98,154.62c-1.21,1.21-2.52,1.54-4.03.9-1.49-.63-2.1-1.97-2.14-3.39-.1-4.7-.13-9.4,0-14.1.08-2.97,2.97-4.47,5.49-3,1.2.7,1.6,1.92,1.61,3.16.07,4.57.07,9.14-.01,13.72-.02.88-.56,1.76-.92,2.71m.46-9.15c0-2.39.02-4.79,0-7.18-.03-2.02-1.29-3.43-3.04-3.46-1.74-.03-3.1,1.39-3.11,3.38-.03,4.57-.04,9.14.02,13.71,0,.73.27,1.53.65,2.16.67,1.13,2.01,1.52,3.25,1.15,1.31-.39,2.19-1.54,2.23-3.11.05-2.14.02-4.27.02-6.66h0Z"/>
      <path id="path65" class="cls-24" d="m121.35,154.79c.7.48,1.28,1.28,2.05,1.58,1.82.7,3.66-.53,3.96-2.49.08-.5.05-1.02.05-1.54.01-9.1.02-18.21.07-27.43.17.25.4.62.4,1,.02,9.06.03,18.12,0,27.18,0,3.15-2.83,4.89-5.42,3.35-.51-.3-.78-1.02-1.12-1.64Z"/>
      <path id="path67" class="cls-25" d="m190.9,24.97c.16-1.09.6-2.18.64-3.29.11-2.68.05-5.37.03-8.06-.02-2.13-1.23-3.51-3.05-3.53-1.82-.02-3.09,1.36-3.11,3.47-.03,2.94-.06,5.88.03,8.82.02.81.46,1.6.72,2.49-1.12-.28-1.17-1.33-1.19-2.2-.08-3.16-.07-6.32-.02-9.49.03-2.04,1.68-3.63,3.59-3.6,1.88.03,3.47,1.57,3.5,3.55.06,3.25.08,6.5-.03,9.74-.02.7-.66,1.38-1.1,2.08h0Z"/>
      <path id="path70" class="cls-43" d="m284.62,89.4c.45,1.38.8,2.77,1.05,4.27-1.25,1.02-.02,1.04.38,1.38.5,1.39,1,2.78,1.49,4.27-.93.19-1.56.02-1.6-1.15-.01-.37-.57-.94-.96-1.02-1.27-.28-1.78-1.16-.96-2.21.51-.65.41-1.09.06-1.7-.73-1.25-.48-3.24.55-3.83Z"/>
      <path id="path74" class="cls-8" d="m372.3,38.8c-2.33-1.51-4.6-3.1-6.92-4.75.18-.29.48-.75.63-.7.92.27,1.78.89,2.7.96,1.7.14,2.11,1.13,2.06,2.44.6.17,1.13.28,1.61.48.38.16.72.42,1.08.64-.37.29-.74.57-1.17.93Z"/>
      <path id="path76" class="cls-8" d="m350.43,162.64c2.41.45,4.82,1,7.22,1.55.29.07.58.11.96.22-.14.88-1.61,1.51-2.53.84-1.39-1.01-2.84-.56-4.27-.63-1.67-.09-1.85-.26-1.37-1.98h0Z"/>
      <path id="path77" class="cls-43" d="m375.37,168.69c.45-.04.9.03,1.44.22.18.27.25.42.26.61.38.97.58,1.05,1.76.61-.38-.27-.65-.47-.93-.73,0-.06,0-.19.09-.19.25-.08.42-.16.59-.24-.14-.18-.28-.36-.42-.53,0-.38.13-.85-.03-1.14-.64-1.15-.5-1.58.84-2.06.97,1.58-.59,3.85,1.52,5.18-1.86,1.66-3.7.32-5.35.25.08-.68.15-1.28.24-1.98Z"/>
      <path id="path78" class="cls-6" d="m336.32,159.15c2.77.57,5.54,1.23,8.4,2.04.35.19.6.24.86.3.19-.01.38-.03.66,0-.15,1.41-1.05.7-1.75.62-1.74-.19-3.47-.38-5.5-.6-.28-.66-.94-1.53-2.29-1.58-.14,0-.26-.44-.39-.77h0Z"/>
      <path id="path79" class="cls-8" d="m361.98,32.19c-1.91-.79-3.83-1.59-5.81-2.43-.21-.39-.34-.72-.52-1.16.23-.06.5-.22.66-.15,1.32.59,2.59,1.3,3.94,1.8,1.12.41,2.32.61,3.49.86,1.09.24,1.47,1.08.91,2.21-.63-1.48-1.27-1.74-2.67-1.13h0Z"/>
      <path id="path83" class="cls-8" d="m294.35,48.82c-.94,1.72-1.98,3.43-3.09,5.18-.08-.55-.1-1.15-.07-1.74.04-.66.06-1.35.24-1.98.18-.64.4-1.51.88-1.76.48-.25,1.29.16,2.04.3Z"/>
      <path id="path84" class="cls-6" d="m327.33,157.01c2.28.43,4.54.95,6.89,1.51-.4.31-.9.84-1.37.81-1.56-.11-3.11-.42-4.67-.64-1.24-.18-1.43-.52-.85-1.68h0Z"/>
      <path id="path85" class="cls-8" d="m395.44,126.36c-.71-1.82-1.48-3.63.22-5.39,1.1.2.85,1.12.96,1.79.16.99.18,2,.21,3.01.03,1.14-.69.77-1.39.59h0Z"/>
      <path id="path87" class="cls-8" d="m383.04,50.64c-1.2-1.43-2.37-2.95-3.56-4.54.28-.17.6-.29.93-.36,1.41-.3,1.85.05,1.86,1.48,0,.38,0,.75,0,1.09,1.86.63,1.99,1.04.77,2.32h0Z"/>
      <path id="path90" class="cls-42" d="m306.43,138.92c-.07,1.41-.23,2.82-.4,4.22-.08.7-.2,1.39-.35,2.16-1.06.11-1.33-.43-1.11-1.32.27-1.1.58-2.2.84-3.3.07-.31.05-.67-.02-.98-.22-.94.19-1.07,1.04-.77h0Z"/>
      <path id="path91" class="cls-23" d="m66.23,104.03c-.72.95-1.84,1.07-3.17.31-.47-.27-.85-.77-1.35-.93-.72-.23-1.57-.46-2.23-.25-.38.12-.55,1.08-.69,1.69-.09.39.03.84.04,1.38-1.33-.42-.99-1.39-.63-2.33.44-1.15,1.49-1.87,2.46-1.6.68.19,1.35.52,1.94.92,1.09.75,2.18,1.32,3.64.81Z"/>
      <path id="path93" class="cls-8" d="m349.94,27.92c-1.49-.18-2.97-.45-4.54-.77.12-.41.32-1.07.55-1.08,1.14-.05,2.29,0,3.42.15,1.06.14,1.19.78.57,1.7Z"/>
      <path id="path97" class="cls-6" d="m364.28,148.14c.81-1.03,1.73-2.04,2.73-3.06.25.78.42,1.56.59,2.34-.17-.04-.34-.08-.51-.12-.62.56-1.24,1.11-1.85,1.67-.33-.31-.59-.55-.95-.82h0Z"/>
      <path id="path98" class="cls-48" d="m62.35,78.1c.09.68.09,1.37.06,2.14-.11.11-.21.1-.27.15-1.79,1.68-4.06,1.07-6.27,1.29.76-.31,1.72-.99,2.51-.83,2.86.56,3.45-.69,2.57-3.43.44.16.87.41,1.39.67Z"/>
      <path id="path99" class="cls-42" d="m290.36,55.21c-.28.79-.6,1.5-.96,2.28-1.5-.04-1.88-.52-1.36-1.86.31-.8.89-1.49,1.45-2.42.38.87.61,1.39.87,1.99Z"/>
      <path id="path100" class="cls-42" d="m387.17,58.05c-.56-.89-1.06-1.85-1.58-2.91.12-.4.26-.7.39-1,1.69-.22,2.06,1.08,2.27,2.22.09.46-.66,1.07-1.08,1.69Z"/>
      <path id="path102" class="cls-42" d="m304.72,151.49c.88.15,1.65.3,2.52.5-.21.4-.44.9-.82,1.07-.6.27-1.32.48-1.95.39-.37-.05-.65-.71-.98-1.1.37-.29.75-.58,1.23-.87Z"/>
      <path id="path103" class="cls-43" d="m329.92,27.16c-.77.2-1.53.32-2.4.42-.29-.43-.64-.87-.59-1.26.03-.23.67-.51,1.06-.55.84-.08,1.7-.03,2.89-.03-.5.7-.72,1.01-.96,1.42h0Z"/>
      <path id="path104" class="cls-8" d="m376.61,142.84c.79-.17,1.57-.25,2.47-.31.36.48.62.95.89,1.45-1.37,1.24-2.5.14-3.77-.33.14-.26.27-.49.42-.82h0Z"/>
      <path id="path105" class="cls-6" d="m315.77,31.08c-1.2.77-2.45,1.46-3.77,2.17-.36-.04-.65-.11-.93-.17.33-1.35,3.34-2.66,4.7-2.01h0Z"/>
      <path id="path106" class="cls-8" d="m285.36,69.11c-.09,1.09-.26,2.18-.51,3.34-1.61-1.05-1.45-3.85.04-4.68.12.42.25.88.48,1.34h0Z"/>
      <path id="path110" class="cls-8" d="m318.88,29.97c-.54.34-1.09.58-1.71.83-.52-.73-.94-1.46-1.37-2.2h3.29c-.08.49-.14.88-.2,1.37h0Z"/>
      <path id="path112" class="cls-6" d="m389.14,62.98c-.46-.88-.82-1.77-1.18-2.76.79.05,1.58.19,2.48.35-.03.97-.33,1.8-1.3,2.4Z"/>
      <path id="path114" class="cls-42" d="m378.53,44.79c-.55-.43-.98-.88-1.43-1.41-.04-.49-.06-.9-.1-1.75.85.61,1.62.96,2.06,1.55.2.28-.26,1.04-.53,1.6Z"/>
      <path id="path115" class="cls-8" d="m391.23,141.19c.79-.57,1.59-1.03,2.48-1.52.1.05.13.13.12.21-.03.67-.06,1.33-.09,2-.83-.19-1.66-.39-2.51-.69Z"/>
      <path id="path116" class="cls-6" d="m365.57,166.27c.91.11,1.81.31,2.78.57-.12.23-.33.57-.51.55-1.06-.07-2.2.34-3.34-.39.46-.28.76-.46,1.07-.73Z"/>
      <path id="path117" class="cls-27" d="m31.85,69.28c-.73,1.07-1.52,2.09-2.33,3.12-.22-1.41.6-2.56,1.27-3.81.39.18.69.4,1.07.69Z"/>
      <path id="path119" class="cls-4" d="m74.65,103.76c0-2.22.1-4.47.23-6.83.13-.04.31.04.31.12-.01,2.02-.04,4.04-.09,6.06,0,.21-.23.42-.44.66Z"/>
      <path id="path122" class="cls-42" d="m375.49,41.65c-.44-.29-.78-.57-1.15-.94.2-.3.47-.74.66-.71.54.09,1.29.23,1.5.6.42.76-.07,1.14-1.01,1.05Z"/>
      <path id="path123" class="cls-8" d="m384.36,52.7c-.36-.36-.6-.72-.88-1.17.26-.52.54-.95.83-1.39,1.06.79,1.1,1.94.05,2.56Z"/>
      <path id="path125" class="cls-23" d="m69.35,106.32c-.11-.21-.15-.45-.16-.7-.03-1.7-.45-2.06-2.25-1.84.54-1.05,1.38-.55,2.06-.15.87.51,1,1.68.35,2.69Z"/>
      <path id="path126" class="cls-43" d="m368.85,160.29c-.2-.31-.33-.55-.48-.83,2.17-.11,2.29,0,1.88,1.82-.48-.33-.91-.62-1.4-.99Z"/>
      <path id="path127" class="cls-6" d="m361.99,165.49c.64,0,1.28.11,1.99.28.03.38,0,.7-.05,1.17-.75-.46-2.07.23-1.94-1.46Z"/>
      <path id="path128" class="cls-43" d="m366.44,157.04c.38-.19.72-.29,1.06-.4.1.62.2,1.25.29,1.87-.22.07-.43.14-.65.21-.25-.53-.5-1.07-.7-1.69Z"/>
      <path id="path129" class="cls-48" d="m51.22,77.28c.69,1.16,1.35,2.43,2.01,3.8-1.39-.79-1.72-2.23-2.01-3.8Z"/>
      <path id="path130" class="cls-8" d="m315.53,154.17c.5,0,.99.11,1.52.3.07.73,0,1.28-.88,1.12-.83-.15-1.01-.6-.64-1.42Z"/>
      <path id="path131" class="cls-38" d="m263.94,106.74c1.3.55,2.62.79,4.04-.08-.77,1.32-2.78,1.41-4.04.08Z"/>
      <path id="path132" class="cls-49" d="m219.03,111.09c1.3.52,2.61.77,4.03-.08-.76,1.33-2.79,1.42-4.03.08Z"/>
      <path id="path134" class="cls-6" d="m362.04,32.26c1.35-.67,1.99-.41,2.53,1.08-.04.1-.08.1-.19.1-.8-.37-1.54-.74-2.34-1.18Z"/>
      <path id="path135" class="cls-35" d="m229.81,128.8c1.3.5,2.61.76,4.03-.08-.75,1.29-2.75,1.38-4.03.08Z"/>
      <path id="path138" class="cls-24" d="m80.44,102.58c1.29.57,2.59.81,4-.08-.91,1.33-2.48,1.4-4,.08Z"/>
      <path id="path139" class="cls-25" d="m186.44,25.32c1.29.59,2.59.83,4.01-.08-.91,1.32-2.49,1.39-4.01.08Z"/>
      <path id="path140" class="cls-38" d="m252.92,130.3c1.29.54,2.59.78,4-.08-.84,1.27-2.55,1.34-4,.08Z"/>
      <path id="path141" class="cls-6" d="m395.05,138.28c.11-.42.26-.74.47-1.11.33.19.75.39.82.66.07.29-.21.65-.34.99-.3-.15-.61-.29-.95-.54h0Z"/>
      <path id="path147" class="cls-48" d="m53.49,81.76c.62,0,1.24.08,1.94.17-.65,1.06-1.21,1.04-1.94-.17Z"/>
      <path id="path148" class="cls-6" d="m397.69,114.59c.25-.33.53-.59.89-.87-.06.67-.19,1.38-.33,2.08-.13-.03-.26-.06-.39-.08-.05-.35-.1-.7-.18-1.13Z"/>
      <path id="path151" class="cls-50" d="m322.22,28.81c-.28.22-.58.33-.96.46-.22-.28-.36-.56-.52-.87.65-.48,1.16-.53,1.48.41Z"/>
      <path id="path152" class="cls-21" d="m159.87,101.72c.17-.79.44-1.6.75-2.5.49.95.18,1.79-.75,2.5Z"/>
      <path id="path153" class="cls-21" d="m154.13,99.15c.36.77.64,1.58.93,2.49-1.11-.44-1.14-1.41-.93-2.49Z"/>
      <path id="path155" class="cls-50" d="m287.19,62.68c.03.23-.03.44-.14.72-1.35.04-.92-.67-.59-1.45.25.27.45.49.73.73Z"/>
      <path id="path157" class="cls-27" d="m31.5,68.09c.45-.41,1-.83,1.63-1.23-.45.42-1,.83-1.63,1.23Z"/>
      <path id="path158" class="cls-21" d="m154.76,55.8c-.1.68-.28,1.4-.51,2.21.11-.66.27-1.42.51-2.21Z"/>
      <path id="path159" class="cls-8" d="m396.61,128.58c-.2-.34-.3-.71-.41-1.08.2-.02.39-.04.59-.06-.03.37-.06.74-.18,1.14Z"/>
      <path id="path160" class="cls-23" d="m135.11,121.91c.42-.09.87-.1,1.43-.1-.39.07-.9.13-1.43.1Z"/>
      <path id="path161" class="cls-23" d="m136.37,23.52c-.42.1-.87.11-1.43.11.39-.08.9-.14,1.43-.11Z"/>
      <path id="path162" class="cls-23" d="m136.63,96.15c-.42.09-.87.1-1.43.1.39-.07.9-.13,1.43-.1Z"/>
      <path id="path163" class="cls-21" d="m160.72,58.08c-.18-.43-.29-.89-.41-1.45.15.41.32.91.41,1.45Z"/>
      <path id="path164" class="cls-21" d="m154.25,129.75c.24.31.42.68.59,1.14-.22-.3-.43-.69-.59-1.14Z"/>
      <path id="path165" class="cls-21" d="m155.41,131.62c.37.11.78.29,1.23.55-.37-.11-.78-.29-1.23-.55Z"/>
      <path id="path166" class="cls-27" d="m8.24,101.51c.11.24.16.54.16.91-.11-.24-.17-.55-.16-.91Z"/>
      <path id="path167" class="cls-38" d="m276.52,47.4c-.26.1-.54.12-.93.11.23-.08.57-.14.93-.11Z"/>
      <path id="path168" class="cls-8" d="m378.11,168.44c.2.18.34.35.48.53-.17.08-.33.16-.59.17-.09-.12-.09-.16-.09-.21,0-.11.02-.22.03-.41,0-.08.12-.08.17-.09h0Z"/>
      <path id="path169" class="cls-4" d="m73.24,94.89c-.26.1-.55.11-.94.1.24-.08.58-.13.94-.1Z"/>
      <path id="path170" class="cls-21" d="m154.14,81.43c.09.18.12.39.11.7-.09-.16-.13-.42-.11-.7Z"/>
      <path id="path171" class="cls-21" d="m154.14,97.6c.09.18.12.39.11.7-.09-.16-.13-.42-.11-.7Z"/>
      <path id="path172" class="cls-48" d="m132.62,98.64c.06.2.04.42-.04.7-.05-.19-.04-.43.04-.7Z"/>
      <path id="path173" class="cls-48" d="m139.28,99.35c-.13-.16-.19-.36-.25-.65.11.15.21.37.25.65Z"/>
      <path id="path174" class="cls-21" d="m160.72,95.04c-.09-.18-.12-.39-.11-.7.09.16.13.42.11.7Z"/>
      <path id="path175" class="cls-21" d="m154.14,65.52c.09.18.12.39.11.7-.09-.16-.13-.42-.11-.7Z"/>
      <path id="path176" class="cls-21" d="m154.14,73.48c.09.18.12.39.11.7-.09-.16-.13-.42-.11-.7Z"/>
      <path id="path177" class="cls-21" d="m154.14,84.77c.09.18.12.39.11.7-.09-.16-.13-.42-.11-.7Z"/>
      <path id="path178" class="cls-21" d="m154.14,94.27c.09.18.12.39.11.7-.09-.16-.13-.42-.11-.7Z"/>
      <path id="path179" class="cls-21" d="m160.72,93.5c-.09-.18-.12-.39-.11-.7.09.16.13.42.11.7Z"/>
      <path id="path180" class="cls-21" d="m154.14,92.73c.09.18.12.39.11.7-.09-.16-.13-.42-.11-.7Z"/>
      <path id="path181" class="cls-21" d="m154.14,91.19c.1.18.12.39.11.7-.09-.16-.13-.42-.11-.7Z"/>
      <path id="path182" class="cls-21" d="m154.14,67.06c.09.18.12.39.11.7-.09-.16-.13-.42-.11-.7Z"/>
      <path id="path183" class="cls-21" d="m160.72,67.84c-.09-.18-.12-.39-.11-.7.09.16.13.42.11.7Z"/>
      <path id="path184" class="cls-21" d="m154.14,87.85c.09.18.12.39.11.7-.09-.16-.13-.42-.11-.7Z"/>
      <path id="path185" class="cls-21" d="m160.72,87.09c-.09-.18-.12-.39-.11-.7.09.16.13.42.11.7Z"/>
      <path id="path186" class="cls-21" d="m154.14,86.31c.09.18.12.39.11.7-.09-.16-.13-.42-.11-.7Z"/>
      <path id="path187" class="cls-21" d="m154.14,68.6c.09.18.12.39.11.7-.09-.16-.13-.42-.11-.7Z"/>
      <path id="path188" class="cls-21" d="m154.14,71.94c.09.18.12.39.11.7-.09-.16-.13-.42-.11-.7Z"/>
      <path id="path189" class="cls-21" d="m160.72,126.1c-.09-.18-.12-.39-.11-.7.09.16.13.42.11.7Z"/>
      <path id="path190" class="cls-21" d="m154.14,123.78c.09.18.12.39.11.7-.09-.16-.13-.42-.11-.7Z"/>
      <path id="path191" class="cls-50" d="m139.02,26.72c-.13-.16-.2-.36-.25-.65.12.14.21.37.25.65Z"/>
      <path id="path192" class="cls-21" d="m154.14,125.32c.09.18.12.39.11.7-.09-.16-.13-.42-.11-.7Z"/>
      <path id="path193" class="cls-21" d="m154.14,120.45c.09.18.12.39.11.7-.09-.16-.13-.42-.11-.7Z"/>
      <path id="path194" class="cls-21" d="m154.14,126.86c.09.18.12.39.11.7-.09-.16-.13-.42-.11-.7Z"/>
      <path id="path195" class="cls-21" d="m154.14,75.02c.09.18.12.39.11.7-.09-.16-.13-.42-.11-.7Z"/>
      <path id="path196" class="cls-21" d="m160.72,119.68c-.09-.18-.12-.39-.11-.7.09.16.13.42.11.7Z"/>
      <path id="path197" class="cls-21" d="m154.14,118.91c.09.18.12.39.11.7-.09-.16-.13-.42-.11-.7Z"/>
      <path id="path198" class="cls-48" d="m139.12,119.42c-.06-.2-.04-.42.04-.7.05.19.04.43-.04.7Z"/>
      <path id="path199" class="cls-48" d="m132.46,118.7c.13.16.2.36.25.65-.11-.15-.21-.37-.25-.65Z"/>
      <path id="path200" class="cls-21" d="m154.14,117.37c.09.18.12.39.11.7-.09-.16-.13-.42-.11-.7Z"/>
      <path id="path201" class="cls-21" d="m154.14,78.35c.09.18.12.39.11.7-.09-.16-.13-.42-.11-.7Z"/>
      <path id="path202" class="cls-21" d="m154.14,60.64c.09.18.12.39.11.7-.09-.16-.13-.42-.11-.7Z"/>
      <path id="path203" class="cls-21" d="m154.14,114.03c.09.18.12.39.11.7-.09-.16-.13-.42-.11-.7Z"/>
      <path id="path204" class="cls-50" d="m132.37,26.01c.07.21.06.43-.02.71-.06-.2-.06-.44.02-.71Z"/>
      <path id="path205" class="cls-21" d="m160.72,113.27c-.09-.18-.12-.39-.11-.7.09.16.13.42.11.7Z"/>
      <path id="path206" class="cls-21" d="m154.14,112.49c.09.18.12.39.11.7-.09-.16-.13-.42-.11-.7Z"/>
      <path id="path207" class="cls-21" d="m154.14,59.1c.09.18.12.39.11.7-.09-.16-.13-.42-.11-.7Z"/>
      <path id="path208" class="cls-21" d="m160.72,61.42c-.09-.18-.12-.39-.11-.7.09.16.13.42.11.7Z"/>
      <path id="path209" class="cls-21" d="m154.14,110.95c.1.18.12.39.11.7-.09-.16-.13-.42-.11-.7Z"/>
      <path id="path210" class="cls-21" d="m160.72,74.25c-.09-.18-.12-.39-.11-.7.09.16.13.42.11.7Z"/>
      <path id="path211" class="cls-21" d="m160.72,80.67c-.09-.18-.12-.39-.11-.7.09.16.13.42.11.7Z"/>
      <path id="path212" class="cls-21" d="m154.14,62.18c.09.18.12.39.11.7-.09-.16-.13-.42-.11-.7Z"/>
      <path id="path213" class="cls-21" d="m154.14,79.89c.09.18.12.39.11.7-.09-.16-.13-.42-.11-.7Z"/>
      <path id="path215" class="cls-21" d="m160.71,75.8c-.08-.11-.11-.24-.1-.46.08.08.12.26.1.46Z"/>
      <path id="path216" class="cls-21" d="m160.71,72.46c-.08-.11-.11-.24-.1-.46.08.08.12.26.1.46Z"/>
      <path id="path217" class="cls-21" d="m160.72,98.13c-.08-.11-.11-.24-.1-.46.08.08.12.26.1.46Z"/>
      <path id="path218" class="cls-21" d="m160.71,70.92c-.08-.11-.11-.24-.1-.46.08.08.12.26.1.46Z"/>
      <path id="path219" class="cls-21" d="m154.15,70.39c.08.11.11.24.1.46-.08-.08-.12-.26-.1-.46Z"/>
      <path id="path220" class="cls-21" d="m160.71,69.38c-.08-.11-.11-.24-.1-.46.08.08.12.26.1.46Z"/>
      <path id="path221" class="cls-21" d="m160.71,66.05c-.08-.11-.11-.24-.1-.46.08.08.12.26.1.46Z"/>
      <path id="path222" class="cls-21" d="m160.71,64.51c-.08-.11-.11-.24-.1-.46.08.08.12.26.1.46Z"/>
      <path id="path223" class="cls-21" d="m154.15,63.97c.08.11.11.24.1.46-.08-.08-.12-.26-.1-.46Z"/>
      <path id="path224" class="cls-21" d="m160.71,62.97c-.08-.11-.11-.24-.1-.46.08.08.12.26.1.46Z"/>
      <path id="path225" class="cls-21" d="m160.72,59.63c-.08-.11-.11-.24-.1-.46.08.08.12.26.1.46Z"/>
      <path id="path226" class="cls-21" d="m156.85,54.47c-.08.11-.24.2-.4.24.1-.13.22-.19.4-.24Z"/>
      <path id="path227" class="cls-21" d="m154.15,122.24c.08.11.11.24.1.46-.08-.08-.12-.26-.1-.46Z"/>
      <path id="path228" class="cls-21" d="m154.16,109.4c.08.11.1.24.09.46-.08-.09-.11-.27-.09-.46Z"/>
      <path id="path229" class="cls-21" d="m160.71,109.93c-.09-.11-.11-.23-.11-.46.08.08.12.26.11.46Z"/>
      <path id="path230" class="cls-21" d="m160.71,111.48c-.08-.11-.11-.24-.1-.46.08.08.12.26.1.46Z"/>
      <path id="path231" class="cls-21" d="m160.71,114.81c-.08-.11-.11-.24-.1-.46.08.08.12.26.1.46Z"/>
      <path id="path232" class="cls-21" d="m154.15,115.82c.08.11.11.24.1.46-.08-.08-.12-.26-.1-.46Z"/>
      <path id="path233" class="cls-21" d="m160.71,116.35c-.08-.11-.11-.24-.1-.46.08.08.12.26.1.46Z"/>
      <path id="path234" class="cls-21" d="m160.71,117.89c-.08-.11-.11-.24-.1-.46.08.08.12.26.1.46Z"/>
      <path id="path235" class="cls-38" d="m274.73,119.03c.14-.05.28-.03.47.05-.12.05-.29.03-.47-.05Z"/>
      <path id="path236" class="cls-38" d="m276.81,119.2c.09-.13.22-.2.42-.26-.08.12-.23.22-.42.26Z"/>
      <path id="path237" class="cls-21" d="m160.71,121.23c-.08-.11-.11-.24-.1-.46.08.08.12.26.1.46Z"/>
      <path id="path238" class="cls-21" d="m160.61,108.85c-.13-.08-.21-.2-.3-.4.11.07.23.21.3.4Z"/>
      <path id="path239" class="cls-21" d="m160.71,122.77c-.08-.11-.11-.24-.1-.46.08.08.12.26.1.46Z"/>
      <path id="path240" class="cls-21" d="m160.71,124.31c-.08-.11-.11-.24-.1-.46.08.08.12.26.1.46Z"/>
      <path id="path241" class="cls-21" d="m160.71,127.65c-.08-.11-.11-.24-.1-.46.08.08.12.26.1.46Z"/>
      <path id="path242" class="cls-21" d="m154.15,128.65c.09.11.11.24.11.46-.08-.08-.12-.26-.11-.46Z"/>
      <path id="path243" class="cls-21" d="m160.7,129.19c-.08-.11-.1-.24-.09-.46.08.09.11.27.09.46Z"/>
      <path id="path244" class="cls-21" d="m160.38,130.21c-.03-.13.01-.28.12-.47.02.12-.01.29-.12.47Z"/>
      <path id="path247" class="cls-21" d="m160.71,77.34c-.08-.11-.11-.24-.1-.46.08.08.12.26.1.46Z"/>
      <path id="path248" class="cls-21" d="m160.71,78.88c-.08-.11-.11-.24-.1-.46.08.08.12.26.1.46Z"/>
      <path id="path249" class="cls-21" d="m160.71,82.22c-.08-.11-.11-.24-.1-.46.08.08.12.26.1.46Z"/>
      <path id="path250" class="cls-21" d="m154.15,83.22c.08.11.11.24.1.46-.08-.08-.12-.26-.1-.46Z"/>
      <path id="path251" class="cls-21" d="m160.71,83.76c-.08-.11-.11-.24-.1-.46.08.08.12.26.1.46Z"/>
      <path id="path252" class="cls-21" d="m160.71,85.3c-.08-.11-.11-.24-.1-.46.08.08.12.26.1.46Z"/>
      <path id="path253" class="cls-50" d="m132.22,86.35c.12.09.19.21.23.41-.11-.08-.2-.22-.23-.41Z"/>
      <path id="path254" class="cls-50" d="m138.86,86.82c-.06-.13-.05-.28.02-.47.06.12.05.29-.02.47Z"/>
      <path id="path255" class="cls-21" d="m154.15,76.81c.08.11.11.24.1.46-.08-.08-.12-.26-.1-.46Z"/>
      <path id="path256" class="cls-21" d="m160.71,88.63c-.08-.11-.11-.24-.1-.46.08.08.12.26.1.46Z"/>
      <path id="path257" class="cls-21" d="m154.15,89.64c.08.11.11.24.1.46-.08-.08-.12-.26-.1-.46Z"/>
      <path id="path258" class="cls-21" d="m160.71,90.17c-.08-.11-.11-.24-.1-.46.08.08.12.26.1.46Z"/>
      <path id="path259" class="cls-21" d="m160.71,91.71c-.08-.11-.11-.24-.1-.46.08.08.12.26.1.46Z"/>
      <path id="path260" class="cls-21" d="m154.15,96.06c.08.11.11.24.1.46-.08-.08-.12-.26-.1-.46Z"/>
      <path id="path261" class="cls-21" d="m160.71,96.59c-.08-.11-.11-.24-.1-.46.08.08.12.26.1.46Z"/>
      <path id="path262" class="cls-21" d="m155.38,102.08c.17.02.35.12.54.3-.17-.02-.35-.12-.54-.3Z"/>
      <path id="path263" class="cls-21" d="m158.96,102.43c.07-.15.23-.28.46-.42-.07.14-.22.29-.46.42Z"/>
      <path id="path264" class="cls-21" d="m154.35,108.4c.07.12.07.27.01.46-.06-.12-.07-.27-.01-.46Z"/>
      <path id="path265" class="cls-42" d="m331.37,96.17c.99.49,1.89.93,2.84,1.39-2.1,2.31-4.46,4.21-7.46,5.11-1.03.31-1.59.91-1.89,1.86-1.05,3.42-2.05,6.86-3.18,10.25-.18.54-.94,1.13-1.51,1.22-.78.12-1.65-.16-2.45-.38-.12-.04-.14-.71-.09-1.07.46-2.82.93-5.63,1.43-8.44.29-1.64.13-1.99-1.58-2.1-3.01-.19-5.98-.62-8.46-2.42-1.59-1.15-3.05-2.55-4.29-4.07-.54-.66-.66-1.98-.44-2.86.29-1.16,0-1.42-1.04-1.57-3.91-.58-6.88-2.58-8.3-6.32-1.32-3.49-1.2-7.52,1.51-10.03,1.27,1.11,2.51,2.21,3.8,3.26.13.11.52-.11,1.02-.23-.35-.46-.53-.89-.84-1.07-2.33-1.34-2.92-3.65-3.41-6-.2-.95-.44-1.97-.29-2.9.52-3.24,2.5-5.62,5.35-6.95,3.11-1.46,6.38-1.53,9.49.38,2.17,1.34,3.31,3.37,4.04,5.7.09.3-.19.8-.43,1.09-.55.65-1.23,1.19-1.78,1.84-.25.3-.33.74-.49,1.11.12.1.25.2.37.3.45-.32.98-.57,1.35-.96,3.22-3.48,7.4-2.89,10.34.4.43.48.49.81.02,1.28-.63.63-1.25,1.29-1.78,2.01-.29.39-.41.92-.61,1.39.13.11.26.22.4.33.47-.33,1.15-.56,1.38-1.02,1.89-3.63,8.05-4.18,11.43-2.04,2.82,1.79,4.61,4.21,4.5,7.75-.01.34.37.7.57,1.05.28-.33.76-.63.8-.98.11-1.04.04-2.11.04-3.37,2.49-.56,5.11-.5,7.63.93,3.5,2,5.56,4.79,5.61,9.02.03,2.64-1.96,5.1-4.58,5.7-1.96.45-4.07,1.01-5.88-.47-.89-.73-1.6-1.69-2.48-2.65.91-.4,1.64-.64,2.28-1.04.33-.21.5-.69.73-1.04-.47-.07-.95-.25-1.4-.18-.57.1-1.11.38-1.65.62-3.92,1.74-10.04-1.72-10.27-6.97-.04-1.02-.61-1.08-1.26-.62-2.78,1.95-5.99,2.07-9.18,2.13-1.47.03-2.95-.39-4.41-.64-.5-.08-1-.34-1.49-.34-.44,0-.88.25-1.32.39.35.31.64.79,1.05.91,1.1.33,2.24.52,3.37.75,4.05.85,7.93.18,11.86-1.37.31.72.6,1.5.97,2.24,1.68,3.36,4.48,5.05,8.15,5.29.92.06,1.45.35,1.99,1.07.87,1.17,1.9,2.22,3.08,3.57-1.24.2-2.46.55-3.68.57-6.47.1-11.45-2.44-14.45-8.38-.1-.19-.16-.44-.32-.54-.28-.18-.62-.27-.94-.4-.08.3-.26.61-.23.89.05.37.25.72.41,1.07.14.31.3.6.54,1.06-.45.1-.79.21-1.14.25-4.65.42-9.21.03-13.53-1.81-1.85-.79-3.59-1.91-5.26-3.06-.5-.35-.65-1.3-.81-2-.16-.7-.06-1.46-.22-2.16-.08-.35-.5-.63-.76-.94-.21.38-.59.76-.58,1.14.01.92.2,1.84.34,2.97-1.07-.43-1.94-.84-2.85-1.11-.3-.09-.71.14-1.07.22.15.31.21.77.46.9,3.04,1.67,6.01,3.53,9.2,4.88,4.88,2.06,10,3.11,15.35,2.31,1.27-.19,2.25.03,3.15,1.11.88,1.06,2.1,1.84,3.25,2.79m5.23-15.03c-.3-1.67-1.22-2.82-2.74-3.6-2-1.03-3.82-.6-5.73.28-4.31,1.97-8.72,2.59-13.1.29-2.56-1.34-4.65-3.32-6.14-5.82-.24-.41-.19-1.16,0-1.64.45-1.1,1.11-2.11,1.61-3.19.11-.25-.11-.66-.17-.99-.34.07-.79.04-1.01.24-.33.31-.56.76-.72,1.19-.59,1.6-1.39,2.67-3.34,1.83-.24-.1-.7.31-1.05.49.26.3.47.7.8.89.64.37,1.52.47,1.98.97,1.27,1.4,2.26,3.07,3.57,4.43,2.29,2.36,4.98,4.13,8.37,4.46,3.93.39,7.61-.53,11.14-2.26.63-.31,1.57-.27,2.28-.08,2.18.57,3.09,2.17,2.95,4.33-.17,2.6,3.55,5.05,6.08,3.33,2.02-1.36,4.84-.67,6.67,1.37-.52.99-1.07,1.95-1.51,2.95-.12.27.09.7.15,1.05.34-.19.78-.3,1-.58.65-.82,1.2-1.71,1.79-2.56q2.16,1.28,3.21.66c-.41-.41-.73-.83-1.15-1.14-1-.73-2.06-1.37-3.05-2.1-2.52-1.85-5.08-2.64-8.04-.88-1.27.75-2.72.22-3.34-1.13-.35-.77-.34-1.71-.51-2.8m-18.64,16.12c-1.26-.18-2.54-.27-3.77-.58-1.1-.28-2.13-.87-3.23-1.18-.42-.12-.96.15-1.44.24.31.34.56.82.95,1.01,2.35,1.16,4.78,1.99,7.47,1.85,1.3-.07,2.4.32,2.67,1.89.08.45.54.83.83,1.24.17-.05.34-.11.5-.16-.03-.57.12-1.23-.11-1.7-.61-1.23-.21-2.07.69-2.93.31-.3.33-.91.48-1.38-.48.11-1.11.07-1.4.37-.96.98-2.01,1.56-3.66,1.33h0Z"/>
      <path id="path266" class="cls-43" d="m347.43,63.24c.17,4.27-.41,8.27-2.05,12.12-.89,2.07-1.55,2.51-3.96,2.07.33-2.76.67-5.53,1.01-8.38.76.45.56,2.05,2.19,1.44-.26-.64-.41-1.34-.78-1.89-1.07-1.59-1.47-3.34-1.44-5.21.11-6.06-2.79-10.63-7.11-14.51-.22-.2-.43-.4-.65-.59,1.86-1.59,4.14-1.99,6.38-2.27,2.23-.28,3.97,1,5.57,2.37,1.44,1.23,2.9,2.49,4.86,2.63,1.59.11,3.29.19,4.77-.26,2.98-.91,5.27-.2,7.17,2.13.47.58.9,1.2.92,1.7-.94,1.14-1.96,2.24-2.79,3.46-.29.42-.14,1.14-.19,1.73.46-.41,1.07-.74,1.33-1.26.71-1.37,1.69-2.27,3.24-2.58.45,1.2.83,2.32,1.3,3.4.11.26.54.39.82.57.13-.31.44-.67.36-.92-.35-1.13-.61-2.37-1.27-3.3-1.32-1.87-2.72-3.74-4.4-5.27-1.64-1.51-3.89-1.96-6.01-1.16-3.79,1.43-6.9.52-9.63-2.28-1.95-2-4.34-2.56-7.03-2.24-1.92.23-3.77.63-5.36,1.83-.91.69-1.85.45-2.77.04-1.73-.77-3.45-1.58-5.29-2.43,1.42-1.33,2.93-2.31,4.7-2.76,4.81-1.2,9.67-1.58,14.58-.57,2.22.45,4.35,1.12,6.23,2.45.14.1.25.27.4.31.49.15.99.25,1.48.37-.05-.5-.11-1-.18-1.69,1.77-.57,3.67-.44,5.6-.04,3.54.74,5.27,3.31,6.64,6.32.18.39.64.64.97.96.21-.38.43-.77.67-1.2,3.79.73,6.91,3.1,7.42,7.33.13,1.06.16,2.12.2,3.19.09,2.42-.83,4.35-2.67,5.94-.61.53-1.76.92-1.25,2.34,2.16-.72,3.27-2.49,4.76-4.5.63,1.82,1.39,3.3,1.64,4.87.85,5.26-1.36,9.72-6.85,11.18-4.07,1.08-7.64.18-10.59-2.91-.32-.34-.76-.57-1.37-1.01-.17,1.95,1.41,2.48,2.08,3.89-1,.46-2,1.06-3.08,1.39-1.37.42-2.79.67-4.21.89-.41.06-.92-.14-1.31-.36-1.86-1.09-1.91-1.26-1.25-3.27.59-1.77,1.06-3.6,1.84-5.29.44-.96,1.31-1.77,2.14-2.48,1.45-1.25,1.85-1.69,1.85-2.75-1.89-.04-2.43,2-3.85,2.51-1.02-1.14-.74-3.12-2.82-4.07.13.93.12,1.54.31,2.1.3.88.75,1.71,1.07,2.59.13.34.23.78.12,1.1-.84,2.45-1.73,4.88-2.64,7.41-1.12-.36-2.12-.68-3.09-1,.69-2.13,1.57-4.16,2-6.29.98-4.9,1.17-9.81-.55-14.64-.25-.71,0-1.64.13-2.45.09-.54.41-1.03.54-1.56.04-.18-.13-.56-.29-.61-.23-.08-.54.03-.81.11-.09.03-.12.22-.19.33q-1.39,2.17-3.95,1.46c-.25-.07-.51-.2-.74-.17-.29.05-.55.24-.83.37.16.31.25.8.49.89.79.3,1.63.5,2.46.66,1.08.2,1.81.77,2.01,1.85.36,1.92.66,3.86.98,5.91m8.47,9.69c-.33.46-.66.92-.99,1.39.58,0,1.31.22,1.73-.04.9-.58,1.69-1.37,2.44-2.16.5-.53.85-1.21,1.27-1.84.8.75,1.41,1.47,2.16,2.01.75.54,1.58,1.04,2.45,1.32,1.57.5,3.18.58,4.72-.18.22-.11.51-.52.46-.63-.13-.26-.42-.51-.7-.6-.25-.08-.58.04-.87.11-3.2.79-7.09-1.67-7.8-4.94-.17-.79-.33-1.59-.59-2.35-.82-2.34-2.45-3.86-4.87-4.42-.41-.1-.94.31-1.41.48.33.32.61.81.99.92,2.54.73,3.99,2.34,4.23,5.12.19,2.23-.68,4.4-3.21,5.83h0Z"/>
      <path id="path267" class="cls-8" d="m335.7,51.01c1.78,2.13,3.65,4.16,4.32,6.81.59,2.33.84,4.75,1.08,7.15.06.63-.42,1.35-.76,1.97-.3.55-.84.98-1.13,1.54-.24.46-.26,1.04-.38,1.57.49-.24.99-.46,1.45-.75.2-.12.31-.39.76-.54-.28,2.51-.57,5.03-.88,7.78-.71-.58-1.27-.94-1.73-1.41-2.98-3.07-6.6-3.51-10.58-2.76-.56.11-1.41-.08-1.78-.47-2.33-2.39-4.91-3.9-8.42-3.23-.28.05-.88-.67-1.06-1.14-1.07-2.85-2.88-5.06-5.69-6.21-2.52-1.03-5.2-1.19-7.88-.45-.19.05-.39.06-.61.1.47-2.89,1.04-5.64,2.99-7.88,4.87-5.59,10.65-8.95,18.42-7.93,4.63.61,8.36,2.86,11.87,5.84m-15.94,7.39c-.13.8-.39,1.6-.34,2.39.04.58.5,1.62.73,1.61.98-.05.75-.97.71-1.6-.12-1.79.76-3.02,2.14-3.97,2.29-1.57,5.74.05,6.17,2.78.26,1.65-.51,2.9-1.21,4.2-.79,1.49-.72,2.99-.14,4.45.81,2.05,2.84,3.07,5.35,2.87,1.89-.15,3.54-1.62,4.1-3.68.9-3.3.21-6.4-1.15-9.45-3.51-7.87-13.72-12.32-22.34-7.46-2.51,1.41-4.32,4.15-7.62,4.11-.14,0-.45.5-.39.66.09.25.41.55.66.59.45.06.94-.02,1.39-.14,1.06-.29,1.65-.04,1.93,1.14.21.91.76,1.74,1.15,2.61.17-.03.34-.07.51-.1.11-.41.36-.84.31-1.23-.07-.58-.27-1.17-.55-1.69-.68-1.27-.35-2.22.83-2.92,1.38-.82,2.72-1.74,4.18-2.4,6.44-2.95,13.77-.02,17.3,5.12,2.11,3.06,3.24,6.48,2.5,10.29-.43,2.21-1.99,3.42-3.96,3.13-2.06-.31-3.42-1.82-3.16-3.76.12-.89.67-1.72,1.05-2.56.3-.65.79-1.25.94-1.93.57-2.66-1.09-5.33-3.89-6.43-2.59-1.01-5.41.25-7.2,3.37Z"/>
      <path id="path268" class="cls-37" d="m286.07,94.94c-.41-.24-1.64-.25-.41-1.18.2.35.31.72.41,1.18Z"/>
      <path id="path269" class="cls-37" d="m377.8,168.93c.1.06.11.1.11.22,0,.07,0,.2-.09.26-.29.06-.48.06-.67.06-.07-.14-.15-.29-.24-.51.25-.07.53-.06.9-.04h0Z"/>
      <path id="path270" class="cls-37" d="m345.55,161.39c-.22.03-.48-.02-.74-.17.23-.04.47.02.74.17Z"/>
      <path id="path288" class="cls-17" d="m191.32,45.76c0,29.55,0,58.97,0,88.4,0,.77.03,1.55-.08,2.3-.23,1.59-1.47,2.62-3,2.62-1.54,0-2.76-1.03-3.02-2.61-.08-.5-.08-1.02-.08-1.53,0-32.97,0-65.95,0-98.92,0-.26,0-.51,0-.77.09-2.05,1.31-3.34,3.14-3.31,1.77.03,2.99,1.29,3.02,3.29.05,3.46.02,6.93.02,10.52Z"/>
      <path id="path289" class="cls-19" d="m202.62,84.77c0,13.34,0,26.55,0,39.77,0,.68-.01,1.38-.17,2.03-.32,1.37-1.52,2.24-2.92,2.24-1.4,0-2.59-.88-2.92-2.24-.15-.61-.16-1.27-.16-1.91,0-32.97,0-65.94,0-98.91,0-.64.03-1.29.18-1.9.35-1.37,1.52-2.18,2.97-2.16,1.38.02,2.51.83,2.83,2.16.17.69.18,1.44.18,2.16,0,19.54,0,39.08,0,58.75h0Z"/>
      <path id="path290" class="cls-13" d="m148.23,42.55c1.17.95,1.25,2.17,1.25,3.44,0,18.09,0,36.18,0,54.27,0,11.72,0,23.44-.01,35.16,0,.68-.04,1.38-.24,2.02-.39,1.29-1.62,2.08-2.95,2.04-1.32-.04-2.48-.93-2.81-2.23-.14-.57-.18-1.18-.18-1.78,0-29.85,0-59.7,0-89.56,0-3.35,2.07-4.8,4.93-3.36h0Z"/>
      <path id="path291" class="cls-9" d="m246.25,53.97c0,20.83,0,41.53,0,62.23,0,1.17-.06,2.3-.99,3.19-1.68,1.61-4.4.9-4.99-1.36-.15-.57-.19-1.18-.19-1.77,0-28.23,0-56.45,0-84.68,0-.17,0-.34,0-.51.05-2.1,1.33-3.54,3.12-3.52,1.79.03,3.05,1.46,3.05,3.58.01,7.57,0,15.14,0,22.84h0Z"/>
      <path id="path292" class="cls-32" d="m170.78,119.06c-.26,2.33-1.47,3.57-3.27,3.47-1.74-.11-2.85-1.47-2.91-3.58-.01-.51-.01-1.03-.01-1.54,0-11.89.01-23.78.01-35.68,0-8.94,0-17.88.01-26.82,0-.72.06-1.46.24-2.15.32-1.22,1.51-2.07,2.78-2.1,1.18-.03,2.44.72,2.81,1.87.24.75.32,1.59.32,2.39.02,21.35.01,42.69.01,64.15h0Z"/>
      <path id="path309" class="cls-16" d="m174.62,95.29c0-17.86,0-35.6,0-53.34,0-.68.02-1.38.16-2.04.31-1.44,1.53-2.36,2.97-2.34,1.4.02,2.55.92,2.87,2.3.13.58.16,1.18.16,1.78,0,18.55,0,37.1,0,55.65,0,2.68-1.13,4.15-3.14,4.12-1.97-.04-3.04-1.47-3.04-4.08,0-.64,0-1.28,0-2.05h0Z"/>
      <path id="path310" class="cls-34" d="m213.39,85.03c0,1.15.03,2.18-.01,3.21-.09,1.94-1.38,3.26-3.11,3.24-1.68-.02-2.91-1.31-3.04-3.18-.01-.21,0-.43,0-.64,0-17.11,0-34.22,0-51.32,0-.59.06-1.2.22-1.77.39-1.3,1.6-2.15,2.89-2.13,1.26.02,2.43.83,2.8,2.08.19.64.24,1.34.24,2.02.01,16.12.01,32.25.01,48.5h0Z"/>
      <path id="path317" class="cls-28" d="m89.15,89.14c0-10.73,0-21.34,0-31.95,0-2.2.64-3.29,2.17-3.79,1.6-.52,3.31.33,3.77,1.95.17.61.22,1.26.22,1.9.01,15.44.01,30.88,0,46.32,0,2.29-1,3.69-2.73,3.86-2.01.2-3.42-1.22-3.43-3.53-.02-4.88,0-9.75,0-14.75h0Z"/>
      <path id="path318" class="cls-46" d="m109.93,63.21c0-3.63-.01-7.14.01-10.65,0-.63.08-1.3.31-1.87.5-1.24,1.53-1.85,2.83-1.82,1.25.03,2.24.63,2.7,1.83.22.58.31,1.25.31,1.88.02,14.54.02,29.08.01,43.61,0,1.95-.71,3.09-2.15,3.54-1.73.54-3.46-.39-3.87-2.15-.14-.61-.16-1.27-.16-1.91,0-10.78,0-21.55,0-32.45Z"/>
      <path id="path319" class="cls-41" d="m256.1,91.14c-2.7.85-4.47-.52-4.47-3.4-.01-10.13,0-20.25,0-30.38,0-4.87,0-9.74.01-14.61,0-.59.06-1.2.23-1.76.39-1.3,1.6-2.15,2.89-2.13,1.26.02,2.42.84,2.8,2.08.18.6.24,1.26.24,1.89.01,14.91,0,29.83.02,44.74,0,1.45-.33,2.71-1.71,3.59h0Z"/>
      <path id="path337" class="cls-34" d="m213.39,104.28c0,8.68,0,17.24,0,25.79,0,2.7-1.09,4.19-3.05,4.22-2,.03-3.12-1.5-3.12-4.28,0-9.88,0-19.76,0-29.64,0-.26,0-.51,0-.77.05-2.1,1.32-3.54,3.12-3.51,1.8.02,3.03,1.45,3.05,3.58.02,1.5,0,2.99,0,4.62h0Z"/>
      <path id="path338" class="cls-47" d="m109.68,119.17c0-4.44-.03-8.76.02-13.08.03-2.58,2.36-4.08,4.49-2.96,1.29.68,1.68,1.85,1.68,3.22,0,3.89,0,7.78,0,11.67,0,4.83,0,9.66,0,14.49,0,1.16-.24,2.22-1.2,2.97-.96.76-2.03.89-3.13.4-1.22-.54-1.8-1.57-1.83-2.86-.05-2.22-.02-4.44-.02-6.67,0-2.35,0-4.7,0-7.18h0Z"/>
      <path id="path349" class="cls-16" d="m180.8,126.27c-.16,2.76-1.94,4.22-4.08,3.47-1.38-.49-2.07-1.54-2.08-2.94-.04-6.37-.04-12.73,0-19.1.01-1.85,1.38-3.14,3.06-3.15,1.77,0,3.07,1.37,3.08,3.4.03,6.07.01,12.14.01,18.32h0Z"/>
      <path id="path352" class="cls-5" d="m234.44,145.6c0,2.26.03,4.4-.02,6.54-.04,1.57-.91,2.72-2.23,3.11-1.25.37-2.58-.02-3.25-1.15-.38-.63-.64-1.43-.65-2.16-.06-4.57-.05-9.14-.02-13.71.01-1.99,1.37-3.41,3.11-3.38,1.75.03,3.01,1.44,3.04,3.46.03,2.39,0,4.78,0,7.31h0Z"/>
      <path id="path363" class="cls-8" d="m377.07,169.53c.26-.05.45-.05.74-.05.37.2.64.39,1.02.66-1.18.44-1.38.36-1.76-.61Z"/>
      <path id="path366" class="cls-31" d="m336.6,81.25c.16.97.15,1.91.5,2.68.61,1.35,2.07,1.88,3.34,1.13,2.95-1.76,5.52-.97,8.04.88.99.73,2.05,1.37,3.05,2.1.41.3.74.73,1.15,1.14q-1.05.62-3.21-.66c-.58.85-1.14,1.74-1.79,2.56-.22.28-.66.39-1,.58-.06-.35-.27-.78-.15-1.05.44-1,.99-1.96,1.51-2.95-1.83-2.04-4.65-2.73-6.67-1.37-2.54,1.72-6.25-.72-6.08-3.33.14-2.16-.77-3.76-2.95-4.33-.71-.19-1.65-.23-2.28.08-3.53,1.73-7.21,2.65-11.14,2.26-3.39-.33-6.08-2.11-8.37-4.46-1.32-1.36-2.3-3.02-3.57-4.43-.46-.5-1.34-.6-1.98-.97-.33-.19-.54-.59-.8-.89.36-.17.81-.59,1.05-.49,1.95.84,2.75-.23,3.34-1.83.16-.43.4-.89.72-1.19.22-.21.66-.17,1.01-.24.07.33.29.74.17.99-.49,1.08-1.15,2.09-1.61,3.19-.2.48-.25,1.23,0,1.64,1.49,2.51,3.58,4.48,6.14,5.82,4.38,2.3,8.79,1.68,13.1-.29,1.91-.88,3.73-1.31,5.73-.28,1.53.79,2.45,1.93,2.75,3.72h0Z"/>
      <path id="path367" class="cls-31" d="m318.09,97.26c1.53.23,2.57-.35,3.53-1.33.29-.3.92-.26,1.4-.37-.15.47-.16,1.08-.48,1.38-.9.86-1.31,1.69-.69,2.93.23.47.08,1.13.11,1.7-.17.05-.34.11-.5.16-.29-.41-.75-.79-.83-1.24-.27-1.58-1.38-1.96-2.67-1.89-2.69.14-5.12-.69-7.47-1.85-.39-.19-.64-.67-.95-1.01.48-.09,1.02-.36,1.44-.24,1.1.31,2.12.9,3.23,1.18,1.23.31,2.51.4,3.89.58h0Z"/>
      <path id="path368" class="cls-31" d="m355.98,72.87c2.46-1.38,3.33-3.55,3.14-5.78-.24-2.78-1.69-4.39-4.23-5.12-.39-.11-.67-.6-.99-.92.47-.17,1-.57,1.41-.48,2.41.56,4.05,2.08,4.87,4.42.27.76.42,1.56.59,2.35.72,3.27,4.6,5.73,7.8,4.94.29-.07.62-.19.87-.11.28.09.58.34.7.6.06.11-.24.52-.46.63-1.54.76-3.16.68-4.72.18-.87-.28-1.7-.78-2.45-1.32-.75-.54-1.36-1.25-2.16-2.01-.43.63-.77,1.31-1.27,1.84-.75.79-1.54,1.58-2.44,2.16-.41.27-1.14.04-1.73.04.33-.46.66-.92,1.07-1.44h0Z"/>
      <path id="path369" class="cls-31" d="m319.8,58.31c1.75-3.03,4.57-4.29,7.16-3.28,2.8,1.09,4.46,3.77,3.89,6.43-.15.68-.64,1.28-.94,1.93-.38.84-.94,1.68-1.05,2.56-.26,1.94,1.1,3.45,3.16,3.76,1.97.3,3.53-.91,3.96-3.13.74-3.8-.39-7.22-2.5-10.29-3.53-5.14-10.86-8.07-17.3-5.12-1.45.67-2.8,1.58-4.18,2.4-1.18.7-1.51,1.65-.83,2.92.28.52.48,1.11.55,1.69.05.39-.2.82-.31,1.23-.17.03-.34.07-.51.1-.4-.87-.94-1.7-1.15-2.61-.28-1.18-.87-1.43-1.93-1.14-.45.12-.94.19-1.39.14-.25-.03-.58-.33-.66-.59-.06-.17.25-.66.39-.66,3.31.04,5.12-2.7,7.62-4.11,8.62-4.85,18.83-.4,22.34,7.46,1.36,3.05,2.05,6.14,1.15,9.45-.56,2.06-2.21,3.53-4.1,3.68-2.51.19-4.54-.82-5.35-2.87-.58-1.46-.65-2.96.14-4.45.69-1.3,1.47-2.56,1.21-4.2-.43-2.73-3.88-4.35-6.17-2.78-1.38.94-2.25,2.18-2.14,3.97.04.63.27,1.55-.71,1.6-.23.01-.7-1.03-.73-1.61-.05-.79.21-1.59.38-2.48Z"/>
      <g id="text432" class="cls-2">
        <text class="cls-1" transform="translate(49.11 192.49)"><tspan x="0" y="0">SoundB</tspan><tspan class="cls-3" x="142.14" y="0">r</tspan><tspan x="156.45" y="0">ain Lab</tspan></text>
      </g>
    </g>
  </g>
</svg>