<?xml version="1.0" encoding="utf-8" standalone="no"?>
<!DOCTYPE svg PUBLIC "-//W3C//DTD SVG 1.1//EN"
  "http://www.w3.org/Graphics/SVG/1.1/DTD/svg11.dtd">
<svg xmlns:xlink="http://www.w3.org/1999/xlink" width="567.385578pt" height="612.819062pt" viewBox="0 0 567.385578 612.819062" xmlns="http://www.w3.org/2000/svg" version="1.1">
 <metadata>
  <rdf:RDF xmlns:dc="http://purl.org/dc/elements/1.1/" xmlns:cc="http://creativecommons.org/ns#" xmlns:rdf="http://www.w3.org/1999/02/22-rdf-syntax-ns#">
   <cc:Work>
    <dc:type rdf:resource="http://purl.org/dc/dcmitype/StillImage"/>
    <dc:date>2025-12-15T13:32:19.548999</dc:date>
    <dc:format>image/svg+xml</dc:format>
    <dc:creator>
     <cc:Agent>
      <dc:title>Matplotlib v3.10.6, https://matplotlib.org/</dc:title>
     </cc:Agent>
    </dc:creator>
   </cc:Work>
  </rdf:RDF>
 </metadata>
 <defs>
  <style type="text/css">*{stroke-linejoin: round; stroke-linecap: butt}</style>
 </defs>
 <g id="figure_1">
  <g id="patch_1">
   <path d="M 0 612.819062 
L 567.385578 612.819062 
L 567.385578 0 
L 0 0 
z
" style="fill: #ffffff"/>
  </g>
  <g id="axes_1">
   <g id="patch_2">
    <path d="M 30.103125 214.594132 
L 277.303284 214.594132 
L 277.303284 35.899062 
L 30.103125 35.899062 
z
" style="fill: #ffffff"/>
   </g>
   <g id="matplotlib.axis_1">
    <g id="xtick_1">
     <g id="line2d_1">
      <defs>
       <path id="m6fa3a4ab34" d="M 0 0 
L 0 3.5 
" style="stroke: #000000; stroke-width: 0.8"/>
      </defs>
      <g>
       <use xlink:href="#m6fa3a4ab34" x="41.339496" y="214.594132" style="stroke: #000000; stroke-width: 0.8"/>
      </g>
     </g>
     <g id="text_1">
      <!-- 0.0 -->
      <g transform="translate(33.387933 229.19257) scale(0.1 -0.1)">
       <defs>
        <path id="DejaVuSans-30" d="M 2034 4250 
Q 1547 4250 1301 3770 
Q 1056 3291 1056 2328 
Q 1056 1369 1301 889 
Q 1547 409 2034 409 
Q 2525 409 2770 889 
Q 3016 1369 3016 2328 
Q 3016 3291 2770 3770 
Q 2525 4250 2034 4250 
z
M 2034 4750 
Q 2819 4750 3233 4129 
Q 3647 3509 3647 2328 
Q 3647 1150 3233 529 
Q 2819 -91 2034 -91 
Q 1250 -91 836 529 
Q 422 1150 422 2328 
Q 422 3509 836 4129 
Q 1250 4750 2034 4750 
z
" transform="scale(0.015625)"/>
        <path id="DejaVuSans-2e" d="M 684 794 
L 1344 794 
L 1344 0 
L 684 0 
L 684 794 
z
" transform="scale(0.015625)"/>
       </defs>
       <use xlink:href="#DejaVuSans-30"/>
       <use xlink:href="#DejaVuSans-2e" transform="translate(63.623047 0)"/>
       <use xlink:href="#DejaVuSans-30" transform="translate(95.410156 0)"/>
      </g>
     </g>
    </g>
    <g id="xtick_2">
     <g id="line2d_2">
      <g>
       <use xlink:href="#m6fa3a4ab34" x="86.9984" y="214.594132" style="stroke: #000000; stroke-width: 0.8"/>
      </g>
     </g>
     <g id="text_2">
      <!-- 0.1 -->
      <g transform="translate(79.046837 229.19257) scale(0.1 -0.1)">
       <defs>
        <path id="DejaVuSans-31" d="M 794 531 
L 1825 531 
L 1825 4091 
L 703 3866 
L 703 4441 
L 1819 4666 
L 2450 4666 
L 2450 531 
L 3481 531 
L 3481 0 
L 794 0 
L 794 531 
z
" transform="scale(0.015625)"/>
       </defs>
       <use xlink:href="#DejaVuSans-30"/>
       <use xlink:href="#DejaVuSans-2e" transform="translate(63.623047 0)"/>
       <use xlink:href="#DejaVuSans-31" transform="translate(95.410156 0)"/>
      </g>
     </g>
    </g>
    <g id="xtick_3">
     <g id="line2d_3">
      <g>
       <use xlink:href="#m6fa3a4ab34" x="132.657304" y="214.594132" style="stroke: #000000; stroke-width: 0.8"/>
      </g>
     </g>
     <g id="text_3">
      <!-- 0.2 -->
      <g transform="translate(124.705741 229.19257) scale(0.1 -0.1)">
       <defs>
        <path id="DejaVuSans-32" d="M 1228 531 
L 3431 531 
L 3431 0 
L 469 0 
L 469 531 
Q 828 903 1448 1529 
Q 2069 2156 2228 2338 
Q 2531 2678 2651 2914 
Q 2772 3150 2772 3378 
Q 2772 3750 2511 3984 
Q 2250 4219 1831 4219 
Q 1534 4219 1204 4116 
Q 875 4013 500 3803 
L 500 4441 
Q 881 4594 1212 4672 
Q 1544 4750 1819 4750 
Q 2544 4750 2975 4387 
Q 3406 4025 3406 3419 
Q 3406 3131 3298 2873 
Q 3191 2616 2906 2266 
Q 2828 2175 2409 1742 
Q 1991 1309 1228 531 
z
" transform="scale(0.015625)"/>
       </defs>
       <use xlink:href="#DejaVuSans-30"/>
       <use xlink:href="#DejaVuSans-2e" transform="translate(63.623047 0)"/>
       <use xlink:href="#DejaVuSans-32" transform="translate(95.410156 0)"/>
      </g>
     </g>
    </g>
    <g id="xtick_4">
     <g id="line2d_4">
      <g>
       <use xlink:href="#m6fa3a4ab34" x="178.316208" y="214.594132" style="stroke: #000000; stroke-width: 0.8"/>
      </g>
     </g>
     <g id="text_4">
      <!-- 0.3 -->
      <g transform="translate(170.364645 229.19257) scale(0.1 -0.1)">
       <defs>
        <path id="DejaVuSans-33" d="M 2597 2516 
Q 3050 2419 3304 2112 
Q 3559 1806 3559 1356 
Q 3559 666 3084 287 
Q 2609 -91 1734 -91 
Q 1441 -91 1130 -33 
Q 819 25 488 141 
L 488 750 
Q 750 597 1062 519 
Q 1375 441 1716 441 
Q 2309 441 2620 675 
Q 2931 909 2931 1356 
Q 2931 1769 2642 2001 
Q 2353 2234 1838 2234 
L 1294 2234 
L 1294 2753 
L 1863 2753 
Q 2328 2753 2575 2939 
Q 2822 3125 2822 3475 
Q 2822 3834 2567 4026 
Q 2313 4219 1838 4219 
Q 1578 4219 1281 4162 
Q 984 4106 628 3988 
L 628 4550 
Q 988 4650 1302 4700 
Q 1616 4750 1894 4750 
Q 2613 4750 3031 4423 
Q 3450 4097 3450 3541 
Q 3450 3153 3228 2886 
Q 3006 2619 2597 2516 
z
" transform="scale(0.015625)"/>
       </defs>
       <use xlink:href="#DejaVuSans-30"/>
       <use xlink:href="#DejaVuSans-2e" transform="translate(63.623047 0)"/>
       <use xlink:href="#DejaVuSans-33" transform="translate(95.410156 0)"/>
      </g>
     </g>
    </g>
    <g id="xtick_5">
     <g id="line2d_5">
      <g>
       <use xlink:href="#m6fa3a4ab34" x="223.975111" y="214.594132" style="stroke: #000000; stroke-width: 0.8"/>
      </g>
     </g>
     <g id="text_5">
      <!-- 0.4 -->
      <g transform="translate(216.023549 229.19257) scale(0.1 -0.1)">
       <defs>
        <path id="DejaVuSans-34" d="M 2419 4116 
L 825 1625 
L 2419 1625 
L 2419 4116 
z
M 2253 4666 
L 3047 4666 
L 3047 1625 
L 3713 1625 
L 3713 1100 
L 3047 1100 
L 3047 0 
L 2419 0 
L 2419 1100 
L 313 1100 
L 313 1709 
L 2253 4666 
z
" transform="scale(0.015625)"/>
       </defs>
       <use xlink:href="#DejaVuSans-30"/>
       <use xlink:href="#DejaVuSans-2e" transform="translate(63.623047 0)"/>
       <use xlink:href="#DejaVuSans-34" transform="translate(95.410156 0)"/>
      </g>
     </g>
    </g>
    <g id="xtick_6">
     <g id="line2d_6">
      <g>
       <use xlink:href="#m6fa3a4ab34" x="269.634015" y="214.594132" style="stroke: #000000; stroke-width: 0.8"/>
      </g>
     </g>
     <g id="text_6">
      <!-- 0.5 -->
      <g transform="translate(261.682453 229.19257) scale(0.1 -0.1)">
       <defs>
        <path id="DejaVuSans-35" d="M 691 4666 
L 3169 4666 
L 3169 4134 
L 1269 4134 
L 1269 2991 
Q 1406 3038 1543 3061 
Q 1681 3084 1819 3084 
Q 2600 3084 3056 2656 
Q 3513 2228 3513 1497 
Q 3513 744 3044 326 
Q 2575 -91 1722 -91 
Q 1428 -91 1123 -41 
Q 819 9 494 109 
L 494 744 
Q 775 591 1075 516 
Q 1375 441 1709 441 
Q 2250 441 2565 725 
Q 2881 1009 2881 1497 
Q 2881 1984 2565 2268 
Q 2250 2553 1709 2553 
Q 1456 2553 1204 2497 
Q 953 2441 691 2322 
L 691 4666 
z
" transform="scale(0.015625)"/>
       </defs>
       <use xlink:href="#DejaVuSans-30"/>
       <use xlink:href="#DejaVuSans-2e" transform="translate(63.623047 0)"/>
       <use xlink:href="#DejaVuSans-35" transform="translate(95.410156 0)"/>
      </g>
     </g>
    </g>
    <g id="text_7">
     <!-- Time (s) -->
     <g transform="translate(125.242736 245.91007) scale(0.14 -0.14)">
      <defs>
       <path id="DejaVuSans-54" d="M -19 4666 
L 3928 4666 
L 3928 4134 
L 2272 4134 
L 2272 0 
L 1638 0 
L 1638 4134 
L -19 4134 
L -19 4666 
z
" transform="scale(0.015625)"/>
       <path id="DejaVuSans-69" d="M 603 3500 
L 1178 3500 
L 1178 0 
L 603 0 
L 603 3500 
z
M 603 4863 
L 1178 4863 
L 1178 4134 
L 603 4134 
L 603 4863 
z
" transform="scale(0.015625)"/>
       <path id="DejaVuSans-6d" d="M 3328 2828 
Q 3544 3216 3844 3400 
Q 4144 3584 4550 3584 
Q 5097 3584 5394 3201 
Q 5691 2819 5691 2113 
L 5691 0 
L 5113 0 
L 5113 2094 
Q 5113 2597 4934 2840 
Q 4756 3084 4391 3084 
Q 3944 3084 3684 2787 
Q 3425 2491 3425 1978 
L 3425 0 
L 2847 0 
L 2847 2094 
Q 2847 2600 2669 2842 
Q 2491 3084 2119 3084 
Q 1678 3084 1418 2786 
Q 1159 2488 1159 1978 
L 1159 0 
L 581 0 
L 581 3500 
L 1159 3500 
L 1159 2956 
Q 1356 3278 1631 3431 
Q 1906 3584 2284 3584 
Q 2666 3584 2933 3390 
Q 3200 3197 3328 2828 
z
" transform="scale(0.015625)"/>
       <path id="DejaVuSans-65" d="M 3597 1894 
L 3597 1613 
L 953 1613 
Q 991 1019 1311 708 
Q 1631 397 2203 397 
Q 2534 397 2845 478 
Q 3156 559 3463 722 
L 3463 178 
Q 3153 47 2828 -22 
Q 2503 -91 2169 -91 
Q 1331 -91 842 396 
Q 353 884 353 1716 
Q 353 2575 817 3079 
Q 1281 3584 2069 3584 
Q 2775 3584 3186 3129 
Q 3597 2675 3597 1894 
z
M 3022 2063 
Q 3016 2534 2758 2815 
Q 2500 3097 2075 3097 
Q 1594 3097 1305 2825 
Q 1016 2553 972 2059 
L 3022 2063 
z
" transform="scale(0.015625)"/>
       <path id="DejaVuSans-20" transform="scale(0.015625)"/>
       <path id="DejaVuSans-28" d="M 1984 4856 
Q 1566 4138 1362 3434 
Q 1159 2731 1159 2009 
Q 1159 1288 1364 580 
Q 1569 -128 1984 -844 
L 1484 -844 
Q 1016 -109 783 600 
Q 550 1309 550 2009 
Q 550 2706 781 3412 
Q 1013 4119 1484 4856 
L 1984 4856 
z
" transform="scale(0.015625)"/>
       <path id="DejaVuSans-73" d="M 2834 3397 
L 2834 2853 
Q 2591 2978 2328 3040 
Q 2066 3103 1784 3103 
Q 1356 3103 1142 2972 
Q 928 2841 928 2578 
Q 928 2378 1081 2264 
Q 1234 2150 1697 2047 
L 1894 2003 
Q 2506 1872 2764 1633 
Q 3022 1394 3022 966 
Q 3022 478 2636 193 
Q 2250 -91 1575 -91 
Q 1294 -91 989 -36 
Q 684 19 347 128 
L 347 722 
Q 666 556 975 473 
Q 1284 391 1588 391 
Q 1994 391 2212 530 
Q 2431 669 2431 922 
Q 2431 1156 2273 1281 
Q 2116 1406 1581 1522 
L 1381 1569 
Q 847 1681 609 1914 
Q 372 2147 372 2553 
Q 372 3047 722 3315 
Q 1072 3584 1716 3584 
Q 2034 3584 2315 3537 
Q 2597 3491 2834 3397 
z
" transform="scale(0.015625)"/>
       <path id="DejaVuSans-29" d="M 513 4856 
L 1013 4856 
Q 1481 4119 1714 3412 
Q 1947 2706 1947 2009 
Q 1947 1309 1714 600 
Q 1481 -109 1013 -844 
L 513 -844 
Q 928 -128 1133 580 
Q 1338 1288 1338 2009 
Q 1338 2731 1133 3434 
Q 928 4138 513 4856 
z
" transform="scale(0.015625)"/>
      </defs>
      <use xlink:href="#DejaVuSans-54"/>
      <use xlink:href="#DejaVuSans-69" transform="translate(57.958984 0)"/>
      <use xlink:href="#DejaVuSans-6d" transform="translate(85.742188 0)"/>
      <use xlink:href="#DejaVuSans-65" transform="translate(183.154297 0)"/>
      <use xlink:href="#DejaVuSans-20" transform="translate(244.677734 0)"/>
      <use xlink:href="#DejaVuSans-28" transform="translate(276.464844 0)"/>
      <use xlink:href="#DejaVuSans-73" transform="translate(315.478516 0)"/>
      <use xlink:href="#DejaVuSans-29" transform="translate(367.578125 0)"/>
     </g>
    </g>
   </g>
   <g id="matplotlib.axis_2">
    <g id="ytick_1">
     <g id="line2d_7">
      <defs>
       <path id="md1c85ddc06" d="M 0 0 
L -3.5 0 
" style="stroke: #000000; stroke-width: 0.8"/>
      </defs>
      <g>
       <use xlink:href="#md1c85ddc06" x="30.103125" y="193.528235" style="stroke: #000000; stroke-width: 0.8"/>
      </g>
     </g>
     <g id="text_8">
      <!-- 0.5 -->
      <g transform="translate(7.2 197.327454) scale(0.1 -0.1)">
       <use xlink:href="#DejaVuSans-30"/>
       <use xlink:href="#DejaVuSans-2e" transform="translate(63.623047 0)"/>
       <use xlink:href="#DejaVuSans-35" transform="translate(95.410156 0)"/>
      </g>
     </g>
    </g>
    <g id="ytick_2">
     <g id="line2d_8">
      <g>
       <use xlink:href="#md1c85ddc06" x="30.103125" y="167.689357" style="stroke: #000000; stroke-width: 0.8"/>
      </g>
     </g>
     <g id="text_9">
      <!-- 1.0 -->
      <g transform="translate(7.2 171.488575) scale(0.1 -0.1)">
       <use xlink:href="#DejaVuSans-31"/>
       <use xlink:href="#DejaVuSans-2e" transform="translate(63.623047 0)"/>
       <use xlink:href="#DejaVuSans-30" transform="translate(95.410156 0)"/>
      </g>
     </g>
    </g>
    <g id="ytick_3">
     <g id="line2d_9">
      <g>
       <use xlink:href="#md1c85ddc06" x="30.103125" y="141.850478" style="stroke: #000000; stroke-width: 0.8"/>
      </g>
     </g>
     <g id="text_10">
      <!-- 1.5 -->
      <g transform="translate(7.2 145.649697) scale(0.1 -0.1)">
       <use xlink:href="#DejaVuSans-31"/>
       <use xlink:href="#DejaVuSans-2e" transform="translate(63.623047 0)"/>
       <use xlink:href="#DejaVuSans-35" transform="translate(95.410156 0)"/>
      </g>
     </g>
    </g>
    <g id="ytick_4">
     <g id="line2d_10">
      <g>
       <use xlink:href="#md1c85ddc06" x="30.103125" y="116.0116" style="stroke: #000000; stroke-width: 0.8"/>
      </g>
     </g>
     <g id="text_11">
      <!-- 2.0 -->
      <g transform="translate(7.2 119.810819) scale(0.1 -0.1)">
       <use xlink:href="#DejaVuSans-32"/>
       <use xlink:href="#DejaVuSans-2e" transform="translate(63.623047 0)"/>
       <use xlink:href="#DejaVuSans-30" transform="translate(95.410156 0)"/>
      </g>
     </g>
    </g>
    <g id="ytick_5">
     <g id="line2d_11">
      <g>
       <use xlink:href="#md1c85ddc06" x="30.103125" y="90.172722" style="stroke: #000000; stroke-width: 0.8"/>
      </g>
     </g>
     <g id="text_12">
      <!-- 2.5 -->
      <g transform="translate(7.2 93.971941) scale(0.1 -0.1)">
       <use xlink:href="#DejaVuSans-32"/>
       <use xlink:href="#DejaVuSans-2e" transform="translate(63.623047 0)"/>
       <use xlink:href="#DejaVuSans-35" transform="translate(95.410156 0)"/>
      </g>
     </g>
    </g>
    <g id="ytick_6">
     <g id="line2d_12">
      <g>
       <use xlink:href="#md1c85ddc06" x="30.103125" y="64.333844" style="stroke: #000000; stroke-width: 0.8"/>
      </g>
     </g>
     <g id="text_13">
      <!-- 3.0 -->
      <g transform="translate(7.2 68.133063) scale(0.1 -0.1)">
       <use xlink:href="#DejaVuSans-33"/>
       <use xlink:href="#DejaVuSans-2e" transform="translate(63.623047 0)"/>
       <use xlink:href="#DejaVuSans-30" transform="translate(95.410156 0)"/>
      </g>
     </g>
    </g>
    <g id="ytick_7">
     <g id="line2d_13">
      <g>
       <use xlink:href="#md1c85ddc06" x="30.103125" y="38.494966" style="stroke: #000000; stroke-width: 0.8"/>
      </g>
     </g>
     <g id="text_14">
      <!-- 3.5 -->
      <g transform="translate(7.2 42.294184) scale(0.1 -0.1)">
       <use xlink:href="#DejaVuSans-33"/>
       <use xlink:href="#DejaVuSans-2e" transform="translate(63.623047 0)"/>
       <use xlink:href="#DejaVuSans-35" transform="translate(95.410156 0)"/>
      </g>
     </g>
    </g>
   </g>
   <g id="line2d_14">
    <path d="M 41.339496 182.937835 
L 44.906598 181.566017 
L 48.4737 175.382287 
L 52.040801 170.840586 
L 55.607903 162.861986 
L 59.175005 152.641527 
L 62.742107 149.105832 
L 66.309209 158.95691 
L 69.876311 177.105092 
L 73.443413 190.524011 
L 77.010515 190.774757 
L 80.577616 173.675962 
L 84.144718 144.475812 
L 87.71182 124.134325 
L 91.278922 121.959625 
L 94.846024 129.828009 
L 98.413126 139.870284 
L 101.980228 148.430834 
L 105.547329 153.576996 
L 109.114431 161.198644 
L 112.681533 178.019964 
L 116.248635 190.347935 
L 119.815737 193.579655 
L 123.382839 191.075649 
L 126.949941 182.474987 
L 130.517043 167.896117 
L 134.084144 158.628455 
L 137.651246 157.950062 
L 141.218348 160.771971 
L 144.78545 166.876251 
L 148.352552 174.239679 
L 151.919654 179.459825 
L 155.486756 180.13375 
L 159.053857 175.711037 
L 162.620959 168.662474 
L 166.188061 164.068309 
L 169.755163 164.290631 
L 173.322265 168.889572 
L 176.889367 174.012691 
L 180.456469 173.91313 
L 184.023571 167.92139 
L 187.590672 162.821803 
L 191.157774 162.545527 
L 194.724876 167.703139 
L 198.291978 176.183637 
L 201.85908 180.65184 
L 205.426182 173.512395 
L 208.993284 164.475937 
L 212.560385 165.338123 
L 216.127487 172.178067 
L 219.694589 177.115918 
L 223.261691 174.338903 
L 226.828793 165.163068 
L 230.395895 157.241969 
L 233.962997 160.077456 
L 237.530099 171.558327 
L 241.0972 180.719889 
L 244.664302 177.967033 
L 248.231404 169.88995 
L 251.798506 162.547257 
L 255.365608 156.434198 
L 258.93271 153.240327 
L 262.499812 158.299929 
L 266.066914 172.947573 
" clip-path="url(#pcef306414a)" style="fill: none; stroke: #008adc; stroke-width: 3.5; stroke-linecap: square"/>
   </g>
   <g id="line2d_15">
    <path d="M 64.168948 214.594132 
L 64.168948 35.899062 
" clip-path="url(#pcef306414a)" style="fill: none; stroke: #808080; stroke-opacity: 0.7; stroke-width: 1.5; stroke-linecap: square"/>
   </g>
   <g id="line2d_16">
    <path d="M 96.130181 214.594132 
L 96.130181 35.899062 
" clip-path="url(#pcef306414a)" style="fill: none; stroke: #808080; stroke-opacity: 0.7; stroke-width: 1.5; stroke-linecap: square"/>
   </g>
   <g id="line2d_17">
    <path d="M 146.354975 214.594132 
L 146.354975 35.899062 
" clip-path="url(#pcef306414a)" style="fill: none; stroke: #808080; stroke-opacity: 0.7; stroke-width: 1.5; stroke-linecap: square"/>
   </g>
   <g id="line2d_18">
    <path d="M 223.975111 214.594132 
L 223.975111 35.899062 
" clip-path="url(#pcef306414a)" style="fill: none; stroke: #808080; stroke-opacity: 0.7; stroke-width: 1.5; stroke-linecap: square"/>
   </g>
   <g id="patch_3">
    <path d="M 30.103125 214.594132 
L 30.103125 35.899062 
" style="fill: none; stroke: #000000; stroke-width: 0.8; stroke-linejoin: miter; stroke-linecap: square"/>
   </g>
   <g id="patch_4">
    <path d="M 277.303284 214.594132 
L 277.303284 35.899062 
" style="fill: none; stroke: #000000; stroke-width: 0.8; stroke-linejoin: miter; stroke-linecap: square"/>
   </g>
   <g id="patch_5">
    <path d="M 30.103125 214.594132 
L 277.303284 214.594132 
" style="fill: none; stroke: #000000; stroke-width: 0.8; stroke-linejoin: miter; stroke-linecap: square"/>
   </g>
   <g id="patch_6">
    <path d="M 30.103125 35.899062 
L 277.303284 35.899062 
" style="fill: none; stroke: #000000; stroke-width: 0.8; stroke-linejoin: miter; stroke-linecap: square"/>
   </g>
   <g id="text_15">
    <!-- R1 -->
    <g transform="translate(56.182385 31.616487) scale(0.12 -0.12)">
     <defs>
      <path id="DejaVuSans-52" d="M 2841 2188 
Q 3044 2119 3236 1894 
Q 3428 1669 3622 1275 
L 4263 0 
L 3584 0 
L 2988 1197 
Q 2756 1666 2539 1819 
Q 2322 1972 1947 1972 
L 1259 1972 
L 1259 0 
L 628 0 
L 628 4666 
L 2053 4666 
Q 2853 4666 3247 4331 
Q 3641 3997 3641 3322 
Q 3641 2881 3436 2590 
Q 3231 2300 2841 2188 
z
M 1259 4147 
L 1259 2491 
L 2053 2491 
Q 2509 2491 2742 2702 
Q 2975 2913 2975 3322 
Q 2975 3731 2742 3939 
Q 2509 4147 2053 4147 
L 1259 4147 
z
" transform="scale(0.015625)"/>
     </defs>
     <use xlink:href="#DejaVuSans-52"/>
     <use xlink:href="#DejaVuSans-31" transform="translate(69.482422 0)"/>
    </g>
   </g>
   <g id="text_16">
    <!-- R2 -->
    <g transform="translate(88.143618 31.616487) scale(0.12 -0.12)">
     <use xlink:href="#DejaVuSans-52"/>
     <use xlink:href="#DejaVuSans-32" transform="translate(69.482422 0)"/>
    </g>
   </g>
   <g id="text_17">
    <!-- R3 -->
    <g transform="translate(138.368412 31.616487) scale(0.12 -0.12)">
     <use xlink:href="#DejaVuSans-52"/>
     <use xlink:href="#DejaVuSans-33" transform="translate(69.482422 0)"/>
    </g>
   </g>
   <g id="text_18">
    <!-- R4 -->
    <g transform="translate(215.988549 31.616487) scale(0.12 -0.12)">
     <use xlink:href="#DejaVuSans-52"/>
     <use xlink:href="#DejaVuSans-34" transform="translate(69.482422 0)"/>
    </g>
   </g>
   <g id="text_19">
    <!-- (FC) int=60_dB | pres=Binaural -->
    <g transform="translate(43.644611 17.899062) scale(0.14 -0.14)">
     <defs>
      <path id="DejaVuSans-46" d="M 628 4666 
L 3309 4666 
L 3309 4134 
L 1259 4134 
L 1259 2759 
L 3109 2759 
L 3109 2228 
L 1259 2228 
L 1259 0 
L 628 0 
L 628 4666 
z
" transform="scale(0.015625)"/>
      <path id="DejaVuSans-43" d="M 4122 4306 
L 4122 3641 
Q 3803 3938 3442 4084 
Q 3081 4231 2675 4231 
Q 1875 4231 1450 3742 
Q 1025 3253 1025 2328 
Q 1025 1406 1450 917 
Q 1875 428 2675 428 
Q 3081 428 3442 575 
Q 3803 722 4122 1019 
L 4122 359 
Q 3791 134 3420 21 
Q 3050 -91 2638 -91 
Q 1578 -91 968 557 
Q 359 1206 359 2328 
Q 359 3453 968 4101 
Q 1578 4750 2638 4750 
Q 3056 4750 3426 4639 
Q 3797 4528 4122 4306 
z
" transform="scale(0.015625)"/>
      <path id="DejaVuSans-6e" d="M 3513 2113 
L 3513 0 
L 2938 0 
L 2938 2094 
Q 2938 2591 2744 2837 
Q 2550 3084 2163 3084 
Q 1697 3084 1428 2787 
Q 1159 2491 1159 1978 
L 1159 0 
L 581 0 
L 581 3500 
L 1159 3500 
L 1159 2956 
Q 1366 3272 1645 3428 
Q 1925 3584 2291 3584 
Q 2894 3584 3203 3211 
Q 3513 2838 3513 2113 
z
" transform="scale(0.015625)"/>
      <path id="DejaVuSans-74" d="M 1172 4494 
L 1172 3500 
L 2356 3500 
L 2356 3053 
L 1172 3053 
L 1172 1153 
Q 1172 725 1289 603 
Q 1406 481 1766 481 
L 2356 481 
L 2356 0 
L 1766 0 
Q 1100 0 847 248 
Q 594 497 594 1153 
L 594 3053 
L 172 3053 
L 172 3500 
L 594 3500 
L 594 4494 
L 1172 4494 
z
" transform="scale(0.015625)"/>
      <path id="DejaVuSans-3d" d="M 678 2906 
L 4684 2906 
L 4684 2381 
L 678 2381 
L 678 2906 
z
M 678 1631 
L 4684 1631 
L 4684 1100 
L 678 1100 
L 678 1631 
z
" transform="scale(0.015625)"/>
      <path id="DejaVuSans-36" d="M 2113 2584 
Q 1688 2584 1439 2293 
Q 1191 2003 1191 1497 
Q 1191 994 1439 701 
Q 1688 409 2113 409 
Q 2538 409 2786 701 
Q 3034 994 3034 1497 
Q 3034 2003 2786 2293 
Q 2538 2584 2113 2584 
z
M 3366 4563 
L 3366 3988 
Q 3128 4100 2886 4159 
Q 2644 4219 2406 4219 
Q 1781 4219 1451 3797 
Q 1122 3375 1075 2522 
Q 1259 2794 1537 2939 
Q 1816 3084 2150 3084 
Q 2853 3084 3261 2657 
Q 3669 2231 3669 1497 
Q 3669 778 3244 343 
Q 2819 -91 2113 -91 
Q 1303 -91 875 529 
Q 447 1150 447 2328 
Q 447 3434 972 4092 
Q 1497 4750 2381 4750 
Q 2619 4750 2861 4703 
Q 3103 4656 3366 4563 
z
" transform="scale(0.015625)"/>
      <path id="DejaVuSans-5f" d="M 3263 -1063 
L 3263 -1509 
L -63 -1509 
L -63 -1063 
L 3263 -1063 
z
" transform="scale(0.015625)"/>
      <path id="DejaVuSans-64" d="M 2906 2969 
L 2906 4863 
L 3481 4863 
L 3481 0 
L 2906 0 
L 2906 525 
Q 2725 213 2448 61 
Q 2172 -91 1784 -91 
Q 1150 -91 751 415 
Q 353 922 353 1747 
Q 353 2572 751 3078 
Q 1150 3584 1784 3584 
Q 2172 3584 2448 3432 
Q 2725 3281 2906 2969 
z
M 947 1747 
Q 947 1113 1208 752 
Q 1469 391 1925 391 
Q 2381 391 2643 752 
Q 2906 1113 2906 1747 
Q 2906 2381 2643 2742 
Q 2381 3103 1925 3103 
Q 1469 3103 1208 2742 
Q 947 2381 947 1747 
z
" transform="scale(0.015625)"/>
      <path id="DejaVuSans-42" d="M 1259 2228 
L 1259 519 
L 2272 519 
Q 2781 519 3026 730 
Q 3272 941 3272 1375 
Q 3272 1813 3026 2020 
Q 2781 2228 2272 2228 
L 1259 2228 
z
M 1259 4147 
L 1259 2741 
L 2194 2741 
Q 2656 2741 2882 2914 
Q 3109 3088 3109 3444 
Q 3109 3797 2882 3972 
Q 2656 4147 2194 4147 
L 1259 4147 
z
M 628 4666 
L 2241 4666 
Q 2963 4666 3353 4366 
Q 3744 4066 3744 3513 
Q 3744 3084 3544 2831 
Q 3344 2578 2956 2516 
Q 3422 2416 3680 2098 
Q 3938 1781 3938 1306 
Q 3938 681 3513 340 
Q 3088 0 2303 0 
L 628 0 
L 628 4666 
z
" transform="scale(0.015625)"/>
      <path id="DejaVuSans-7c" d="M 1344 4891 
L 1344 -1509 
L 813 -1509 
L 813 4891 
L 1344 4891 
z
" transform="scale(0.015625)"/>
      <path id="DejaVuSans-70" d="M 1159 525 
L 1159 -1331 
L 581 -1331 
L 581 3500 
L 1159 3500 
L 1159 2969 
Q 1341 3281 1617 3432 
Q 1894 3584 2278 3584 
Q 2916 3584 3314 3078 
Q 3713 2572 3713 1747 
Q 3713 922 3314 415 
Q 2916 -91 2278 -91 
Q 1894 -91 1617 61 
Q 1341 213 1159 525 
z
M 3116 1747 
Q 3116 2381 2855 2742 
Q 2594 3103 2138 3103 
Q 1681 3103 1420 2742 
Q 1159 2381 1159 1747 
Q 1159 1113 1420 752 
Q 1681 391 2138 391 
Q 2594 391 2855 752 
Q 3116 1113 3116 1747 
z
" transform="scale(0.015625)"/>
      <path id="DejaVuSans-72" d="M 2631 2963 
Q 2534 3019 2420 3045 
Q 2306 3072 2169 3072 
Q 1681 3072 1420 2755 
Q 1159 2438 1159 1844 
L 1159 0 
L 581 0 
L 581 3500 
L 1159 3500 
L 1159 2956 
Q 1341 3275 1631 3429 
Q 1922 3584 2338 3584 
Q 2397 3584 2469 3576 
Q 2541 3569 2628 3553 
L 2631 2963 
z
" transform="scale(0.015625)"/>
      <path id="DejaVuSans-61" d="M 2194 1759 
Q 1497 1759 1228 1600 
Q 959 1441 959 1056 
Q 959 750 1161 570 
Q 1363 391 1709 391 
Q 2188 391 2477 730 
Q 2766 1069 2766 1631 
L 2766 1759 
L 2194 1759 
z
M 3341 1997 
L 3341 0 
L 2766 0 
L 2766 531 
Q 2569 213 2275 61 
Q 1981 -91 1556 -91 
Q 1019 -91 701 211 
Q 384 513 384 1019 
Q 384 1609 779 1909 
Q 1175 2209 1959 2209 
L 2766 2209 
L 2766 2266 
Q 2766 2663 2505 2880 
Q 2244 3097 1772 3097 
Q 1472 3097 1187 3025 
Q 903 2953 641 2809 
L 641 3341 
Q 956 3463 1253 3523 
Q 1550 3584 1831 3584 
Q 2591 3584 2966 3190 
Q 3341 2797 3341 1997 
z
" transform="scale(0.015625)"/>
      <path id="DejaVuSans-75" d="M 544 1381 
L 544 3500 
L 1119 3500 
L 1119 1403 
Q 1119 906 1312 657 
Q 1506 409 1894 409 
Q 2359 409 2629 706 
Q 2900 1003 2900 1516 
L 2900 3500 
L 3475 3500 
L 3475 0 
L 2900 0 
L 2900 538 
Q 2691 219 2414 64 
Q 2138 -91 1772 -91 
Q 1169 -91 856 284 
Q 544 659 544 1381 
z
M 1991 3584 
L 1991 3584 
z
" transform="scale(0.015625)"/>
      <path id="DejaVuSans-6c" d="M 603 4863 
L 1178 4863 
L 1178 0 
L 603 0 
L 603 4863 
z
" transform="scale(0.015625)"/>
     </defs>
     <use xlink:href="#DejaVuSans-28"/>
     <use xlink:href="#DejaVuSans-46" transform="translate(39.013672 0)"/>
     <use xlink:href="#DejaVuSans-43" transform="translate(96.533203 0)"/>
     <use xlink:href="#DejaVuSans-29" transform="translate(166.357422 0)"/>
     <use xlink:href="#DejaVuSans-20" transform="translate(205.371094 0)"/>
     <use xlink:href="#DejaVuSans-69" transform="translate(237.158203 0)"/>
     <use xlink:href="#DejaVuSans-6e" transform="translate(264.941406 0)"/>
     <use xlink:href="#DejaVuSans-74" transform="translate(328.320312 0)"/>
     <use xlink:href="#DejaVuSans-3d" transform="translate(367.529297 0)"/>
     <use xlink:href="#DejaVuSans-36" transform="translate(451.318359 0)"/>
     <use xlink:href="#DejaVuSans-30" transform="translate(514.941406 0)"/>
     <use xlink:href="#DejaVuSans-5f" transform="translate(578.564453 0)"/>
     <use xlink:href="#DejaVuSans-64" transform="translate(628.564453 0)"/>
     <use xlink:href="#DejaVuSans-42" transform="translate(692.041016 0)"/>
     <use xlink:href="#DejaVuSans-20" transform="translate(760.644531 0)"/>
     <use xlink:href="#DejaVuSans-7c" transform="translate(792.431641 0)"/>
     <use xlink:href="#DejaVuSans-20" transform="translate(826.123047 0)"/>
     <use xlink:href="#DejaVuSans-70" transform="translate(857.910156 0)"/>
     <use xlink:href="#DejaVuSans-72" transform="translate(921.386719 0)"/>
     <use xlink:href="#DejaVuSans-65" transform="translate(960.25 0)"/>
     <use xlink:href="#DejaVuSans-73" transform="translate(1021.773438 0)"/>
     <use xlink:href="#DejaVuSans-3d" transform="translate(1073.873047 0)"/>
     <use xlink:href="#DejaVuSans-42" transform="translate(1157.662109 0)"/>
     <use xlink:href="#DejaVuSans-69" transform="translate(1226.265625 0)"/>
     <use xlink:href="#DejaVuSans-6e" transform="translate(1254.048828 0)"/>
     <use xlink:href="#DejaVuSans-61" transform="translate(1317.427734 0)"/>
     <use xlink:href="#DejaVuSans-75" transform="translate(1378.707031 0)"/>
     <use xlink:href="#DejaVuSans-72" transform="translate(1442.085938 0)"/>
     <use xlink:href="#DejaVuSans-61" transform="translate(1483.199219 0)"/>
     <use xlink:href="#DejaVuSans-6c" transform="translate(1544.478516 0)"/>
    </g>
   </g>
  </g>
  <g id="axes_2">
   <g id="patch_7">
    <path d="M 312.703125 214.594132 
L 559.903284 214.594132 
L 559.903284 35.899062 
L 312.703125 35.899062 
z
" style="fill: #ffffff"/>
   </g>
   <g id="matplotlib.axis_3">
    <g id="xtick_7">
     <g id="line2d_19">
      <g>
       <use xlink:href="#m6fa3a4ab34" x="323.939496" y="214.594132" style="stroke: #000000; stroke-width: 0.8"/>
      </g>
     </g>
     <g id="text_20">
      <!-- 0.0 -->
      <g transform="translate(315.987933 229.19257) scale(0.1 -0.1)">
       <use xlink:href="#DejaVuSans-30"/>
       <use xlink:href="#DejaVuSans-2e" transform="translate(63.623047 0)"/>
       <use xlink:href="#DejaVuSans-30" transform="translate(95.410156 0)"/>
      </g>
     </g>
    </g>
    <g id="xtick_8">
     <g id="line2d_20">
      <g>
       <use xlink:href="#m6fa3a4ab34" x="369.5984" y="214.594132" style="stroke: #000000; stroke-width: 0.8"/>
      </g>
     </g>
     <g id="text_21">
      <!-- 0.1 -->
      <g transform="translate(361.646837 229.19257) scale(0.1 -0.1)">
       <use xlink:href="#DejaVuSans-30"/>
       <use xlink:href="#DejaVuSans-2e" transform="translate(63.623047 0)"/>
       <use xlink:href="#DejaVuSans-31" transform="translate(95.410156 0)"/>
      </g>
     </g>
    </g>
    <g id="xtick_9">
     <g id="line2d_21">
      <g>
       <use xlink:href="#m6fa3a4ab34" x="415.257304" y="214.594132" style="stroke: #000000; stroke-width: 0.8"/>
      </g>
     </g>
     <g id="text_22">
      <!-- 0.2 -->
      <g transform="translate(407.305741 229.19257) scale(0.1 -0.1)">
       <use xlink:href="#DejaVuSans-30"/>
       <use xlink:href="#DejaVuSans-2e" transform="translate(63.623047 0)"/>
       <use xlink:href="#DejaVuSans-32" transform="translate(95.410156 0)"/>
      </g>
     </g>
    </g>
    <g id="xtick_10">
     <g id="line2d_22">
      <g>
       <use xlink:href="#m6fa3a4ab34" x="460.916208" y="214.594132" style="stroke: #000000; stroke-width: 0.8"/>
      </g>
     </g>
     <g id="text_23">
      <!-- 0.3 -->
      <g transform="translate(452.964645 229.19257) scale(0.1 -0.1)">
       <use xlink:href="#DejaVuSans-30"/>
       <use xlink:href="#DejaVuSans-2e" transform="translate(63.623047 0)"/>
       <use xlink:href="#DejaVuSans-33" transform="translate(95.410156 0)"/>
      </g>
     </g>
    </g>
    <g id="xtick_11">
     <g id="line2d_23">
      <g>
       <use xlink:href="#m6fa3a4ab34" x="506.575111" y="214.594132" style="stroke: #000000; stroke-width: 0.8"/>
      </g>
     </g>
     <g id="text_24">
      <!-- 0.4 -->
      <g transform="translate(498.623549 229.19257) scale(0.1 -0.1)">
       <use xlink:href="#DejaVuSans-30"/>
       <use xlink:href="#DejaVuSans-2e" transform="translate(63.623047 0)"/>
       <use xlink:href="#DejaVuSans-34" transform="translate(95.410156 0)"/>
      </g>
     </g>
    </g>
    <g id="xtick_12">
     <g id="line2d_24">
      <g>
       <use xlink:href="#m6fa3a4ab34" x="552.234015" y="214.594132" style="stroke: #000000; stroke-width: 0.8"/>
      </g>
     </g>
     <g id="text_25">
      <!-- 0.5 -->
      <g transform="translate(544.282453 229.19257) scale(0.1 -0.1)">
       <use xlink:href="#DejaVuSans-30"/>
       <use xlink:href="#DejaVuSans-2e" transform="translate(63.623047 0)"/>
       <use xlink:href="#DejaVuSans-35" transform="translate(95.410156 0)"/>
      </g>
     </g>
    </g>
    <g id="text_26">
     <!-- Time (s) -->
     <g transform="translate(407.842736 245.91007) scale(0.14 -0.14)">
      <use xlink:href="#DejaVuSans-54"/>
      <use xlink:href="#DejaVuSans-69" transform="translate(57.958984 0)"/>
      <use xlink:href="#DejaVuSans-6d" transform="translate(85.742188 0)"/>
      <use xlink:href="#DejaVuSans-65" transform="translate(183.154297 0)"/>
      <use xlink:href="#DejaVuSans-20" transform="translate(244.677734 0)"/>
      <use xlink:href="#DejaVuSans-28" transform="translate(276.464844 0)"/>
      <use xlink:href="#DejaVuSans-73" transform="translate(315.478516 0)"/>
      <use xlink:href="#DejaVuSans-29" transform="translate(367.578125 0)"/>
     </g>
    </g>
   </g>
   <g id="matplotlib.axis_4">
    <g id="ytick_8">
     <g id="line2d_25">
      <g>
       <use xlink:href="#md1c85ddc06" x="312.703125" y="193.528235" style="stroke: #000000; stroke-width: 0.8"/>
      </g>
     </g>
     <g id="text_27">
      <!-- 0.5 -->
      <g transform="translate(289.8 197.327454) scale(0.1 -0.1)">
       <use xlink:href="#DejaVuSans-30"/>
       <use xlink:href="#DejaVuSans-2e" transform="translate(63.623047 0)"/>
       <use xlink:href="#DejaVuSans-35" transform="translate(95.410156 0)"/>
      </g>
     </g>
    </g>
    <g id="ytick_9">
     <g id="line2d_26">
      <g>
       <use xlink:href="#md1c85ddc06" x="312.703125" y="167.689357" style="stroke: #000000; stroke-width: 0.8"/>
      </g>
     </g>
     <g id="text_28">
      <!-- 1.0 -->
      <g transform="translate(289.8 171.488575) scale(0.1 -0.1)">
       <use xlink:href="#DejaVuSans-31"/>
       <use xlink:href="#DejaVuSans-2e" transform="translate(63.623047 0)"/>
       <use xlink:href="#DejaVuSans-30" transform="translate(95.410156 0)"/>
      </g>
     </g>
    </g>
    <g id="ytick_10">
     <g id="line2d_27">
      <g>
       <use xlink:href="#md1c85ddc06" x="312.703125" y="141.850478" style="stroke: #000000; stroke-width: 0.8"/>
      </g>
     </g>
     <g id="text_29">
      <!-- 1.5 -->
      <g transform="translate(289.8 145.649697) scale(0.1 -0.1)">
       <use xlink:href="#DejaVuSans-31"/>
       <use xlink:href="#DejaVuSans-2e" transform="translate(63.623047 0)"/>
       <use xlink:href="#DejaVuSans-35" transform="translate(95.410156 0)"/>
      </g>
     </g>
    </g>
    <g id="ytick_11">
     <g id="line2d_28">
      <g>
       <use xlink:href="#md1c85ddc06" x="312.703125" y="116.0116" style="stroke: #000000; stroke-width: 0.8"/>
      </g>
     </g>
     <g id="text_30">
      <!-- 2.0 -->
      <g transform="translate(289.8 119.810819) scale(0.1 -0.1)">
       <use xlink:href="#DejaVuSans-32"/>
       <use xlink:href="#DejaVuSans-2e" transform="translate(63.623047 0)"/>
       <use xlink:href="#DejaVuSans-30" transform="translate(95.410156 0)"/>
      </g>
     </g>
    </g>
    <g id="ytick_12">
     <g id="line2d_29">
      <g>
       <use xlink:href="#md1c85ddc06" x="312.703125" y="90.172722" style="stroke: #000000; stroke-width: 0.8"/>
      </g>
     </g>
     <g id="text_31">
      <!-- 2.5 -->
      <g transform="translate(289.8 93.971941) scale(0.1 -0.1)">
       <use xlink:href="#DejaVuSans-32"/>
       <use xlink:href="#DejaVuSans-2e" transform="translate(63.623047 0)"/>
       <use xlink:href="#DejaVuSans-35" transform="translate(95.410156 0)"/>
      </g>
     </g>
    </g>
    <g id="ytick_13">
     <g id="line2d_30">
      <g>
       <use xlink:href="#md1c85ddc06" x="312.703125" y="64.333844" style="stroke: #000000; stroke-width: 0.8"/>
      </g>
     </g>
     <g id="text_32">
      <!-- 3.0 -->
      <g transform="translate(289.8 68.133063) scale(0.1 -0.1)">
       <use xlink:href="#DejaVuSans-33"/>
       <use xlink:href="#DejaVuSans-2e" transform="translate(63.623047 0)"/>
       <use xlink:href="#DejaVuSans-30" transform="translate(95.410156 0)"/>
      </g>
     </g>
    </g>
    <g id="ytick_14">
     <g id="line2d_31">
      <g>
       <use xlink:href="#md1c85ddc06" x="312.703125" y="38.494966" style="stroke: #000000; stroke-width: 0.8"/>
      </g>
     </g>
     <g id="text_33">
      <!-- 3.5 -->
      <g transform="translate(289.8 42.294184) scale(0.1 -0.1)">
       <use xlink:href="#DejaVuSans-33"/>
       <use xlink:href="#DejaVuSans-2e" transform="translate(63.623047 0)"/>
       <use xlink:href="#DejaVuSans-35" transform="translate(95.410156 0)"/>
      </g>
     </g>
    </g>
   </g>
   <g id="line2d_32">
    <path d="M 323.939496 193.77702 
L 327.506598 185.306156 
L 331.0737 178.522809 
L 334.640801 179.894523 
L 338.207903 181.413747 
L 341.775005 175.86543 
L 345.342107 167.366802 
L 348.909209 171.319467 
L 352.476311 183.12204 
L 356.043413 188.541406 
L 359.610515 183.692755 
L 363.177616 172.545589 
L 366.744718 156.493296 
L 370.31182 141.479293 
L 373.878922 134.091552 
L 377.446024 133.112517 
L 381.013126 129.540356 
L 384.580228 112.552084 
L 388.147329 89.602846 
L 391.714431 83.958316 
L 395.281533 92.156416 
L 398.848635 97.544374 
L 402.415737 99.442418 
L 405.982839 111.636295 
L 409.549941 128.37779 
L 413.117043 142.479031 
L 416.684144 153.682809 
L 420.251246 161.698914 
L 423.818348 160.222575 
L 427.38545 155.178005 
L 430.952552 156.242917 
L 434.519654 161.874388 
L 438.086756 165.754556 
L 441.653857 160.435358 
L 445.220959 146.229654 
L 448.788061 133.486349 
L 452.355163 132.898007 
L 455.922265 141.091 
L 459.489367 145.572906 
L 463.056469 156.021561 
L 466.623571 170.980329 
L 470.190672 174.182126 
L 473.757774 160.911146 
L 477.324876 136.952082 
L 480.891978 115.676535 
L 484.45908 115.365742 
L 488.026182 138.755122 
L 491.593284 159.109876 
L 495.160385 166.916551 
L 498.727487 171.355376 
L 502.294589 179.646957 
L 505.861691 190.840303 
L 509.428793 195.049957 
L 512.995895 186.607586 
L 516.562997 171.886083 
L 520.130099 163.170875 
L 523.6972 167.264637 
L 527.264302 183.784821 
L 530.831404 201.930594 
L 534.398506 208.373379 
L 537.965608 200.625953 
L 541.53271 182.655691 
L 545.099812 165.653733 
L 548.666914 160.290381 
" clip-path="url(#p9e62d3903b)" style="fill: none; stroke: #008adc; stroke-width: 3.5; stroke-linecap: square"/>
   </g>
   <g id="line2d_33">
    <path d="M 346.768948 214.594132 
L 346.768948 35.899062 
" clip-path="url(#p9e62d3903b)" style="fill: none; stroke: #808080; stroke-opacity: 0.7; stroke-width: 1.5; stroke-linecap: square"/>
   </g>
   <g id="line2d_34">
    <path d="M 378.730181 214.594132 
L 378.730181 35.899062 
" clip-path="url(#p9e62d3903b)" style="fill: none; stroke: #808080; stroke-opacity: 0.7; stroke-width: 1.5; stroke-linecap: square"/>
   </g>
   <g id="line2d_35">
    <path d="M 428.954975 214.594132 
L 428.954975 35.899062 
" clip-path="url(#p9e62d3903b)" style="fill: none; stroke: #808080; stroke-opacity: 0.7; stroke-width: 1.5; stroke-linecap: square"/>
   </g>
   <g id="line2d_36">
    <path d="M 506.575111 214.594132 
L 506.575111 35.899062 
" clip-path="url(#p9e62d3903b)" style="fill: none; stroke: #808080; stroke-opacity: 0.7; stroke-width: 1.5; stroke-linecap: square"/>
   </g>
   <g id="patch_8">
    <path d="M 312.703125 214.594132 
L 312.703125 35.899062 
" style="fill: none; stroke: #000000; stroke-width: 0.8; stroke-linejoin: miter; stroke-linecap: square"/>
   </g>
   <g id="patch_9">
    <path d="M 559.903284 214.594132 
L 559.903284 35.899062 
" style="fill: none; stroke: #000000; stroke-width: 0.8; stroke-linejoin: miter; stroke-linecap: square"/>
   </g>
   <g id="patch_10">
    <path d="M 312.703125 214.594132 
L 559.903284 214.594132 
" style="fill: none; stroke: #000000; stroke-width: 0.8; stroke-linejoin: miter; stroke-linecap: square"/>
   </g>
   <g id="patch_11">
    <path d="M 312.703125 35.899062 
L 559.903284 35.899062 
" style="fill: none; stroke: #000000; stroke-width: 0.8; stroke-linejoin: miter; stroke-linecap: square"/>
   </g>
   <g id="text_34">
    <!-- R1 -->
    <g transform="translate(338.782385 31.616487) scale(0.12 -0.12)">
     <use xlink:href="#DejaVuSans-52"/>
     <use xlink:href="#DejaVuSans-31" transform="translate(69.482422 0)"/>
    </g>
   </g>
   <g id="text_35">
    <!-- R2 -->
    <g transform="translate(370.743618 31.616487) scale(0.12 -0.12)">
     <use xlink:href="#DejaVuSans-52"/>
     <use xlink:href="#DejaVuSans-32" transform="translate(69.482422 0)"/>
    </g>
   </g>
   <g id="text_36">
    <!-- R3 -->
    <g transform="translate(420.968412 31.616487) scale(0.12 -0.12)">
     <use xlink:href="#DejaVuSans-52"/>
     <use xlink:href="#DejaVuSans-33" transform="translate(69.482422 0)"/>
    </g>
   </g>
   <g id="text_37">
    <!-- R4 -->
    <g transform="translate(498.588549 31.616487) scale(0.12 -0.12)">
     <use xlink:href="#DejaVuSans-52"/>
     <use xlink:href="#DejaVuSans-34" transform="translate(69.482422 0)"/>
    </g>
   </g>
   <g id="text_38">
    <!-- (FC) int=60_dB | pres=Monaural -->
    <g transform="translate(322.669142 17.899062) scale(0.14 -0.14)">
     <defs>
      <path id="DejaVuSans-4d" d="M 628 4666 
L 1569 4666 
L 2759 1491 
L 3956 4666 
L 4897 4666 
L 4897 0 
L 4281 0 
L 4281 4097 
L 3078 897 
L 2444 897 
L 1241 4097 
L 1241 0 
L 628 0 
L 628 4666 
z
" transform="scale(0.015625)"/>
      <path id="DejaVuSans-6f" d="M 1959 3097 
Q 1497 3097 1228 2736 
Q 959 2375 959 1747 
Q 959 1119 1226 758 
Q 1494 397 1959 397 
Q 2419 397 2687 759 
Q 2956 1122 2956 1747 
Q 2956 2369 2687 2733 
Q 2419 3097 1959 3097 
z
M 1959 3584 
Q 2709 3584 3137 3096 
Q 3566 2609 3566 1747 
Q 3566 888 3137 398 
Q 2709 -91 1959 -91 
Q 1206 -91 779 398 
Q 353 888 353 1747 
Q 353 2609 779 3096 
Q 1206 3584 1959 3584 
z
" transform="scale(0.015625)"/>
     </defs>
     <use xlink:href="#DejaVuSans-28"/>
     <use xlink:href="#DejaVuSans-46" transform="translate(39.013672 0)"/>
     <use xlink:href="#DejaVuSans-43" transform="translate(96.533203 0)"/>
     <use xlink:href="#DejaVuSans-29" transform="translate(166.357422 0)"/>
     <use xlink:href="#DejaVuSans-20" transform="translate(205.371094 0)"/>
     <use xlink:href="#DejaVuSans-69" transform="translate(237.158203 0)"/>
     <use xlink:href="#DejaVuSans-6e" transform="translate(264.941406 0)"/>
     <use xlink:href="#DejaVuSans-74" transform="translate(328.320312 0)"/>
     <use xlink:href="#DejaVuSans-3d" transform="translate(367.529297 0)"/>
     <use xlink:href="#DejaVuSans-36" transform="translate(451.318359 0)"/>
     <use xlink:href="#DejaVuSans-30" transform="translate(514.941406 0)"/>
     <use xlink:href="#DejaVuSans-5f" transform="translate(578.564453 0)"/>
     <use xlink:href="#DejaVuSans-64" transform="translate(628.564453 0)"/>
     <use xlink:href="#DejaVuSans-42" transform="translate(692.041016 0)"/>
     <use xlink:href="#DejaVuSans-20" transform="translate(760.644531 0)"/>
     <use xlink:href="#DejaVuSans-7c" transform="translate(792.431641 0)"/>
     <use xlink:href="#DejaVuSans-20" transform="translate(826.123047 0)"/>
     <use xlink:href="#DejaVuSans-70" transform="translate(857.910156 0)"/>
     <use xlink:href="#DejaVuSans-72" transform="translate(921.386719 0)"/>
     <use xlink:href="#DejaVuSans-65" transform="translate(960.25 0)"/>
     <use xlink:href="#DejaVuSans-73" transform="translate(1021.773438 0)"/>
     <use xlink:href="#DejaVuSans-3d" transform="translate(1073.873047 0)"/>
     <use xlink:href="#DejaVuSans-4d" transform="translate(1157.662109 0)"/>
     <use xlink:href="#DejaVuSans-6f" transform="translate(1243.941406 0)"/>
     <use xlink:href="#DejaVuSans-6e" transform="translate(1305.123047 0)"/>
     <use xlink:href="#DejaVuSans-61" transform="translate(1368.501953 0)"/>
     <use xlink:href="#DejaVuSans-75" transform="translate(1429.78125 0)"/>
     <use xlink:href="#DejaVuSans-72" transform="translate(1493.160156 0)"/>
     <use xlink:href="#DejaVuSans-61" transform="translate(1534.273438 0)"/>
     <use xlink:href="#DejaVuSans-6c" transform="translate(1595.552734 0)"/>
    </g>
   </g>
  </g>
  <g id="axes_3">
   <g id="patch_12">
    <path d="M 30.103125 457.099062 
L 277.303284 457.099062 
L 277.303284 278.403993 
L 30.103125 278.403993 
z
" style="fill: #ffffff"/>
   </g>
   <g id="matplotlib.axis_5">
    <g id="xtick_13">
     <g id="line2d_37">
      <g>
       <use xlink:href="#m6fa3a4ab34" x="41.339496" y="457.099062" style="stroke: #000000; stroke-width: 0.8"/>
      </g>
     </g>
     <g id="text_39">
      <!-- 0.0 -->
      <g transform="translate(33.387933 471.6975) scale(0.1 -0.1)">
       <use xlink:href="#DejaVuSans-30"/>
       <use xlink:href="#DejaVuSans-2e" transform="translate(63.623047 0)"/>
       <use xlink:href="#DejaVuSans-30" transform="translate(95.410156 0)"/>
      </g>
     </g>
    </g>
    <g id="xtick_14">
     <g id="line2d_38">
      <g>
       <use xlink:href="#m6fa3a4ab34" x="86.9984" y="457.099062" style="stroke: #000000; stroke-width: 0.8"/>
      </g>
     </g>
     <g id="text_40">
      <!-- 0.1 -->
      <g transform="translate(79.046837 471.6975) scale(0.1 -0.1)">
       <use xlink:href="#DejaVuSans-30"/>
       <use xlink:href="#DejaVuSans-2e" transform="translate(63.623047 0)"/>
       <use xlink:href="#DejaVuSans-31" transform="translate(95.410156 0)"/>
      </g>
     </g>
    </g>
    <g id="xtick_15">
     <g id="line2d_39">
      <g>
       <use xlink:href="#m6fa3a4ab34" x="132.657304" y="457.099062" style="stroke: #000000; stroke-width: 0.8"/>
      </g>
     </g>
     <g id="text_41">
      <!-- 0.2 -->
      <g transform="translate(124.705741 471.6975) scale(0.1 -0.1)">
       <use xlink:href="#DejaVuSans-30"/>
       <use xlink:href="#DejaVuSans-2e" transform="translate(63.623047 0)"/>
       <use xlink:href="#DejaVuSans-32" transform="translate(95.410156 0)"/>
      </g>
     </g>
    </g>
    <g id="xtick_16">
     <g id="line2d_40">
      <g>
       <use xlink:href="#m6fa3a4ab34" x="178.316208" y="457.099062" style="stroke: #000000; stroke-width: 0.8"/>
      </g>
     </g>
     <g id="text_42">
      <!-- 0.3 -->
      <g transform="translate(170.364645 471.6975) scale(0.1 -0.1)">
       <use xlink:href="#DejaVuSans-30"/>
       <use xlink:href="#DejaVuSans-2e" transform="translate(63.623047 0)"/>
       <use xlink:href="#DejaVuSans-33" transform="translate(95.410156 0)"/>
      </g>
     </g>
    </g>
    <g id="xtick_17">
     <g id="line2d_41">
      <g>
       <use xlink:href="#m6fa3a4ab34" x="223.975111" y="457.099062" style="stroke: #000000; stroke-width: 0.8"/>
      </g>
     </g>
     <g id="text_43">
      <!-- 0.4 -->
      <g transform="translate(216.023549 471.6975) scale(0.1 -0.1)">
       <use xlink:href="#DejaVuSans-30"/>
       <use xlink:href="#DejaVuSans-2e" transform="translate(63.623047 0)"/>
       <use xlink:href="#DejaVuSans-34" transform="translate(95.410156 0)"/>
      </g>
     </g>
    </g>
    <g id="xtick_18">
     <g id="line2d_42">
      <g>
       <use xlink:href="#m6fa3a4ab34" x="269.634015" y="457.099062" style="stroke: #000000; stroke-width: 0.8"/>
      </g>
     </g>
     <g id="text_44">
      <!-- 0.5 -->
      <g transform="translate(261.682453 471.6975) scale(0.1 -0.1)">
       <use xlink:href="#DejaVuSans-30"/>
       <use xlink:href="#DejaVuSans-2e" transform="translate(63.623047 0)"/>
       <use xlink:href="#DejaVuSans-35" transform="translate(95.410156 0)"/>
      </g>
     </g>
    </g>
    <g id="text_45">
     <!-- Time (s) -->
     <g transform="translate(125.242736 488.415) scale(0.14 -0.14)">
      <use xlink:href="#DejaVuSans-54"/>
      <use xlink:href="#DejaVuSans-69" transform="translate(57.958984 0)"/>
      <use xlink:href="#DejaVuSans-6d" transform="translate(85.742188 0)"/>
      <use xlink:href="#DejaVuSans-65" transform="translate(183.154297 0)"/>
      <use xlink:href="#DejaVuSans-20" transform="translate(244.677734 0)"/>
      <use xlink:href="#DejaVuSans-28" transform="translate(276.464844 0)"/>
      <use xlink:href="#DejaVuSans-73" transform="translate(315.478516 0)"/>
      <use xlink:href="#DejaVuSans-29" transform="translate(367.578125 0)"/>
     </g>
    </g>
   </g>
   <g id="matplotlib.axis_6">
    <g id="ytick_15">
     <g id="line2d_43">
      <g>
       <use xlink:href="#md1c85ddc06" x="30.103125" y="436.033165" style="stroke: #000000; stroke-width: 0.8"/>
      </g>
     </g>
     <g id="text_46">
      <!-- 0.5 -->
      <g transform="translate(7.2 439.832384) scale(0.1 -0.1)">
       <use xlink:href="#DejaVuSans-30"/>
       <use xlink:href="#DejaVuSans-2e" transform="translate(63.623047 0)"/>
       <use xlink:href="#DejaVuSans-35" transform="translate(95.410156 0)"/>
      </g>
     </g>
    </g>
    <g id="ytick_16">
     <g id="line2d_44">
      <g>
       <use xlink:href="#md1c85ddc06" x="30.103125" y="410.194287" style="stroke: #000000; stroke-width: 0.8"/>
      </g>
     </g>
     <g id="text_47">
      <!-- 1.0 -->
      <g transform="translate(7.2 413.993506) scale(0.1 -0.1)">
       <use xlink:href="#DejaVuSans-31"/>
       <use xlink:href="#DejaVuSans-2e" transform="translate(63.623047 0)"/>
       <use xlink:href="#DejaVuSans-30" transform="translate(95.410156 0)"/>
      </g>
     </g>
    </g>
    <g id="ytick_17">
     <g id="line2d_45">
      <g>
       <use xlink:href="#md1c85ddc06" x="30.103125" y="384.355409" style="stroke: #000000; stroke-width: 0.8"/>
      </g>
     </g>
     <g id="text_48">
      <!-- 1.5 -->
      <g transform="translate(7.2 388.154627) scale(0.1 -0.1)">
       <use xlink:href="#DejaVuSans-31"/>
       <use xlink:href="#DejaVuSans-2e" transform="translate(63.623047 0)"/>
       <use xlink:href="#DejaVuSans-35" transform="translate(95.410156 0)"/>
      </g>
     </g>
    </g>
    <g id="ytick_18">
     <g id="line2d_46">
      <g>
       <use xlink:href="#md1c85ddc06" x="30.103125" y="358.516531" style="stroke: #000000; stroke-width: 0.8"/>
      </g>
     </g>
     <g id="text_49">
      <!-- 2.0 -->
      <g transform="translate(7.2 362.315749) scale(0.1 -0.1)">
       <use xlink:href="#DejaVuSans-32"/>
       <use xlink:href="#DejaVuSans-2e" transform="translate(63.623047 0)"/>
       <use xlink:href="#DejaVuSans-30" transform="translate(95.410156 0)"/>
      </g>
     </g>
    </g>
    <g id="ytick_19">
     <g id="line2d_47">
      <g>
       <use xlink:href="#md1c85ddc06" x="30.103125" y="332.677652" style="stroke: #000000; stroke-width: 0.8"/>
      </g>
     </g>
     <g id="text_50">
      <!-- 2.5 -->
      <g transform="translate(7.2 336.476871) scale(0.1 -0.1)">
       <use xlink:href="#DejaVuSans-32"/>
       <use xlink:href="#DejaVuSans-2e" transform="translate(63.623047 0)"/>
       <use xlink:href="#DejaVuSans-35" transform="translate(95.410156 0)"/>
      </g>
     </g>
    </g>
    <g id="ytick_20">
     <g id="line2d_48">
      <g>
       <use xlink:href="#md1c85ddc06" x="30.103125" y="306.838774" style="stroke: #000000; stroke-width: 0.8"/>
      </g>
     </g>
     <g id="text_51">
      <!-- 3.0 -->
      <g transform="translate(7.2 310.637993) scale(0.1 -0.1)">
       <use xlink:href="#DejaVuSans-33"/>
       <use xlink:href="#DejaVuSans-2e" transform="translate(63.623047 0)"/>
       <use xlink:href="#DejaVuSans-30" transform="translate(95.410156 0)"/>
      </g>
     </g>
    </g>
    <g id="ytick_21">
     <g id="line2d_49">
      <g>
       <use xlink:href="#md1c85ddc06" x="30.103125" y="280.999896" style="stroke: #000000; stroke-width: 0.8"/>
      </g>
     </g>
     <g id="text_52">
      <!-- 3.5 -->
      <g transform="translate(7.2 284.799115) scale(0.1 -0.1)">
       <use xlink:href="#DejaVuSans-33"/>
       <use xlink:href="#DejaVuSans-2e" transform="translate(63.623047 0)"/>
       <use xlink:href="#DejaVuSans-35" transform="translate(95.410156 0)"/>
      </g>
     </g>
    </g>
   </g>
   <g id="line2d_50">
    <path d="M 41.339496 375.357015 
L 44.906598 388.65716 
L 48.4737 404.083532 
L 52.040801 405.577466 
L 55.607903 386.221105 
L 59.175005 355.474818 
L 62.742107 331.047292 
L 66.309209 336.856758 
L 69.876311 377.748228 
L 73.443413 419.63734 
L 77.010515 440.78653 
L 80.577616 435.022204 
L 84.144718 407.703919 
L 87.71182 369.013828 
L 91.278922 324.185251 
L 94.846024 286.136495 
L 98.413126 295.020465 
L 101.980228 356.216734 
L 105.547329 411.014599 
L 109.114431 434.83657 
L 112.681533 434.130875 
L 116.248635 417.69751 
L 119.815737 396.298877 
L 123.382839 388.983141 
L 126.949941 395.923488 
L 130.517043 403.020934 
L 134.084144 403.308728 
L 137.651246 397.492498 
L 141.218348 393.30891 
L 144.78545 399.233778 
L 148.352552 408.430169 
L 151.919654 413.293886 
L 155.486756 414.518032 
L 159.053857 415.494019 
L 162.620959 420.919623 
L 166.188061 427.474657 
L 169.755163 424.315151 
L 173.322265 412.683852 
L 176.889367 401.191945 
L 180.456469 393.662768 
L 184.023571 393.591324 
L 187.590672 400.8868 
L 191.157774 410.34506 
L 194.724876 422.913745 
L 198.291978 432.01044 
L 201.85908 426.094156 
L 205.426182 408.29181 
L 208.993284 393.361522 
L 212.560385 395.82583 
L 216.127487 410.73712 
L 219.694589 422.667911 
L 223.261691 424.091961 
L 226.828793 417.62057 
L 230.395895 408.908759 
L 233.962997 399.72744 
L 237.530099 393.283075 
L 241.0972 393.677665 
L 244.664302 395.427806 
L 248.231404 396.683539 
L 251.798506 399.541417 
L 255.365608 407.483126 
L 258.93271 415.819981 
L 262.499812 413.621753 
L 266.066914 409.479601 
" clip-path="url(#p17dc3df6d9)" style="fill: none; stroke: #008adc; stroke-width: 3.5; stroke-linecap: square"/>
   </g>
   <g id="line2d_51">
    <path d="M 64.168948 457.099062 
L 64.168948 278.403993 
" clip-path="url(#p17dc3df6d9)" style="fill: none; stroke: #808080; stroke-opacity: 0.7; stroke-width: 1.5; stroke-linecap: square"/>
   </g>
   <g id="line2d_52">
    <path d="M 96.130181 457.099062 
L 96.130181 278.403993 
" clip-path="url(#p17dc3df6d9)" style="fill: none; stroke: #808080; stroke-opacity: 0.7; stroke-width: 1.5; stroke-linecap: square"/>
   </g>
   <g id="line2d_53">
    <path d="M 146.354975 457.099062 
L 146.354975 278.403993 
" clip-path="url(#p17dc3df6d9)" style="fill: none; stroke: #808080; stroke-opacity: 0.7; stroke-width: 1.5; stroke-linecap: square"/>
   </g>
   <g id="line2d_54">
    <path d="M 223.975111 457.099062 
L 223.975111 278.403993 
" clip-path="url(#p17dc3df6d9)" style="fill: none; stroke: #808080; stroke-opacity: 0.7; stroke-width: 1.5; stroke-linecap: square"/>
   </g>
   <g id="patch_13">
    <path d="M 30.103125 457.099062 
L 30.103125 278.403993 
" style="fill: none; stroke: #000000; stroke-width: 0.8; stroke-linejoin: miter; stroke-linecap: square"/>
   </g>
   <g id="patch_14">
    <path d="M 277.303284 457.099062 
L 277.303284 278.403993 
" style="fill: none; stroke: #000000; stroke-width: 0.8; stroke-linejoin: miter; stroke-linecap: square"/>
   </g>
   <g id="patch_15">
    <path d="M 30.103125 457.099062 
L 277.303284 457.099062 
" style="fill: none; stroke: #000000; stroke-width: 0.8; stroke-linejoin: miter; stroke-linecap: square"/>
   </g>
   <g id="patch_16">
    <path d="M 30.103125 278.403993 
L 277.303284 278.403993 
" style="fill: none; stroke: #000000; stroke-width: 0.8; stroke-linejoin: miter; stroke-linecap: square"/>
   </g>
   <g id="text_53">
    <!-- R1 -->
    <g transform="translate(56.182385 274.121417) scale(0.12 -0.12)">
     <use xlink:href="#DejaVuSans-52"/>
     <use xlink:href="#DejaVuSans-31" transform="translate(69.482422 0)"/>
    </g>
   </g>
   <g id="text_54">
    <!-- R2 -->
    <g transform="translate(88.143618 274.121417) scale(0.12 -0.12)">
     <use xlink:href="#DejaVuSans-52"/>
     <use xlink:href="#DejaVuSans-32" transform="translate(69.482422 0)"/>
    </g>
   </g>
   <g id="text_55">
    <!-- R3 -->
    <g transform="translate(138.368412 274.121417) scale(0.12 -0.12)">
     <use xlink:href="#DejaVuSans-52"/>
     <use xlink:href="#DejaVuSans-33" transform="translate(69.482422 0)"/>
    </g>
   </g>
   <g id="text_56">
    <!-- R4 -->
    <g transform="translate(215.988549 274.121417) scale(0.12 -0.12)">
     <use xlink:href="#DejaVuSans-52"/>
     <use xlink:href="#DejaVuSans-34" transform="translate(69.482422 0)"/>
    </g>
   </g>
   <g id="text_57">
    <!-- (FC) int=75_dB | pres=Binaural -->
    <g transform="translate(43.644611 260.403993) scale(0.14 -0.14)">
     <defs>
      <path id="DejaVuSans-37" d="M 525 4666 
L 3525 4666 
L 3525 4397 
L 1831 0 
L 1172 0 
L 2766 4134 
L 525 4134 
L 525 4666 
z
" transform="scale(0.015625)"/>
     </defs>
     <use xlink:href="#DejaVuSans-28"/>
     <use xlink:href="#DejaVuSans-46" transform="translate(39.013672 0)"/>
     <use xlink:href="#DejaVuSans-43" transform="translate(96.533203 0)"/>
     <use xlink:href="#DejaVuSans-29" transform="translate(166.357422 0)"/>
     <use xlink:href="#DejaVuSans-20" transform="translate(205.371094 0)"/>
     <use xlink:href="#DejaVuSans-69" transform="translate(237.158203 0)"/>
     <use xlink:href="#DejaVuSans-6e" transform="translate(264.941406 0)"/>
     <use xlink:href="#DejaVuSans-74" transform="translate(328.320312 0)"/>
     <use xlink:href="#DejaVuSans-3d" transform="translate(367.529297 0)"/>
     <use xlink:href="#DejaVuSans-37" transform="translate(451.318359 0)"/>
     <use xlink:href="#DejaVuSans-35" transform="translate(514.941406 0)"/>
     <use xlink:href="#DejaVuSans-5f" transform="translate(578.564453 0)"/>
     <use xlink:href="#DejaVuSans-64" transform="translate(628.564453 0)"/>
     <use xlink:href="#DejaVuSans-42" transform="translate(692.041016 0)"/>
     <use xlink:href="#DejaVuSans-20" transform="translate(760.644531 0)"/>
     <use xlink:href="#DejaVuSans-7c" transform="translate(792.431641 0)"/>
     <use xlink:href="#DejaVuSans-20" transform="translate(826.123047 0)"/>
     <use xlink:href="#DejaVuSans-70" transform="translate(857.910156 0)"/>
     <use xlink:href="#DejaVuSans-72" transform="translate(921.386719 0)"/>
     <use xlink:href="#DejaVuSans-65" transform="translate(960.25 0)"/>
     <use xlink:href="#DejaVuSans-73" transform="translate(1021.773438 0)"/>
     <use xlink:href="#DejaVuSans-3d" transform="translate(1073.873047 0)"/>
     <use xlink:href="#DejaVuSans-42" transform="translate(1157.662109 0)"/>
     <use xlink:href="#DejaVuSans-69" transform="translate(1226.265625 0)"/>
     <use xlink:href="#DejaVuSans-6e" transform="translate(1254.048828 0)"/>
     <use xlink:href="#DejaVuSans-61" transform="translate(1317.427734 0)"/>
     <use xlink:href="#DejaVuSans-75" transform="translate(1378.707031 0)"/>
     <use xlink:href="#DejaVuSans-72" transform="translate(1442.085938 0)"/>
     <use xlink:href="#DejaVuSans-61" transform="translate(1483.199219 0)"/>
     <use xlink:href="#DejaVuSans-6c" transform="translate(1544.478516 0)"/>
    </g>
   </g>
  </g>
  <g id="axes_4">
   <g id="patch_17">
    <path d="M 312.703125 457.099062 
L 559.903284 457.099062 
L 559.903284 278.403993 
L 312.703125 278.403993 
z
" style="fill: #ffffff"/>
   </g>
   <g id="matplotlib.axis_7">
    <g id="xtick_19">
     <g id="line2d_55">
      <g>
       <use xlink:href="#m6fa3a4ab34" x="323.939496" y="457.099062" style="stroke: #000000; stroke-width: 0.8"/>
      </g>
     </g>
     <g id="text_58">
      <!-- 0.0 -->
      <g transform="translate(315.987933 471.6975) scale(0.1 -0.1)">
       <use xlink:href="#DejaVuSans-30"/>
       <use xlink:href="#DejaVuSans-2e" transform="translate(63.623047 0)"/>
       <use xlink:href="#DejaVuSans-30" transform="translate(95.410156 0)"/>
      </g>
     </g>
    </g>
    <g id="xtick_20">
     <g id="line2d_56">
      <g>
       <use xlink:href="#m6fa3a4ab34" x="369.5984" y="457.099062" style="stroke: #000000; stroke-width: 0.8"/>
      </g>
     </g>
     <g id="text_59">
      <!-- 0.1 -->
      <g transform="translate(361.646837 471.6975) scale(0.1 -0.1)">
       <use xlink:href="#DejaVuSans-30"/>
       <use xlink:href="#DejaVuSans-2e" transform="translate(63.623047 0)"/>
       <use xlink:href="#DejaVuSans-31" transform="translate(95.410156 0)"/>
      </g>
     </g>
    </g>
    <g id="xtick_21">
     <g id="line2d_57">
      <g>
       <use xlink:href="#m6fa3a4ab34" x="415.257304" y="457.099062" style="stroke: #000000; stroke-width: 0.8"/>
      </g>
     </g>
     <g id="text_60">
      <!-- 0.2 -->
      <g transform="translate(407.305741 471.6975) scale(0.1 -0.1)">
       <use xlink:href="#DejaVuSans-30"/>
       <use xlink:href="#DejaVuSans-2e" transform="translate(63.623047 0)"/>
       <use xlink:href="#DejaVuSans-32" transform="translate(95.410156 0)"/>
      </g>
     </g>
    </g>
    <g id="xtick_22">
     <g id="line2d_58">
      <g>
       <use xlink:href="#m6fa3a4ab34" x="460.916208" y="457.099062" style="stroke: #000000; stroke-width: 0.8"/>
      </g>
     </g>
     <g id="text_61">
      <!-- 0.3 -->
      <g transform="translate(452.964645 471.6975) scale(0.1 -0.1)">
       <use xlink:href="#DejaVuSans-30"/>
       <use xlink:href="#DejaVuSans-2e" transform="translate(63.623047 0)"/>
       <use xlink:href="#DejaVuSans-33" transform="translate(95.410156 0)"/>
      </g>
     </g>
    </g>
    <g id="xtick_23">
     <g id="line2d_59">
      <g>
       <use xlink:href="#m6fa3a4ab34" x="506.575111" y="457.099062" style="stroke: #000000; stroke-width: 0.8"/>
      </g>
     </g>
     <g id="text_62">
      <!-- 0.4 -->
      <g transform="translate(498.623549 471.6975) scale(0.1 -0.1)">
       <use xlink:href="#DejaVuSans-30"/>
       <use xlink:href="#DejaVuSans-2e" transform="translate(63.623047 0)"/>
       <use xlink:href="#DejaVuSans-34" transform="translate(95.410156 0)"/>
      </g>
     </g>
    </g>
    <g id="xtick_24">
     <g id="line2d_60">
      <g>
       <use xlink:href="#m6fa3a4ab34" x="552.234015" y="457.099062" style="stroke: #000000; stroke-width: 0.8"/>
      </g>
     </g>
     <g id="text_63">
      <!-- 0.5 -->
      <g transform="translate(544.282453 471.6975) scale(0.1 -0.1)">
       <use xlink:href="#DejaVuSans-30"/>
       <use xlink:href="#DejaVuSans-2e" transform="translate(63.623047 0)"/>
       <use xlink:href="#DejaVuSans-35" transform="translate(95.410156 0)"/>
      </g>
     </g>
    </g>
    <g id="text_64">
     <!-- Time (s) -->
     <g transform="translate(407.842736 488.415) scale(0.14 -0.14)">
      <use xlink:href="#DejaVuSans-54"/>
      <use xlink:href="#DejaVuSans-69" transform="translate(57.958984 0)"/>
      <use xlink:href="#DejaVuSans-6d" transform="translate(85.742188 0)"/>
      <use xlink:href="#DejaVuSans-65" transform="translate(183.154297 0)"/>
      <use xlink:href="#DejaVuSans-20" transform="translate(244.677734 0)"/>
      <use xlink:href="#DejaVuSans-28" transform="translate(276.464844 0)"/>
      <use xlink:href="#DejaVuSans-73" transform="translate(315.478516 0)"/>
      <use xlink:href="#DejaVuSans-29" transform="translate(367.578125 0)"/>
     </g>
    </g>
   </g>
   <g id="matplotlib.axis_8">
    <g id="ytick_22">
     <g id="line2d_61">
      <g>
       <use xlink:href="#md1c85ddc06" x="312.703125" y="436.033165" style="stroke: #000000; stroke-width: 0.8"/>
      </g>
     </g>
     <g id="text_65">
      <!-- 0.5 -->
      <g transform="translate(289.8 439.832384) scale(0.1 -0.1)">
       <use xlink:href="#DejaVuSans-30"/>
       <use xlink:href="#DejaVuSans-2e" transform="translate(63.623047 0)"/>
       <use xlink:href="#DejaVuSans-35" transform="translate(95.410156 0)"/>
      </g>
     </g>
    </g>
    <g id="ytick_23">
     <g id="line2d_62">
      <g>
       <use xlink:href="#md1c85ddc06" x="312.703125" y="410.194287" style="stroke: #000000; stroke-width: 0.8"/>
      </g>
     </g>
     <g id="text_66">
      <!-- 1.0 -->
      <g transform="translate(289.8 413.993506) scale(0.1 -0.1)">
       <use xlink:href="#DejaVuSans-31"/>
       <use xlink:href="#DejaVuSans-2e" transform="translate(63.623047 0)"/>
       <use xlink:href="#DejaVuSans-30" transform="translate(95.410156 0)"/>
      </g>
     </g>
    </g>
    <g id="ytick_24">
     <g id="line2d_63">
      <g>
       <use xlink:href="#md1c85ddc06" x="312.703125" y="384.355409" style="stroke: #000000; stroke-width: 0.8"/>
      </g>
     </g>
     <g id="text_67">
      <!-- 1.5 -->
      <g transform="translate(289.8 388.154627) scale(0.1 -0.1)">
       <use xlink:href="#DejaVuSans-31"/>
       <use xlink:href="#DejaVuSans-2e" transform="translate(63.623047 0)"/>
       <use xlink:href="#DejaVuSans-35" transform="translate(95.410156 0)"/>
      </g>
     </g>
    </g>
    <g id="ytick_25">
     <g id="line2d_64">
      <g>
       <use xlink:href="#md1c85ddc06" x="312.703125" y="358.516531" style="stroke: #000000; stroke-width: 0.8"/>
      </g>
     </g>
     <g id="text_68">
      <!-- 2.0 -->
      <g transform="translate(289.8 362.315749) scale(0.1 -0.1)">
       <use xlink:href="#DejaVuSans-32"/>
       <use xlink:href="#DejaVuSans-2e" transform="translate(63.623047 0)"/>
       <use xlink:href="#DejaVuSans-30" transform="translate(95.410156 0)"/>
      </g>
     </g>
    </g>
    <g id="ytick_26">
     <g id="line2d_65">
      <g>
       <use xlink:href="#md1c85ddc06" x="312.703125" y="332.677652" style="stroke: #000000; stroke-width: 0.8"/>
      </g>
     </g>
     <g id="text_69">
      <!-- 2.5 -->
      <g transform="translate(289.8 336.476871) scale(0.1 -0.1)">
       <use xlink:href="#DejaVuSans-32"/>
       <use xlink:href="#DejaVuSans-2e" transform="translate(63.623047 0)"/>
       <use xlink:href="#DejaVuSans-35" transform="translate(95.410156 0)"/>
      </g>
     </g>
    </g>
    <g id="ytick_27">
     <g id="line2d_66">
      <g>
       <use xlink:href="#md1c85ddc06" x="312.703125" y="306.838774" style="stroke: #000000; stroke-width: 0.8"/>
      </g>
     </g>
     <g id="text_70">
      <!-- 3.0 -->
      <g transform="translate(289.8 310.637993) scale(0.1 -0.1)">
       <use xlink:href="#DejaVuSans-33"/>
       <use xlink:href="#DejaVuSans-2e" transform="translate(63.623047 0)"/>
       <use xlink:href="#DejaVuSans-30" transform="translate(95.410156 0)"/>
      </g>
     </g>
    </g>
    <g id="ytick_28">
     <g id="line2d_67">
      <g>
       <use xlink:href="#md1c85ddc06" x="312.703125" y="280.999896" style="stroke: #000000; stroke-width: 0.8"/>
      </g>
     </g>
     <g id="text_71">
      <!-- 3.5 -->
      <g transform="translate(289.8 284.799115) scale(0.1 -0.1)">
       <use xlink:href="#DejaVuSans-33"/>
       <use xlink:href="#DejaVuSans-2e" transform="translate(63.623047 0)"/>
       <use xlink:href="#DejaVuSans-35" transform="translate(95.410156 0)"/>
      </g>
     </g>
    </g>
   </g>
   <g id="line2d_68">
    <path d="M 323.939496 418.564907 
L 327.506598 419.89339 
L 331.0737 412.016478 
L 334.640801 401.316549 
L 338.207903 393.746612 
L 341.775005 391.179861 
L 345.342107 391.245504 
L 348.909209 393.408882 
L 352.476311 395.021447 
L 356.043413 390.405111 
L 359.610515 382.032641 
L 363.177616 372.72739 
L 366.744718 359.099603 
L 370.31182 341.972135 
L 373.878922 322.936802 
L 377.446024 303.58728 
L 381.013126 288.040325 
L 384.580228 294.198873 
L 388.147329 331.545076 
L 391.714431 369.780708 
L 395.281533 396.333554 
L 398.848635 412.634403 
L 402.415737 420.291087 
L 405.982839 418.952344 
L 409.549941 412.80276 
L 413.117043 411.269672 
L 416.684144 414.061501 
L 420.251246 409.677203 
L 423.818348 386.776616 
L 427.38545 351.779422 
L 430.952552 342.201899 
L 434.519654 366.170265 
L 438.086756 392.051922 
L 441.653857 407.488906 
L 445.220959 407.830782 
L 448.788061 399.491417 
L 452.355163 397.953377 
L 455.922265 408.682771 
L 459.489367 421.704237 
L 463.056469 429.787764 
L 466.623571 431.522666 
L 470.190672 428.978557 
L 473.757774 426.445335 
L 477.324876 424.663681 
L 480.891978 422.700342 
L 484.45908 418.770531 
L 488.026182 412.592622 
L 491.593284 416.753465 
L 495.160385 421.967947 
L 498.727487 420.220984 
L 502.294589 414.870453 
L 505.861691 411.888153 
L 509.428793 414.673099 
L 512.995895 420.862673 
L 516.562997 426.917346 
L 520.130099 429.232223 
L 523.6972 421.887236 
L 527.264302 405.9121 
L 530.831404 388.227788 
L 534.398506 377.352998 
L 537.965608 377.606242 
L 541.53271 383.919836 
L 545.099812 389.706169 
L 548.666914 395.616572 
" clip-path="url(#p6a026c0a45)" style="fill: none; stroke: #008adc; stroke-width: 3.5; stroke-linecap: square"/>
   </g>
   <g id="line2d_69">
    <path d="M 346.768948 457.099062 
L 346.768948 278.403993 
" clip-path="url(#p6a026c0a45)" style="fill: none; stroke: #808080; stroke-opacity: 0.7; stroke-width: 1.5; stroke-linecap: square"/>
   </g>
   <g id="line2d_70">
    <path d="M 378.730181 457.099062 
L 378.730181 278.403993 
" clip-path="url(#p6a026c0a45)" style="fill: none; stroke: #808080; stroke-opacity: 0.7; stroke-width: 1.5; stroke-linecap: square"/>
   </g>
   <g id="line2d_71">
    <path d="M 428.954975 457.099062 
L 428.954975 278.403993 
" clip-path="url(#p6a026c0a45)" style="fill: none; stroke: #808080; stroke-opacity: 0.7; stroke-width: 1.5; stroke-linecap: square"/>
   </g>
   <g id="line2d_72">
    <path d="M 506.575111 457.099062 
L 506.575111 278.403993 
" clip-path="url(#p6a026c0a45)" style="fill: none; stroke: #808080; stroke-opacity: 0.7; stroke-width: 1.5; stroke-linecap: square"/>
   </g>
   <g id="patch_18">
    <path d="M 312.703125 457.099062 
L 312.703125 278.403993 
" style="fill: none; stroke: #000000; stroke-width: 0.8; stroke-linejoin: miter; stroke-linecap: square"/>
   </g>
   <g id="patch_19">
    <path d="M 559.903284 457.099062 
L 559.903284 278.403993 
" style="fill: none; stroke: #000000; stroke-width: 0.8; stroke-linejoin: miter; stroke-linecap: square"/>
   </g>
   <g id="patch_20">
    <path d="M 312.703125 457.099062 
L 559.903284 457.099062 
" style="fill: none; stroke: #000000; stroke-width: 0.8; stroke-linejoin: miter; stroke-linecap: square"/>
   </g>
   <g id="patch_21">
    <path d="M 312.703125 278.403993 
L 559.903284 278.403993 
" style="fill: none; stroke: #000000; stroke-width: 0.8; stroke-linejoin: miter; stroke-linecap: square"/>
   </g>
   <g id="text_72">
    <!-- R1 -->
    <g transform="translate(338.782385 274.121417) scale(0.12 -0.12)">
     <use xlink:href="#DejaVuSans-52"/>
     <use xlink:href="#DejaVuSans-31" transform="translate(69.482422 0)"/>
    </g>
   </g>
   <g id="text_73">
    <!-- R2 -->
    <g transform="translate(370.743618 274.121417) scale(0.12 -0.12)">
     <use xlink:href="#DejaVuSans-52"/>
     <use xlink:href="#DejaVuSans-32" transform="translate(69.482422 0)"/>
    </g>
   </g>
   <g id="text_74">
    <!-- R3 -->
    <g transform="translate(420.968412 274.121417) scale(0.12 -0.12)">
     <use xlink:href="#DejaVuSans-52"/>
     <use xlink:href="#DejaVuSans-33" transform="translate(69.482422 0)"/>
    </g>
   </g>
   <g id="text_75">
    <!-- R4 -->
    <g transform="translate(498.588549 274.121417) scale(0.12 -0.12)">
     <use xlink:href="#DejaVuSans-52"/>
     <use xlink:href="#DejaVuSans-34" transform="translate(69.482422 0)"/>
    </g>
   </g>
   <g id="text_76">
    <!-- (FC) int=75_dB | pres=Monaural -->
    <g transform="translate(322.669142 260.403993) scale(0.14 -0.14)">
     <use xlink:href="#DejaVuSans-28"/>
     <use xlink:href="#DejaVuSans-46" transform="translate(39.013672 0)"/>
     <use xlink:href="#DejaVuSans-43" transform="translate(96.533203 0)"/>
     <use xlink:href="#DejaVuSans-29" transform="translate(166.357422 0)"/>
     <use xlink:href="#DejaVuSans-20" transform="translate(205.371094 0)"/>
     <use xlink:href="#DejaVuSans-69" transform="translate(237.158203 0)"/>
     <use xlink:href="#DejaVuSans-6e" transform="translate(264.941406 0)"/>
     <use xlink:href="#DejaVuSans-74" transform="translate(328.320312 0)"/>
     <use xlink:href="#DejaVuSans-3d" transform="translate(367.529297 0)"/>
     <use xlink:href="#DejaVuSans-37" transform="translate(451.318359 0)"/>
     <use xlink:href="#DejaVuSans-35" transform="translate(514.941406 0)"/>
     <use xlink:href="#DejaVuSans-5f" transform="translate(578.564453 0)"/>
     <use xlink:href="#DejaVuSans-64" transform="translate(628.564453 0)"/>
     <use xlink:href="#DejaVuSans-42" transform="translate(692.041016 0)"/>
     <use xlink:href="#DejaVuSans-20" transform="translate(760.644531 0)"/>
     <use xlink:href="#DejaVuSans-7c" transform="translate(792.431641 0)"/>
     <use xlink:href="#DejaVuSans-20" transform="translate(826.123047 0)"/>
     <use xlink:href="#DejaVuSans-70" transform="translate(857.910156 0)"/>
     <use xlink:href="#DejaVuSans-72" transform="translate(921.386719 0)"/>
     <use xlink:href="#DejaVuSans-65" transform="translate(960.25 0)"/>
     <use xlink:href="#DejaVuSans-73" transform="translate(1021.773438 0)"/>
     <use xlink:href="#DejaVuSans-3d" transform="translate(1073.873047 0)"/>
     <use xlink:href="#DejaVuSans-4d" transform="translate(1157.662109 0)"/>
     <use xlink:href="#DejaVuSans-6f" transform="translate(1243.941406 0)"/>
     <use xlink:href="#DejaVuSans-6e" transform="translate(1305.123047 0)"/>
     <use xlink:href="#DejaVuSans-61" transform="translate(1368.501953 0)"/>
     <use xlink:href="#DejaVuSans-75" transform="translate(1429.78125 0)"/>
     <use xlink:href="#DejaVuSans-72" transform="translate(1493.160156 0)"/>
     <use xlink:href="#DejaVuSans-61" transform="translate(1534.273438 0)"/>
     <use xlink:href="#DejaVuSans-6c" transform="translate(1595.552734 0)"/>
    </g>
   </g>
  </g>
  <g id="legend_1">
   <g id="line2d_73">
    <path d="M 244.796875 592.2075 
L 258.796875 592.2075 
L 272.796875 592.2075 
" style="fill: none; stroke: #008adc; stroke-width: 3.5; stroke-linecap: square"/>
   </g>
   <g id="text_77">
    <!-- F-stat -->
    <g transform="translate(283.996875 597.1075) scale(0.14 -0.14)">
     <defs>
      <path id="DejaVuSans-2d" d="M 313 2009 
L 1997 2009 
L 1997 1497 
L 313 1497 
L 313 2009 
z
" transform="scale(0.015625)"/>
     </defs>
     <use xlink:href="#DejaVuSans-46"/>
     <use xlink:href="#DejaVuSans-2d" transform="translate(57.519531 0)"/>
     <use xlink:href="#DejaVuSans-73" transform="translate(93.603516 0)"/>
     <use xlink:href="#DejaVuSans-74" transform="translate(145.703125 0)"/>
     <use xlink:href="#DejaVuSans-61" transform="translate(184.912109 0)"/>
     <use xlink:href="#DejaVuSans-74" transform="translate(246.191406 0)"/>
    </g>
   </g>
  </g>
 </g>
 <defs>
  <clipPath id="pcef306414a">
   <rect x="30.103125" y="35.899062" width="247.200159" height="178.69507"/>
  </clipPath>
  <clipPath id="p9e62d3903b">
   <rect x="312.703125" y="35.899062" width="247.200159" height="178.69507"/>
  </clipPath>
  <clipPath id="p17dc3df6d9">
   <rect x="30.103125" y="278.403993" width="247.200159" height="178.69507"/>
  </clipPath>
  <clipPath id="p6a026c0a45">
   <rect x="312.703125" y="278.403993" width="247.200159" height="178.69507"/>
  </clipPath>
 </defs>
</svg>
