<?xml version="1.0" encoding="utf-8" standalone="no"?>
<!DOCTYPE svg PUBLIC "-//W3C//DTD SVG 1.1//EN"
  "http://www.w3.org/Graphics/SVG/1.1/DTD/svg11.dtd">
<svg xmlns:xlink="http://www.w3.org/1999/xlink" width="1143.009364pt" height="304.597812pt" viewBox="0 0 1143.009364 304.597812" xmlns="http://www.w3.org/2000/svg" version="1.1">
 <metadata>
  <rdf:RDF xmlns:dc="http://purl.org/dc/elements/1.1/" xmlns:cc="http://creativecommons.org/ns#" xmlns:rdf="http://www.w3.org/1999/02/22-rdf-syntax-ns#">
   <cc:Work>
    <dc:type rdf:resource="http://purl.org/dc/dcmitype/StillImage"/>
    <dc:date>2025-12-15T16:49:13.711233</dc:date>
    <dc:format>image/svg+xml</dc:format>
    <dc:creator>
     <cc:Agent>
      <dc:title>Matplotlib v3.10.6, https://matplotlib.org/</dc:title>
     </cc:Agent>
    </dc:creator>
   </cc:Work>
  </rdf:RDF>
 </metadata>
 <defs>
  <style type="text/css">*{stroke-linejoin: round; stroke-linecap: butt}</style>
 </defs>
 <g id="figure_1">
  <g id="patch_1">
   <path d="M 0 304.597812 
L 1143.009364 304.597812 
L 1143.009364 0 
L 0 0 
z
" style="fill: #ffffff"/>
  </g>
  <g id="axes_1">
   <g id="patch_2">
    <path d="M 28.942187 226.637812 
L 279.738644 226.637812 
L 279.738644 23.837812 
L 28.942187 23.837812 
z
" style="fill: #ffffff"/>
   </g>
   <g id="matplotlib.axis_1">
    <g id="xtick_1">
     <g id="line2d_1">
      <defs>
       <path id="m9cc1ff890c" d="M 0 0 
L 0 3.5 
" style="stroke: #000000; stroke-width: 0.8"/>
      </defs>
      <g>
       <use xlink:href="#m9cc1ff890c" x="40.342026" y="226.637812" style="stroke: #000000; stroke-width: 0.8"/>
      </g>
     </g>
     <g id="text_1">
      <!-- 0.0 -->
      <g transform="translate(32.390464 241.23625) scale(0.1 -0.1)">
       <defs>
        <path id="DejaVuSans-30" d="M 2034 4250 
Q 1547 4250 1301 3770 
Q 1056 3291 1056 2328 
Q 1056 1369 1301 889 
Q 1547 409 2034 409 
Q 2525 409 2770 889 
Q 3016 1369 3016 2328 
Q 3016 3291 2770 3770 
Q 2525 4250 2034 4250 
z
M 2034 4750 
Q 2819 4750 3233 4129 
Q 3647 3509 3647 2328 
Q 3647 1150 3233 529 
Q 2819 -91 2034 -91 
Q 1250 -91 836 529 
Q 422 1150 422 2328 
Q 422 3509 836 4129 
Q 1250 4750 2034 4750 
z
" transform="scale(0.015625)"/>
        <path id="DejaVuSans-2e" d="M 684 794 
L 1344 794 
L 1344 0 
L 684 0 
L 684 794 
z
" transform="scale(0.015625)"/>
       </defs>
       <use xlink:href="#DejaVuSans-30"/>
       <use xlink:href="#DejaVuSans-2e" transform="translate(63.623047 0)"/>
       <use xlink:href="#DejaVuSans-30" transform="translate(95.410156 0)"/>
      </g>
     </g>
    </g>
    <g id="xtick_2">
     <g id="line2d_2">
      <g>
       <use xlink:href="#m9cc1ff890c" x="86.665182" y="226.637812" style="stroke: #000000; stroke-width: 0.8"/>
      </g>
     </g>
     <g id="text_2">
      <!-- 0.1 -->
      <g transform="translate(78.713619 241.23625) scale(0.1 -0.1)">
       <defs>
        <path id="DejaVuSans-31" d="M 794 531 
L 1825 531 
L 1825 4091 
L 703 3866 
L 703 4441 
L 1819 4666 
L 2450 4666 
L 2450 531 
L 3481 531 
L 3481 0 
L 794 0 
L 794 531 
z
" transform="scale(0.015625)"/>
       </defs>
       <use xlink:href="#DejaVuSans-30"/>
       <use xlink:href="#DejaVuSans-2e" transform="translate(63.623047 0)"/>
       <use xlink:href="#DejaVuSans-31" transform="translate(95.410156 0)"/>
      </g>
     </g>
    </g>
    <g id="xtick_3">
     <g id="line2d_3">
      <g>
       <use xlink:href="#m9cc1ff890c" x="132.988337" y="226.637812" style="stroke: #000000; stroke-width: 0.8"/>
      </g>
     </g>
     <g id="text_3">
      <!-- 0.2 -->
      <g transform="translate(125.036774 241.23625) scale(0.1 -0.1)">
       <defs>
        <path id="DejaVuSans-32" d="M 1228 531 
L 3431 531 
L 3431 0 
L 469 0 
L 469 531 
Q 828 903 1448 1529 
Q 2069 2156 2228 2338 
Q 2531 2678 2651 2914 
Q 2772 3150 2772 3378 
Q 2772 3750 2511 3984 
Q 2250 4219 1831 4219 
Q 1534 4219 1204 4116 
Q 875 4013 500 3803 
L 500 4441 
Q 881 4594 1212 4672 
Q 1544 4750 1819 4750 
Q 2544 4750 2975 4387 
Q 3406 4025 3406 3419 
Q 3406 3131 3298 2873 
Q 3191 2616 2906 2266 
Q 2828 2175 2409 1742 
Q 1991 1309 1228 531 
z
" transform="scale(0.015625)"/>
       </defs>
       <use xlink:href="#DejaVuSans-30"/>
       <use xlink:href="#DejaVuSans-2e" transform="translate(63.623047 0)"/>
       <use xlink:href="#DejaVuSans-32" transform="translate(95.410156 0)"/>
      </g>
     </g>
    </g>
    <g id="xtick_4">
     <g id="line2d_4">
      <g>
       <use xlink:href="#m9cc1ff890c" x="179.311492" y="226.637812" style="stroke: #000000; stroke-width: 0.8"/>
      </g>
     </g>
     <g id="text_4">
      <!-- 0.3 -->
      <g transform="translate(171.359929 241.23625) scale(0.1 -0.1)">
       <defs>
        <path id="DejaVuSans-33" d="M 2597 2516 
Q 3050 2419 3304 2112 
Q 3559 1806 3559 1356 
Q 3559 666 3084 287 
Q 2609 -91 1734 -91 
Q 1441 -91 1130 -33 
Q 819 25 488 141 
L 488 750 
Q 750 597 1062 519 
Q 1375 441 1716 441 
Q 2309 441 2620 675 
Q 2931 909 2931 1356 
Q 2931 1769 2642 2001 
Q 2353 2234 1838 2234 
L 1294 2234 
L 1294 2753 
L 1863 2753 
Q 2328 2753 2575 2939 
Q 2822 3125 2822 3475 
Q 2822 3834 2567 4026 
Q 2313 4219 1838 4219 
Q 1578 4219 1281 4162 
Q 984 4106 628 3988 
L 628 4550 
Q 988 4650 1302 4700 
Q 1616 4750 1894 4750 
Q 2613 4750 3031 4423 
Q 3450 4097 3450 3541 
Q 3450 3153 3228 2886 
Q 3006 2619 2597 2516 
z
" transform="scale(0.015625)"/>
       </defs>
       <use xlink:href="#DejaVuSans-30"/>
       <use xlink:href="#DejaVuSans-2e" transform="translate(63.623047 0)"/>
       <use xlink:href="#DejaVuSans-33" transform="translate(95.410156 0)"/>
      </g>
     </g>
    </g>
    <g id="xtick_5">
     <g id="line2d_5">
      <g>
       <use xlink:href="#m9cc1ff890c" x="225.634647" y="226.637812" style="stroke: #000000; stroke-width: 0.8"/>
      </g>
     </g>
     <g id="text_5">
      <!-- 0.4 -->
      <g transform="translate(217.683084 241.23625) scale(0.1 -0.1)">
       <defs>
        <path id="DejaVuSans-34" d="M 2419 4116 
L 825 1625 
L 2419 1625 
L 2419 4116 
z
M 2253 4666 
L 3047 4666 
L 3047 1625 
L 3713 1625 
L 3713 1100 
L 3047 1100 
L 3047 0 
L 2419 0 
L 2419 1100 
L 313 1100 
L 313 1709 
L 2253 4666 
z
" transform="scale(0.015625)"/>
       </defs>
       <use xlink:href="#DejaVuSans-30"/>
       <use xlink:href="#DejaVuSans-2e" transform="translate(63.623047 0)"/>
       <use xlink:href="#DejaVuSans-34" transform="translate(95.410156 0)"/>
      </g>
     </g>
    </g>
    <g id="xtick_6">
     <g id="line2d_6">
      <g>
       <use xlink:href="#m9cc1ff890c" x="271.957802" y="226.637812" style="stroke: #000000; stroke-width: 0.8"/>
      </g>
     </g>
     <g id="text_6">
      <!-- 0.5 -->
      <g transform="translate(264.006239 241.23625) scale(0.1 -0.1)">
       <defs>
        <path id="DejaVuSans-35" d="M 691 4666 
L 3169 4666 
L 3169 4134 
L 1269 4134 
L 1269 2991 
Q 1406 3038 1543 3061 
Q 1681 3084 1819 3084 
Q 2600 3084 3056 2656 
Q 3513 2228 3513 1497 
Q 3513 744 3044 326 
Q 2575 -91 1722 -91 
Q 1428 -91 1123 -41 
Q 819 9 494 109 
L 494 744 
Q 775 591 1075 516 
Q 1375 441 1709 441 
Q 2250 441 2565 725 
Q 2881 1009 2881 1497 
Q 2881 1984 2565 2268 
Q 2250 2553 1709 2553 
Q 1456 2553 1204 2497 
Q 953 2441 691 2322 
L 691 4666 
z
" transform="scale(0.015625)"/>
       </defs>
       <use xlink:href="#DejaVuSans-30"/>
       <use xlink:href="#DejaVuSans-2e" transform="translate(63.623047 0)"/>
       <use xlink:href="#DejaVuSans-35" transform="translate(95.410156 0)"/>
      </g>
     </g>
    </g>
    <g id="text_7">
     <!-- Time (s) -->
     <g transform="translate(125.879947 257.95375) scale(0.14 -0.14)">
      <defs>
       <path id="DejaVuSans-54" d="M -19 4666 
L 3928 4666 
L 3928 4134 
L 2272 4134 
L 2272 0 
L 1638 0 
L 1638 4134 
L -19 4134 
L -19 4666 
z
" transform="scale(0.015625)"/>
       <path id="DejaVuSans-69" d="M 603 3500 
L 1178 3500 
L 1178 0 
L 603 0 
L 603 3500 
z
M 603 4863 
L 1178 4863 
L 1178 4134 
L 603 4134 
L 603 4863 
z
" transform="scale(0.015625)"/>
       <path id="DejaVuSans-6d" d="M 3328 2828 
Q 3544 3216 3844 3400 
Q 4144 3584 4550 3584 
Q 5097 3584 5394 3201 
Q 5691 2819 5691 2113 
L 5691 0 
L 5113 0 
L 5113 2094 
Q 5113 2597 4934 2840 
Q 4756 3084 4391 3084 
Q 3944 3084 3684 2787 
Q 3425 2491 3425 1978 
L 3425 0 
L 2847 0 
L 2847 2094 
Q 2847 2600 2669 2842 
Q 2491 3084 2119 3084 
Q 1678 3084 1418 2786 
Q 1159 2488 1159 1978 
L 1159 0 
L 581 0 
L 581 3500 
L 1159 3500 
L 1159 2956 
Q 1356 3278 1631 3431 
Q 1906 3584 2284 3584 
Q 2666 3584 2933 3390 
Q 3200 3197 3328 2828 
z
" transform="scale(0.015625)"/>
       <path id="DejaVuSans-65" d="M 3597 1894 
L 3597 1613 
L 953 1613 
Q 991 1019 1311 708 
Q 1631 397 2203 397 
Q 2534 397 2845 478 
Q 3156 559 3463 722 
L 3463 178 
Q 3153 47 2828 -22 
Q 2503 -91 2169 -91 
Q 1331 -91 842 396 
Q 353 884 353 1716 
Q 353 2575 817 3079 
Q 1281 3584 2069 3584 
Q 2775 3584 3186 3129 
Q 3597 2675 3597 1894 
z
M 3022 2063 
Q 3016 2534 2758 2815 
Q 2500 3097 2075 3097 
Q 1594 3097 1305 2825 
Q 1016 2553 972 2059 
L 3022 2063 
z
" transform="scale(0.015625)"/>
       <path id="DejaVuSans-20" transform="scale(0.015625)"/>
       <path id="DejaVuSans-28" d="M 1984 4856 
Q 1566 4138 1362 3434 
Q 1159 2731 1159 2009 
Q 1159 1288 1364 580 
Q 1569 -128 1984 -844 
L 1484 -844 
Q 1016 -109 783 600 
Q 550 1309 550 2009 
Q 550 2706 781 3412 
Q 1013 4119 1484 4856 
L 1984 4856 
z
" transform="scale(0.015625)"/>
       <path id="DejaVuSans-73" d="M 2834 3397 
L 2834 2853 
Q 2591 2978 2328 3040 
Q 2066 3103 1784 3103 
Q 1356 3103 1142 2972 
Q 928 2841 928 2578 
Q 928 2378 1081 2264 
Q 1234 2150 1697 2047 
L 1894 2003 
Q 2506 1872 2764 1633 
Q 3022 1394 3022 966 
Q 3022 478 2636 193 
Q 2250 -91 1575 -91 
Q 1294 -91 989 -36 
Q 684 19 347 128 
L 347 722 
Q 666 556 975 473 
Q 1284 391 1588 391 
Q 1994 391 2212 530 
Q 2431 669 2431 922 
Q 2431 1156 2273 1281 
Q 2116 1406 1581 1522 
L 1381 1569 
Q 847 1681 609 1914 
Q 372 2147 372 2553 
Q 372 3047 722 3315 
Q 1072 3584 1716 3584 
Q 2034 3584 2315 3537 
Q 2597 3491 2834 3397 
z
" transform="scale(0.015625)"/>
       <path id="DejaVuSans-29" d="M 513 4856 
L 1013 4856 
Q 1481 4119 1714 3412 
Q 1947 2706 1947 2009 
Q 1947 1309 1714 600 
Q 1481 -109 1013 -844 
L 513 -844 
Q 928 -128 1133 580 
Q 1338 1288 1338 2009 
Q 1338 2731 1133 3434 
Q 928 4138 513 4856 
z
" transform="scale(0.015625)"/>
      </defs>
      <use xlink:href="#DejaVuSans-54"/>
      <use xlink:href="#DejaVuSans-69" transform="translate(57.958984 0)"/>
      <use xlink:href="#DejaVuSans-6d" transform="translate(85.742188 0)"/>
      <use xlink:href="#DejaVuSans-65" transform="translate(183.154297 0)"/>
      <use xlink:href="#DejaVuSans-20" transform="translate(244.677734 0)"/>
      <use xlink:href="#DejaVuSans-28" transform="translate(276.464844 0)"/>
      <use xlink:href="#DejaVuSans-73" transform="translate(315.478516 0)"/>
      <use xlink:href="#DejaVuSans-29" transform="translate(367.578125 0)"/>
     </g>
    </g>
   </g>
   <g id="matplotlib.axis_2">
    <g id="ytick_1">
     <g id="line2d_7">
      <defs>
       <path id="me5dac6da23" d="M 0 0 
L -3.5 0 
" style="stroke: #000000; stroke-width: 0.8"/>
      </defs>
      <g>
       <use xlink:href="#me5dac6da23" x="28.942187" y="223.964521" style="stroke: #000000; stroke-width: 0.8"/>
      </g>
     </g>
     <g id="text_8">
      <!-- −3 -->
      <g transform="translate(7.2 227.76374) scale(0.1 -0.1)">
       <defs>
        <path id="DejaVuSans-2212" d="M 678 2272 
L 4684 2272 
L 4684 1741 
L 678 1741 
L 678 2272 
z
" transform="scale(0.015625)"/>
       </defs>
       <use xlink:href="#DejaVuSans-2212"/>
       <use xlink:href="#DejaVuSans-33" transform="translate(83.789062 0)"/>
      </g>
     </g>
    </g>
    <g id="ytick_2">
     <g id="line2d_8">
      <g>
       <use xlink:href="#me5dac6da23" x="28.942187" y="195.475782" style="stroke: #000000; stroke-width: 0.8"/>
      </g>
     </g>
     <g id="text_9">
      <!-- −2 -->
      <g transform="translate(7.2 199.275) scale(0.1 -0.1)">
       <use xlink:href="#DejaVuSans-2212"/>
       <use xlink:href="#DejaVuSans-32" transform="translate(83.789062 0)"/>
      </g>
     </g>
    </g>
    <g id="ytick_3">
     <g id="line2d_9">
      <g>
       <use xlink:href="#me5dac6da23" x="28.942187" y="166.987042" style="stroke: #000000; stroke-width: 0.8"/>
      </g>
     </g>
     <g id="text_10">
      <!-- −1 -->
      <g transform="translate(7.2 170.786261) scale(0.1 -0.1)">
       <use xlink:href="#DejaVuSans-2212"/>
       <use xlink:href="#DejaVuSans-31" transform="translate(83.789062 0)"/>
      </g>
     </g>
    </g>
    <g id="ytick_4">
     <g id="line2d_10">
      <g>
       <use xlink:href="#me5dac6da23" x="28.942187" y="138.498302" style="stroke: #000000; stroke-width: 0.8"/>
      </g>
     </g>
     <g id="text_11">
      <!-- 0 -->
      <g transform="translate(15.579687 142.297521) scale(0.1 -0.1)">
       <use xlink:href="#DejaVuSans-30"/>
      </g>
     </g>
    </g>
    <g id="ytick_5">
     <g id="line2d_11">
      <g>
       <use xlink:href="#me5dac6da23" x="28.942187" y="110.009563" style="stroke: #000000; stroke-width: 0.8"/>
      </g>
     </g>
     <g id="text_12">
      <!-- 1 -->
      <g transform="translate(15.579687 113.808781) scale(0.1 -0.1)">
       <use xlink:href="#DejaVuSans-31"/>
      </g>
     </g>
    </g>
    <g id="ytick_6">
     <g id="line2d_12">
      <g>
       <use xlink:href="#me5dac6da23" x="28.942187" y="81.520823" style="stroke: #000000; stroke-width: 0.8"/>
      </g>
     </g>
     <g id="text_13">
      <!-- 2 -->
      <g transform="translate(15.579687 85.320042) scale(0.1 -0.1)">
       <use xlink:href="#DejaVuSans-32"/>
      </g>
     </g>
    </g>
    <g id="ytick_7">
     <g id="line2d_13">
      <g>
       <use xlink:href="#me5dac6da23" x="28.942187" y="53.032083" style="stroke: #000000; stroke-width: 0.8"/>
      </g>
     </g>
     <g id="text_14">
      <!-- 3 -->
      <g transform="translate(15.579687 56.831302) scale(0.1 -0.1)">
       <use xlink:href="#DejaVuSans-33"/>
      </g>
     </g>
    </g>
    <g id="ytick_8">
     <g id="line2d_14">
      <g>
       <use xlink:href="#me5dac6da23" x="28.942187" y="24.543344" style="stroke: #000000; stroke-width: 0.8"/>
      </g>
     </g>
     <g id="text_15">
      <!-- 4 -->
      <g transform="translate(15.579687 28.342562) scale(0.1 -0.1)">
       <use xlink:href="#DejaVuSans-34"/>
      </g>
     </g>
    </g>
    <g id="text_16">
     <!-- 1e−7 -->
     <g transform="translate(28.942187 20.837812) scale(0.1 -0.1)">
      <defs>
       <path id="DejaVuSans-37" d="M 525 4666 
L 3525 4666 
L 3525 4397 
L 1831 0 
L 1172 0 
L 2766 4134 
L 525 4134 
L 525 4666 
z
" transform="scale(0.015625)"/>
      </defs>
      <use xlink:href="#DejaVuSans-31"/>
      <use xlink:href="#DejaVuSans-65" transform="translate(63.623047 0)"/>
      <use xlink:href="#DejaVuSans-2212" transform="translate(125.146484 0)"/>
      <use xlink:href="#DejaVuSans-37" transform="translate(208.935547 0)"/>
     </g>
    </g>
   </g>
   <g id="line2d_15">
    <path d="M 40.342026 131.670451 
L 43.961023 131.616561 
L 47.580019 127.695096 
L 51.199016 118.777888 
L 54.818012 104.621191 
L 58.437009 87.166039 
L 62.056005 70.734822 
L 65.675002 61.163175 
L 69.293998 63.630565 
L 72.912995 80.347563 
L 76.531991 108.97774 
L 80.150988 143.009229 
L 83.769984 173.602763 
L 87.388981 193.35529 
L 91.007977 198.539504 
L 94.626974 190.411909 
L 98.24597 174.077913 
L 101.864967 155.939116 
L 105.483963 141.052442 
L 109.10296 131.444396 
L 112.721956 126.285907 
L 116.340953 122.972971 
L 119.959949 119.201011 
L 123.578946 114.142334 
L 127.197942 108.487388 
L 130.816939 103.423938 
L 134.435935 99.97473 
L 138.054932 98.118021 
L 141.673928 97.130049 
L 145.292925 96.434623 
L 148.911921 96.314995 
L 152.530918 97.995544 
L 156.149914 102.75102 
L 159.768911 111.07923 
L 163.387907 121.853846 
L 167.006904 132.512974 
L 170.6259 140.194235 
L 174.244897 142.979089 
L 177.863893 141.344613 
L 181.48289 137.563927 
L 185.101886 135.0615 
L 188.720883 136.580707 
L 192.339879 142.845215 
L 195.958876 152.26354 
L 199.577872 161.666543 
L 203.196869 167.541284 
L 206.815865 168.200559 
L 210.434862 163.947074 
L 214.053858 157.063851 
L 217.672854 150.409819 
L 221.291851 146.68827 
L 224.910847 146.824187 
L 228.529844 150.695172 
L 232.14884 157.015315 
L 235.767837 164.51304 
L 239.386833 172.208141 
L 243.00583 179.499608 
L 246.624826 185.981794 
L 250.243823 190.676835 
L 253.862819 192.964059 
L 257.481816 192.004831 
L 261.100812 187.838615 
L 264.719809 181.678229 
L 268.338805 175.562393 
" clip-path="url(#p7ed83c22b0)" style="fill: none; stroke: #d7255d; stroke-width: 3; stroke-linecap: square"/>
   </g>
   <g id="line2d_16">
    <path d="M 40.342026 55.708664 
L 43.961023 62.887784 
L 47.580019 70.692885 
L 51.199016 75.123555 
L 54.818012 73.994932 
L 58.437009 67.859226 
L 62.056005 60.289953 
L 65.675002 55.893622 
L 69.293998 58.559581 
L 72.912995 68.647926 
L 76.531991 83.3532 
L 80.150988 97.421155 
L 83.769984 105.711621 
L 87.388981 105.181765 
L 91.007977 96.403353 
L 94.626974 82.844598 
L 98.24597 69.479296 
L 101.864967 61.013202 
L 105.483963 59.991123 
L 109.10296 67.214227 
L 112.721956 81.394236 
L 116.340953 100.673757 
L 119.959949 122.634342 
L 123.578946 145.195787 
L 127.197942 165.860483 
L 130.816939 182.25659 
L 134.435935 192.530444 
L 138.054932 195.439676 
L 141.673928 191.147556 
L 145.292925 180.969237 
L 148.911921 166.908915 
L 152.530918 151.171788 
L 156.149914 135.428869 
L 159.768911 121.139657 
L 163.387907 109.521311 
L 167.006904 102.050771 
L 170.6259 100.281854 
L 174.244897 104.95888 
L 177.863893 116.210207 
L 181.48289 132.079031 
L 185.101886 149.683478 
L 188.720883 165.253294 
L 192.339879 176.088942 
L 195.958876 180.661848 
L 199.577872 179.783872 
L 203.196869 174.929637 
L 206.815865 168.999216 
L 210.434862 163.94699 
L 214.053858 161.401509 
L 217.672854 162.193083 
L 221.291851 166.182757 
L 224.910847 172.730566 
L 228.529844 180.535907 
L 232.14884 187.695882 
L 235.767837 192.248255 
L 239.386833 192.8071 
L 243.00583 188.563788 
L 246.624826 180.716817 
L 250.243823 171.260627 
L 253.862819 162.969968 
L 257.481816 158.212403 
L 261.100812 158.521022 
L 264.719809 164.186354 
L 268.338805 174.368281 
" clip-path="url(#p7ed83c22b0)" style="fill: none; stroke: #009da1; stroke-width: 3; stroke-linecap: square"/>
   </g>
   <g id="line2d_17">
    <path d="M 40.342026 130.948188 
L 43.961023 131.716285 
L 47.580019 135.889402 
L 51.199016 142.471643 
L 54.818012 147.968386 
L 58.437009 147.749423 
L 62.056005 138.651999 
L 65.675002 121.154641 
L 69.293998 99.906838 
L 72.912995 82.530622 
L 76.531991 75.955449 
L 80.150988 83.594804 
L 83.769984 103.01787 
L 87.388981 126.989032 
L 91.007977 146.47064 
L 94.626974 154.23191 
L 98.24597 147.617244 
L 101.864967 129.661775 
L 105.483963 107.167516 
L 109.10296 87.628162 
L 112.721956 76.730949 
L 116.340953 76.269306 
L 119.959949 84.697749 
L 123.578946 98.48541 
L 127.197942 113.990378 
L 130.816939 128.454121 
L 134.435935 140.436176 
L 138.054932 149.142071 
L 141.673928 154.120023 
L 145.292925 155.393684 
L 148.911921 153.346554 
L 152.530918 149.347145 
L 156.149914 145.205099 
L 159.768911 143.00271 
L 163.387907 144.016662 
L 167.006904 148.111342 
L 170.6259 153.428094 
L 174.244897 157.617217 
L 177.863893 158.56893 
L 181.48289 155.655091 
L 185.101886 150.17293 
L 188.720883 144.143746 
L 192.339879 140.101325 
L 195.958876 139.318371 
L 199.577872 141.744774 
L 203.196869 146.104804 
L 206.815865 150.517214 
L 210.434862 153.819377 
L 214.053858 155.317498 
L 217.672854 155.603848 
L 221.291851 155.021707 
L 224.910847 154.091369 
L 228.529844 152.726205 
L 232.14884 150.352972 
L 235.767837 146.506952 
L 239.386833 141.105933 
L 243.00583 134.555307 
L 246.624826 127.501615 
L 250.243823 121.017406 
L 253.862819 116.338573 
L 257.481816 114.241294 
L 261.100812 115.344565 
L 264.719809 119.615271 
L 268.338805 126.304713 
" clip-path="url(#p7ed83c22b0)" style="fill: none; stroke: #603e95; stroke-width: 3; stroke-linecap: square"/>
   </g>
   <g id="line2d_18">
    <path d="M 40.342026 119.398081 
L 43.961023 118.556561 
L 47.580019 120.593734 
L 51.199016 123.321321 
L 54.818012 124.700731 
L 58.437009 123.243548 
L 62.056005 119.448671 
L 65.675002 114.921259 
L 69.293998 111.885837 
L 72.912995 111.530992 
L 76.531991 113.849142 
L 80.150988 117.541749 
L 83.769984 120.689493 
L 87.388981 122.33082 
L 91.007977 122.309364 
L 94.626974 121.705031 
L 98.24597 122.185246 
L 101.864967 124.909737 
L 105.483963 130.416552 
L 109.10296 138.327393 
L 112.721956 147.256691 
L 116.340953 156.048987 
L 119.959949 163.280056 
L 123.578946 168.181085 
L 127.197942 170.220966 
L 130.816939 169.626732 
L 134.435935 166.849673 
L 138.054932 162.923792 
L 141.673928 158.975211 
L 145.292925 156.217006 
L 148.911921 155.430526 
L 152.530918 157.285781 
L 156.149914 161.446964 
L 159.768911 166.956359 
L 163.387907 172.882707 
L 167.006904 177.492137 
L 170.6259 179.065981 
L 174.244897 176.110239 
L 177.863893 167.892881 
L 181.48289 154.769485 
L 185.101886 139.203784 
L 188.720883 124.827055 
L 192.339879 116.441432 
L 195.958876 117.585469 
L 199.577872 129.488103 
L 203.196869 149.619133 
L 206.815865 172.308079 
L 210.434862 190.168944 
L 214.053858 197.170325 
L 217.672854 190.832554 
L 221.291851 173.24792 
L 224.910847 150.888791 
L 228.529844 131.52114 
L 232.14884 121.597987 
L 235.767837 123.227838 
L 239.386833 134.156286 
L 243.00583 148.491599 
L 246.624826 159.822543 
L 250.243823 163.502947 
L 253.862819 159.207481 
L 257.481816 149.689545 
L 261.100812 140.225995 
L 264.719809 135.599113 
L 268.338805 138.018362 
" clip-path="url(#p7ed83c22b0)" style="fill: none; stroke: #ffa500; stroke-width: 3; stroke-linecap: square"/>
   </g>
   <g id="patch_3">
    <path d="M 28.942187 226.637812 
L 28.942187 23.837812 
" style="fill: none; stroke: #000000; stroke-width: 0.8; stroke-linejoin: miter; stroke-linecap: square"/>
   </g>
   <g id="patch_4">
    <path d="M 279.738644 226.637812 
L 279.738644 23.837812 
" style="fill: none; stroke: #000000; stroke-width: 0.8; stroke-linejoin: miter; stroke-linecap: square"/>
   </g>
   <g id="patch_5">
    <path d="M 28.942187 226.637812 
L 279.738644 226.637812 
" style="fill: none; stroke: #000000; stroke-width: 0.8; stroke-linejoin: miter; stroke-linecap: square"/>
   </g>
   <g id="patch_6">
    <path d="M 28.942187 23.837812 
L 279.738644 23.837812 
" style="fill: none; stroke: #000000; stroke-width: 0.8; stroke-linejoin: miter; stroke-linecap: square"/>
   </g>
   <g id="text_17">
    <!-- (FC) task=60bi -->
    <g transform="translate(101.843697 17.837812) scale(0.14 -0.14)">
     <defs>
      <path id="DejaVuSans-46" d="M 628 4666 
L 3309 4666 
L 3309 4134 
L 1259 4134 
L 1259 2759 
L 3109 2759 
L 3109 2228 
L 1259 2228 
L 1259 0 
L 628 0 
L 628 4666 
z
" transform="scale(0.015625)"/>
      <path id="DejaVuSans-43" d="M 4122 4306 
L 4122 3641 
Q 3803 3938 3442 4084 
Q 3081 4231 2675 4231 
Q 1875 4231 1450 3742 
Q 1025 3253 1025 2328 
Q 1025 1406 1450 917 
Q 1875 428 2675 428 
Q 3081 428 3442 575 
Q 3803 722 4122 1019 
L 4122 359 
Q 3791 134 3420 21 
Q 3050 -91 2638 -91 
Q 1578 -91 968 557 
Q 359 1206 359 2328 
Q 359 3453 968 4101 
Q 1578 4750 2638 4750 
Q 3056 4750 3426 4639 
Q 3797 4528 4122 4306 
z
" transform="scale(0.015625)"/>
      <path id="DejaVuSans-74" d="M 1172 4494 
L 1172 3500 
L 2356 3500 
L 2356 3053 
L 1172 3053 
L 1172 1153 
Q 1172 725 1289 603 
Q 1406 481 1766 481 
L 2356 481 
L 2356 0 
L 1766 0 
Q 1100 0 847 248 
Q 594 497 594 1153 
L 594 3053 
L 172 3053 
L 172 3500 
L 594 3500 
L 594 4494 
L 1172 4494 
z
" transform="scale(0.015625)"/>
      <path id="DejaVuSans-61" d="M 2194 1759 
Q 1497 1759 1228 1600 
Q 959 1441 959 1056 
Q 959 750 1161 570 
Q 1363 391 1709 391 
Q 2188 391 2477 730 
Q 2766 1069 2766 1631 
L 2766 1759 
L 2194 1759 
z
M 3341 1997 
L 3341 0 
L 2766 0 
L 2766 531 
Q 2569 213 2275 61 
Q 1981 -91 1556 -91 
Q 1019 -91 701 211 
Q 384 513 384 1019 
Q 384 1609 779 1909 
Q 1175 2209 1959 2209 
L 2766 2209 
L 2766 2266 
Q 2766 2663 2505 2880 
Q 2244 3097 1772 3097 
Q 1472 3097 1187 3025 
Q 903 2953 641 2809 
L 641 3341 
Q 956 3463 1253 3523 
Q 1550 3584 1831 3584 
Q 2591 3584 2966 3190 
Q 3341 2797 3341 1997 
z
" transform="scale(0.015625)"/>
      <path id="DejaVuSans-6b" d="M 581 4863 
L 1159 4863 
L 1159 1991 
L 2875 3500 
L 3609 3500 
L 1753 1863 
L 3688 0 
L 2938 0 
L 1159 1709 
L 1159 0 
L 581 0 
L 581 4863 
z
" transform="scale(0.015625)"/>
      <path id="DejaVuSans-3d" d="M 678 2906 
L 4684 2906 
L 4684 2381 
L 678 2381 
L 678 2906 
z
M 678 1631 
L 4684 1631 
L 4684 1100 
L 678 1100 
L 678 1631 
z
" transform="scale(0.015625)"/>
      <path id="DejaVuSans-36" d="M 2113 2584 
Q 1688 2584 1439 2293 
Q 1191 2003 1191 1497 
Q 1191 994 1439 701 
Q 1688 409 2113 409 
Q 2538 409 2786 701 
Q 3034 994 3034 1497 
Q 3034 2003 2786 2293 
Q 2538 2584 2113 2584 
z
M 3366 4563 
L 3366 3988 
Q 3128 4100 2886 4159 
Q 2644 4219 2406 4219 
Q 1781 4219 1451 3797 
Q 1122 3375 1075 2522 
Q 1259 2794 1537 2939 
Q 1816 3084 2150 3084 
Q 2853 3084 3261 2657 
Q 3669 2231 3669 1497 
Q 3669 778 3244 343 
Q 2819 -91 2113 -91 
Q 1303 -91 875 529 
Q 447 1150 447 2328 
Q 447 3434 972 4092 
Q 1497 4750 2381 4750 
Q 2619 4750 2861 4703 
Q 3103 4656 3366 4563 
z
" transform="scale(0.015625)"/>
      <path id="DejaVuSans-62" d="M 3116 1747 
Q 3116 2381 2855 2742 
Q 2594 3103 2138 3103 
Q 1681 3103 1420 2742 
Q 1159 2381 1159 1747 
Q 1159 1113 1420 752 
Q 1681 391 2138 391 
Q 2594 391 2855 752 
Q 3116 1113 3116 1747 
z
M 1159 2969 
Q 1341 3281 1617 3432 
Q 1894 3584 2278 3584 
Q 2916 3584 3314 3078 
Q 3713 2572 3713 1747 
Q 3713 922 3314 415 
Q 2916 -91 2278 -91 
Q 1894 -91 1617 61 
Q 1341 213 1159 525 
L 1159 0 
L 581 0 
L 581 4863 
L 1159 4863 
L 1159 2969 
z
" transform="scale(0.015625)"/>
     </defs>
     <use xlink:href="#DejaVuSans-28"/>
     <use xlink:href="#DejaVuSans-46" transform="translate(39.013672 0)"/>
     <use xlink:href="#DejaVuSans-43" transform="translate(96.533203 0)"/>
     <use xlink:href="#DejaVuSans-29" transform="translate(166.357422 0)"/>
     <use xlink:href="#DejaVuSans-20" transform="translate(205.371094 0)"/>
     <use xlink:href="#DejaVuSans-74" transform="translate(237.158203 0)"/>
     <use xlink:href="#DejaVuSans-61" transform="translate(276.367188 0)"/>
     <use xlink:href="#DejaVuSans-73" transform="translate(337.646484 0)"/>
     <use xlink:href="#DejaVuSans-6b" transform="translate(389.746094 0)"/>
     <use xlink:href="#DejaVuSans-3d" transform="translate(447.65625 0)"/>
     <use xlink:href="#DejaVuSans-36" transform="translate(531.445312 0)"/>
     <use xlink:href="#DejaVuSans-30" transform="translate(595.068359 0)"/>
     <use xlink:href="#DejaVuSans-62" transform="translate(658.691406 0)"/>
     <use xlink:href="#DejaVuSans-69" transform="translate(722.167969 0)"/>
    </g>
   </g>
  </g>
  <g id="axes_2">
   <g id="patch_7">
    <path d="M 314.242188 226.637812 
L 565.038644 226.637812 
L 565.038644 23.837812 
L 314.242188 23.837812 
z
" style="fill: #ffffff"/>
   </g>
   <g id="matplotlib.axis_3">
    <g id="xtick_7">
     <g id="line2d_19">
      <g>
       <use xlink:href="#m9cc1ff890c" x="325.642026" y="226.637812" style="stroke: #000000; stroke-width: 0.8"/>
      </g>
     </g>
     <g id="text_18">
      <!-- 0.0 -->
      <g transform="translate(317.690464 241.23625) scale(0.1 -0.1)">
       <use xlink:href="#DejaVuSans-30"/>
       <use xlink:href="#DejaVuSans-2e" transform="translate(63.623047 0)"/>
       <use xlink:href="#DejaVuSans-30" transform="translate(95.410156 0)"/>
      </g>
     </g>
    </g>
    <g id="xtick_8">
     <g id="line2d_20">
      <g>
       <use xlink:href="#m9cc1ff890c" x="371.965182" y="226.637812" style="stroke: #000000; stroke-width: 0.8"/>
      </g>
     </g>
     <g id="text_19">
      <!-- 0.1 -->
      <g transform="translate(364.013619 241.23625) scale(0.1 -0.1)">
       <use xlink:href="#DejaVuSans-30"/>
       <use xlink:href="#DejaVuSans-2e" transform="translate(63.623047 0)"/>
       <use xlink:href="#DejaVuSans-31" transform="translate(95.410156 0)"/>
      </g>
     </g>
    </g>
    <g id="xtick_9">
     <g id="line2d_21">
      <g>
       <use xlink:href="#m9cc1ff890c" x="418.288337" y="226.637812" style="stroke: #000000; stroke-width: 0.8"/>
      </g>
     </g>
     <g id="text_20">
      <!-- 0.2 -->
      <g transform="translate(410.336774 241.23625) scale(0.1 -0.1)">
       <use xlink:href="#DejaVuSans-30"/>
       <use xlink:href="#DejaVuSans-2e" transform="translate(63.623047 0)"/>
       <use xlink:href="#DejaVuSans-32" transform="translate(95.410156 0)"/>
      </g>
     </g>
    </g>
    <g id="xtick_10">
     <g id="line2d_22">
      <g>
       <use xlink:href="#m9cc1ff890c" x="464.611492" y="226.637812" style="stroke: #000000; stroke-width: 0.8"/>
      </g>
     </g>
     <g id="text_21">
      <!-- 0.3 -->
      <g transform="translate(456.659929 241.23625) scale(0.1 -0.1)">
       <use xlink:href="#DejaVuSans-30"/>
       <use xlink:href="#DejaVuSans-2e" transform="translate(63.623047 0)"/>
       <use xlink:href="#DejaVuSans-33" transform="translate(95.410156 0)"/>
      </g>
     </g>
    </g>
    <g id="xtick_11">
     <g id="line2d_23">
      <g>
       <use xlink:href="#m9cc1ff890c" x="510.934647" y="226.637812" style="stroke: #000000; stroke-width: 0.8"/>
      </g>
     </g>
     <g id="text_22">
      <!-- 0.4 -->
      <g transform="translate(502.983084 241.23625) scale(0.1 -0.1)">
       <use xlink:href="#DejaVuSans-30"/>
       <use xlink:href="#DejaVuSans-2e" transform="translate(63.623047 0)"/>
       <use xlink:href="#DejaVuSans-34" transform="translate(95.410156 0)"/>
      </g>
     </g>
    </g>
    <g id="xtick_12">
     <g id="line2d_24">
      <g>
       <use xlink:href="#m9cc1ff890c" x="557.257802" y="226.637812" style="stroke: #000000; stroke-width: 0.8"/>
      </g>
     </g>
     <g id="text_23">
      <!-- 0.5 -->
      <g transform="translate(549.306239 241.23625) scale(0.1 -0.1)">
       <use xlink:href="#DejaVuSans-30"/>
       <use xlink:href="#DejaVuSans-2e" transform="translate(63.623047 0)"/>
       <use xlink:href="#DejaVuSans-35" transform="translate(95.410156 0)"/>
      </g>
     </g>
    </g>
    <g id="text_24">
     <!-- Time (s) -->
     <g transform="translate(411.179947 257.95375) scale(0.14 -0.14)">
      <use xlink:href="#DejaVuSans-54"/>
      <use xlink:href="#DejaVuSans-69" transform="translate(57.958984 0)"/>
      <use xlink:href="#DejaVuSans-6d" transform="translate(85.742188 0)"/>
      <use xlink:href="#DejaVuSans-65" transform="translate(183.154297 0)"/>
      <use xlink:href="#DejaVuSans-20" transform="translate(244.677734 0)"/>
      <use xlink:href="#DejaVuSans-28" transform="translate(276.464844 0)"/>
      <use xlink:href="#DejaVuSans-73" transform="translate(315.478516 0)"/>
      <use xlink:href="#DejaVuSans-29" transform="translate(367.578125 0)"/>
     </g>
    </g>
   </g>
   <g id="matplotlib.axis_4">
    <g id="ytick_9">
     <g id="line2d_25">
      <g>
       <use xlink:href="#me5dac6da23" x="314.242188" y="223.964521" style="stroke: #000000; stroke-width: 0.8"/>
      </g>
     </g>
     <g id="text_25">
      <!-- −3 -->
      <g transform="translate(292.5 227.76374) scale(0.1 -0.1)">
       <use xlink:href="#DejaVuSans-2212"/>
       <use xlink:href="#DejaVuSans-33" transform="translate(83.789062 0)"/>
      </g>
     </g>
    </g>
    <g id="ytick_10">
     <g id="line2d_26">
      <g>
       <use xlink:href="#me5dac6da23" x="314.242188" y="195.475782" style="stroke: #000000; stroke-width: 0.8"/>
      </g>
     </g>
     <g id="text_26">
      <!-- −2 -->
      <g transform="translate(292.5 199.275) scale(0.1 -0.1)">
       <use xlink:href="#DejaVuSans-2212"/>
       <use xlink:href="#DejaVuSans-32" transform="translate(83.789062 0)"/>
      </g>
     </g>
    </g>
    <g id="ytick_11">
     <g id="line2d_27">
      <g>
       <use xlink:href="#me5dac6da23" x="314.242188" y="166.987042" style="stroke: #000000; stroke-width: 0.8"/>
      </g>
     </g>
     <g id="text_27">
      <!-- −1 -->
      <g transform="translate(292.5 170.786261) scale(0.1 -0.1)">
       <use xlink:href="#DejaVuSans-2212"/>
       <use xlink:href="#DejaVuSans-31" transform="translate(83.789062 0)"/>
      </g>
     </g>
    </g>
    <g id="ytick_12">
     <g id="line2d_28">
      <g>
       <use xlink:href="#me5dac6da23" x="314.242188" y="138.498302" style="stroke: #000000; stroke-width: 0.8"/>
      </g>
     </g>
     <g id="text_28">
      <!-- 0 -->
      <g transform="translate(300.879687 142.297521) scale(0.1 -0.1)">
       <use xlink:href="#DejaVuSans-30"/>
      </g>
     </g>
    </g>
    <g id="ytick_13">
     <g id="line2d_29">
      <g>
       <use xlink:href="#me5dac6da23" x="314.242188" y="110.009563" style="stroke: #000000; stroke-width: 0.8"/>
      </g>
     </g>
     <g id="text_29">
      <!-- 1 -->
      <g transform="translate(300.879687 113.808781) scale(0.1 -0.1)">
       <use xlink:href="#DejaVuSans-31"/>
      </g>
     </g>
    </g>
    <g id="ytick_14">
     <g id="line2d_30">
      <g>
       <use xlink:href="#me5dac6da23" x="314.242188" y="81.520823" style="stroke: #000000; stroke-width: 0.8"/>
      </g>
     </g>
     <g id="text_30">
      <!-- 2 -->
      <g transform="translate(300.879687 85.320042) scale(0.1 -0.1)">
       <use xlink:href="#DejaVuSans-32"/>
      </g>
     </g>
    </g>
    <g id="ytick_15">
     <g id="line2d_31">
      <g>
       <use xlink:href="#me5dac6da23" x="314.242188" y="53.032083" style="stroke: #000000; stroke-width: 0.8"/>
      </g>
     </g>
     <g id="text_31">
      <!-- 3 -->
      <g transform="translate(300.879687 56.831302) scale(0.1 -0.1)">
       <use xlink:href="#DejaVuSans-33"/>
      </g>
     </g>
    </g>
    <g id="ytick_16">
     <g id="line2d_32">
      <g>
       <use xlink:href="#me5dac6da23" x="314.242188" y="24.543344" style="stroke: #000000; stroke-width: 0.8"/>
      </g>
     </g>
     <g id="text_32">
      <!-- 4 -->
      <g transform="translate(300.879687 28.342562) scale(0.1 -0.1)">
       <use xlink:href="#DejaVuSans-34"/>
      </g>
     </g>
    </g>
    <g id="text_33">
     <!-- 1e−7 -->
     <g transform="translate(314.242188 20.837812) scale(0.1 -0.1)">
      <use xlink:href="#DejaVuSans-31"/>
      <use xlink:href="#DejaVuSans-65" transform="translate(63.623047 0)"/>
      <use xlink:href="#DejaVuSans-2212" transform="translate(125.146484 0)"/>
      <use xlink:href="#DejaVuSans-37" transform="translate(208.935547 0)"/>
     </g>
    </g>
   </g>
   <g id="line2d_33">
    <path d="M 325.642026 108.021879 
L 329.261023 113.139024 
L 332.880019 112.283575 
L 336.499016 104.90089 
L 340.118012 93.10599 
L 343.737009 80.834455 
L 347.356005 72.369047 
L 350.975002 71.042606 
L 354.593998 78.114909 
L 358.212995 92.89983 
L 361.831991 112.988149 
L 365.450988 135.210421 
L 369.069984 156.502807 
L 372.688981 174.299246 
L 376.307977 186.899159 
L 379.926974 193.458 
L 383.54597 194.000777 
L 387.164967 189.479506 
L 390.783963 181.440612 
L 394.40296 171.844518 
L 398.021956 162.365415 
L 401.640953 154.24486 
L 405.259949 147.865996 
L 408.878946 143.022027 
L 412.497942 138.898952 
L 416.116939 134.768612 
L 419.735935 130.17882 
L 423.354932 124.974757 
L 426.973928 119.356583 
L 430.592925 113.688073 
L 434.211921 108.710031 
L 437.830918 105.194838 
L 441.449914 104.183473 
L 445.068911 106.47764 
L 448.687907 112.378459 
L 452.306904 121.263958 
L 455.9259 131.480795 
L 459.544897 140.784186 
L 463.163893 146.987923 
L 466.78289 149.013101 
L 470.401886 147.182906 
L 474.020883 143.543209 
L 477.639879 140.826274 
L 481.258876 141.418321 
L 484.877872 146.220304 
L 488.496869 154.196995 
L 492.115865 162.721588 
L 495.734862 168.832379 
L 499.353858 170.348473 
L 502.972854 167.077677 
L 506.591851 160.658407 
L 510.210847 154.114511 
L 513.829844 150.366924 
L 517.44884 150.857355 
L 521.067837 155.265708 
L 524.686833 161.504021 
L 528.30583 166.769135 
L 531.924826 168.797102 
L 535.543823 166.648677 
L 539.162819 160.942556 
L 542.781816 153.51009 
L 546.400812 146.321765 
L 550.019809 140.910018 
L 553.638805 137.867193 
" clip-path="url(#p76685b09bc)" style="fill: none; stroke: #d7255d; stroke-width: 3; stroke-linecap: square"/>
   </g>
   <g id="line2d_34">
    <path d="M 325.642026 128.940203 
L 329.261023 124.045798 
L 332.880019 119.044248 
L 336.499016 117.460014 
L 340.118012 120.876089 
L 343.737009 127.794263 
L 347.356005 134.130279 
L 350.975002 135.192454 
L 354.593998 128.169807 
L 358.212995 113.647814 
L 361.831991 95.483998 
L 365.450988 79.105704 
L 369.069984 68.802822 
L 372.688981 65.609374 
L 376.307977 67.508827 
L 379.926974 70.565893 
L 383.54597 71.905738 
L 387.164967 71.140864 
L 390.783963 71.018074 
L 394.40296 75.453671 
L 398.021956 87.020116 
L 401.640953 105.089812 
L 405.259949 125.578464 
L 408.878946 143.098241 
L 412.497942 153.532186 
L 416.116939 156.409063 
L 419.735935 155.19102 
L 423.354932 155.168233 
L 426.973928 160.551931 
L 430.592925 171.806282 
L 434.211921 185.400783 
L 437.830918 195.324658 
L 441.449914 196.353248 
L 445.068911 186.572324 
L 448.687907 168.328142 
L 452.306904 146.956111 
L 455.9259 128.387648 
L 459.544897 116.437031 
L 463.163893 111.973913 
L 466.78289 113.259604 
L 470.401886 117.962251 
L 474.020883 124.485057 
L 477.639879 132.565898 
L 481.258876 142.541022 
L 484.877872 154.262113 
L 488.496869 166.181644 
L 492.115865 175.670146 
L 495.734862 180.326893 
L 499.353858 179.166307 
L 502.972854 173.363183 
L 506.591851 165.582497 
L 510.210847 158.716695 
L 513.829844 154.447882 
L 517.44884 152.873749 
L 521.067837 152.961456 
L 524.686833 153.479741 
L 528.30583 154.33529 
L 531.924826 156.479814 
L 535.543823 161.246286 
L 539.162819 169.137221 
L 542.781816 179.169634 
L 546.400812 188.9718 
L 550.019809 195.789113 
L 553.638805 197.749682 
" clip-path="url(#p76685b09bc)" style="fill: none; stroke: #009da1; stroke-width: 3; stroke-linecap: square"/>
   </g>
   <g id="line2d_35">
    <path d="M 325.642026 129.243985 
L 329.261023 134.396508 
L 332.880019 137.960113 
L 336.499016 138.64945 
L 340.118012 135.289968 
L 343.737009 127.368028 
L 347.356005 115.583512 
L 350.975002 102.484675 
L 354.593998 92.158586 
L 358.212995 89.077937 
L 361.831991 96.305063 
L 365.450988 113.556449 
L 369.069984 136.743266 
L 372.688981 158.924266 
L 376.307977 172.691646 
L 379.926974 173.248234 
L 383.54597 159.989212 
L 387.164967 136.91825 
L 390.783963 110.948674 
L 394.40296 89.299266 
L 398.021956 77.175318 
L 401.640953 76.603928 
L 405.259949 86.484333 
L 408.878946 103.806172 
L 412.497942 124.842172 
L 416.116939 146.046054 
L 419.735935 164.339232 
L 423.354932 177.393802 
L 426.973928 183.480807 
L 430.592925 182.03196 
L 434.211921 173.922789 
L 437.830918 161.731663 
L 441.449914 148.895206 
L 445.068911 139.018951 
L 448.687907 134.476894 
L 452.306904 135.734242 
L 455.9259 141.135027 
L 459.544897 147.937929 
L 463.163893 152.991176 
L 466.78289 154.14322 
L 470.401886 150.621046 
L 474.020883 143.090019 
L 477.639879 133.434217 
L 481.258876 124.014473 
L 484.877872 117.126378 
L 488.496869 114.433373 
L 492.115865 116.240479 
L 495.734862 121.451726 
L 499.353858 127.599018 
L 502.972854 131.568382 
L 506.591851 130.804758 
L 510.210847 124.463504 
L 513.829844 114.252585 
L 517.44884 104.137001 
L 521.067837 98.681459 
L 524.686833 101.401975 
L 528.30583 112.8532 
L 531.924826 129.988233 
L 535.543823 147.511912 
L 539.162819 159.350049 
L 542.781816 161.743648 
L 546.400812 154.032879 
L 550.019809 139.085813 
L 553.638805 121.856352 
" clip-path="url(#p76685b09bc)" style="fill: none; stroke: #603e95; stroke-width: 3; stroke-linecap: square"/>
   </g>
   <g id="line2d_36">
    <path d="M 325.642026 116.63577 
L 329.261023 111.494562 
L 332.880019 101.79654 
L 336.499016 89.266681 
L 340.118012 77.137224 
L 343.737009 69.000089 
L 347.356005 67.663214 
L 350.975002 73.691073 
L 354.593998 85.351618 
L 358.212995 99.254132 
L 361.831991 111.717498 
L 365.450988 119.93925 
L 369.069984 122.985545 
L 372.688981 121.446836 
L 376.307977 116.852951 
L 379.926974 111.021775 
L 383.54597 105.61653 
L 387.164967 102.165262 
L 390.783963 102.438671 
L 394.40296 108.206698 
L 398.021956 120.568073 
L 401.640953 139.336186 
L 405.259949 161.951927 
L 408.878946 183.756487 
L 412.497942 199.296712 
L 416.116939 204.037427 
L 419.735935 196.499566 
L 423.354932 179.054 
L 426.973928 157.276422 
L 430.592925 138.029762 
L 434.211921 126.745022 
L 437.830918 125.909073 
L 441.449914 133.937701 
L 445.068911 146.749119 
L 448.687907 159.286103 
L 452.306904 167.657944 
L 455.9259 170.194766 
L 459.544897 167.555201 
L 463.163893 161.89563 
L 466.78289 155.7963 
L 470.401886 151.479262 
L 474.020883 150.310408 
L 477.639879 152.850453 
L 481.258876 158.970624 
L 484.877872 167.624063 
L 488.496869 176.973214 
L 492.115865 184.557657 
L 495.734862 187.978287 
L 499.353858 185.754192 
L 502.972854 178.294902 
L 506.591851 167.985783 
L 510.210847 158.598843 
L 513.829844 153.763452 
L 517.44884 155.547473 
L 521.067837 163.200023 
L 524.686833 173.559395 
L 528.30583 182.102287 
L 531.924826 184.84072 
L 535.543823 180.057795 
L 539.162819 168.857105 
L 542.781816 154.723845 
L 546.400812 142.111622 
L 550.019809 134.687788 
L 553.638805 134.161157 
" clip-path="url(#p76685b09bc)" style="fill: none; stroke: #ffa500; stroke-width: 3; stroke-linecap: square"/>
   </g>
   <g id="patch_8">
    <path d="M 314.242188 226.637812 
L 314.242188 23.837812 
" style="fill: none; stroke: #000000; stroke-width: 0.8; stroke-linejoin: miter; stroke-linecap: square"/>
   </g>
   <g id="patch_9">
    <path d="M 565.038644 226.637812 
L 565.038644 23.837812 
" style="fill: none; stroke: #000000; stroke-width: 0.8; stroke-linejoin: miter; stroke-linecap: square"/>
   </g>
   <g id="patch_10">
    <path d="M 314.242188 226.637812 
L 565.038644 226.637812 
" style="fill: none; stroke: #000000; stroke-width: 0.8; stroke-linejoin: miter; stroke-linecap: square"/>
   </g>
   <g id="patch_11">
    <path d="M 314.242188 23.837812 
L 565.038644 23.837812 
" style="fill: none; stroke: #000000; stroke-width: 0.8; stroke-linejoin: miter; stroke-linecap: square"/>
   </g>
   <g id="text_34">
    <!-- (FC) task=60mo -->
    <g transform="translate(382.430728 17.837812) scale(0.14 -0.14)">
     <defs>
      <path id="DejaVuSans-6f" d="M 1959 3097 
Q 1497 3097 1228 2736 
Q 959 2375 959 1747 
Q 959 1119 1226 758 
Q 1494 397 1959 397 
Q 2419 397 2687 759 
Q 2956 1122 2956 1747 
Q 2956 2369 2687 2733 
Q 2419 3097 1959 3097 
z
M 1959 3584 
Q 2709 3584 3137 3096 
Q 3566 2609 3566 1747 
Q 3566 888 3137 398 
Q 2709 -91 1959 -91 
Q 1206 -91 779 398 
Q 353 888 353 1747 
Q 353 2609 779 3096 
Q 1206 3584 1959 3584 
z
" transform="scale(0.015625)"/>
     </defs>
     <use xlink:href="#DejaVuSans-28"/>
     <use xlink:href="#DejaVuSans-46" transform="translate(39.013672 0)"/>
     <use xlink:href="#DejaVuSans-43" transform="translate(96.533203 0)"/>
     <use xlink:href="#DejaVuSans-29" transform="translate(166.357422 0)"/>
     <use xlink:href="#DejaVuSans-20" transform="translate(205.371094 0)"/>
     <use xlink:href="#DejaVuSans-74" transform="translate(237.158203 0)"/>
     <use xlink:href="#DejaVuSans-61" transform="translate(276.367188 0)"/>
     <use xlink:href="#DejaVuSans-73" transform="translate(337.646484 0)"/>
     <use xlink:href="#DejaVuSans-6b" transform="translate(389.746094 0)"/>
     <use xlink:href="#DejaVuSans-3d" transform="translate(447.65625 0)"/>
     <use xlink:href="#DejaVuSans-36" transform="translate(531.445312 0)"/>
     <use xlink:href="#DejaVuSans-30" transform="translate(595.068359 0)"/>
     <use xlink:href="#DejaVuSans-6d" transform="translate(658.691406 0)"/>
     <use xlink:href="#DejaVuSans-6f" transform="translate(756.103516 0)"/>
    </g>
   </g>
  </g>
  <g id="axes_3">
   <g id="patch_12">
    <path d="M 599.542188 226.637812 
L 850.338644 226.637812 
L 850.338644 23.837812 
L 599.542188 23.837812 
z
" style="fill: #ffffff"/>
   </g>
   <g id="matplotlib.axis_5">
    <g id="xtick_13">
     <g id="line2d_37">
      <g>
       <use xlink:href="#m9cc1ff890c" x="610.942026" y="226.637812" style="stroke: #000000; stroke-width: 0.8"/>
      </g>
     </g>
     <g id="text_35">
      <!-- 0.0 -->
      <g transform="translate(602.990464 241.23625) scale(0.1 -0.1)">
       <use xlink:href="#DejaVuSans-30"/>
       <use xlink:href="#DejaVuSans-2e" transform="translate(63.623047 0)"/>
       <use xlink:href="#DejaVuSans-30" transform="translate(95.410156 0)"/>
      </g>
     </g>
    </g>
    <g id="xtick_14">
     <g id="line2d_38">
      <g>
       <use xlink:href="#m9cc1ff890c" x="657.265182" y="226.637812" style="stroke: #000000; stroke-width: 0.8"/>
      </g>
     </g>
     <g id="text_36">
      <!-- 0.1 -->
      <g transform="translate(649.313619 241.23625) scale(0.1 -0.1)">
       <use xlink:href="#DejaVuSans-30"/>
       <use xlink:href="#DejaVuSans-2e" transform="translate(63.623047 0)"/>
       <use xlink:href="#DejaVuSans-31" transform="translate(95.410156 0)"/>
      </g>
     </g>
    </g>
    <g id="xtick_15">
     <g id="line2d_39">
      <g>
       <use xlink:href="#m9cc1ff890c" x="703.588337" y="226.637812" style="stroke: #000000; stroke-width: 0.8"/>
      </g>
     </g>
     <g id="text_37">
      <!-- 0.2 -->
      <g transform="translate(695.636774 241.23625) scale(0.1 -0.1)">
       <use xlink:href="#DejaVuSans-30"/>
       <use xlink:href="#DejaVuSans-2e" transform="translate(63.623047 0)"/>
       <use xlink:href="#DejaVuSans-32" transform="translate(95.410156 0)"/>
      </g>
     </g>
    </g>
    <g id="xtick_16">
     <g id="line2d_40">
      <g>
       <use xlink:href="#m9cc1ff890c" x="749.911492" y="226.637812" style="stroke: #000000; stroke-width: 0.8"/>
      </g>
     </g>
     <g id="text_38">
      <!-- 0.3 -->
      <g transform="translate(741.959929 241.23625) scale(0.1 -0.1)">
       <use xlink:href="#DejaVuSans-30"/>
       <use xlink:href="#DejaVuSans-2e" transform="translate(63.623047 0)"/>
       <use xlink:href="#DejaVuSans-33" transform="translate(95.410156 0)"/>
      </g>
     </g>
    </g>
    <g id="xtick_17">
     <g id="line2d_41">
      <g>
       <use xlink:href="#m9cc1ff890c" x="796.234647" y="226.637812" style="stroke: #000000; stroke-width: 0.8"/>
      </g>
     </g>
     <g id="text_39">
      <!-- 0.4 -->
      <g transform="translate(788.283084 241.23625) scale(0.1 -0.1)">
       <use xlink:href="#DejaVuSans-30"/>
       <use xlink:href="#DejaVuSans-2e" transform="translate(63.623047 0)"/>
       <use xlink:href="#DejaVuSans-34" transform="translate(95.410156 0)"/>
      </g>
     </g>
    </g>
    <g id="xtick_18">
     <g id="line2d_42">
      <g>
       <use xlink:href="#m9cc1ff890c" x="842.557802" y="226.637812" style="stroke: #000000; stroke-width: 0.8"/>
      </g>
     </g>
     <g id="text_40">
      <!-- 0.5 -->
      <g transform="translate(834.606239 241.23625) scale(0.1 -0.1)">
       <use xlink:href="#DejaVuSans-30"/>
       <use xlink:href="#DejaVuSans-2e" transform="translate(63.623047 0)"/>
       <use xlink:href="#DejaVuSans-35" transform="translate(95.410156 0)"/>
      </g>
     </g>
    </g>
    <g id="text_41">
     <!-- Time (s) -->
     <g transform="translate(696.479947 257.95375) scale(0.14 -0.14)">
      <use xlink:href="#DejaVuSans-54"/>
      <use xlink:href="#DejaVuSans-69" transform="translate(57.958984 0)"/>
      <use xlink:href="#DejaVuSans-6d" transform="translate(85.742188 0)"/>
      <use xlink:href="#DejaVuSans-65" transform="translate(183.154297 0)"/>
      <use xlink:href="#DejaVuSans-20" transform="translate(244.677734 0)"/>
      <use xlink:href="#DejaVuSans-28" transform="translate(276.464844 0)"/>
      <use xlink:href="#DejaVuSans-73" transform="translate(315.478516 0)"/>
      <use xlink:href="#DejaVuSans-29" transform="translate(367.578125 0)"/>
     </g>
    </g>
   </g>
   <g id="matplotlib.axis_6">
    <g id="ytick_17">
     <g id="line2d_43">
      <g>
       <use xlink:href="#me5dac6da23" x="599.542188" y="223.964521" style="stroke: #000000; stroke-width: 0.8"/>
      </g>
     </g>
     <g id="text_42">
      <!-- −3 -->
      <g transform="translate(577.8 227.76374) scale(0.1 -0.1)">
       <use xlink:href="#DejaVuSans-2212"/>
       <use xlink:href="#DejaVuSans-33" transform="translate(83.789062 0)"/>
      </g>
     </g>
    </g>
    <g id="ytick_18">
     <g id="line2d_44">
      <g>
       <use xlink:href="#me5dac6da23" x="599.542188" y="195.475782" style="stroke: #000000; stroke-width: 0.8"/>
      </g>
     </g>
     <g id="text_43">
      <!-- −2 -->
      <g transform="translate(577.8 199.275) scale(0.1 -0.1)">
       <use xlink:href="#DejaVuSans-2212"/>
       <use xlink:href="#DejaVuSans-32" transform="translate(83.789062 0)"/>
      </g>
     </g>
    </g>
    <g id="ytick_19">
     <g id="line2d_45">
      <g>
       <use xlink:href="#me5dac6da23" x="599.542188" y="166.987042" style="stroke: #000000; stroke-width: 0.8"/>
      </g>
     </g>
     <g id="text_44">
      <!-- −1 -->
      <g transform="translate(577.8 170.786261) scale(0.1 -0.1)">
       <use xlink:href="#DejaVuSans-2212"/>
       <use xlink:href="#DejaVuSans-31" transform="translate(83.789062 0)"/>
      </g>
     </g>
    </g>
    <g id="ytick_20">
     <g id="line2d_46">
      <g>
       <use xlink:href="#me5dac6da23" x="599.542188" y="138.498302" style="stroke: #000000; stroke-width: 0.8"/>
      </g>
     </g>
     <g id="text_45">
      <!-- 0 -->
      <g transform="translate(586.179688 142.297521) scale(0.1 -0.1)">
       <use xlink:href="#DejaVuSans-30"/>
      </g>
     </g>
    </g>
    <g id="ytick_21">
     <g id="line2d_47">
      <g>
       <use xlink:href="#me5dac6da23" x="599.542188" y="110.009563" style="stroke: #000000; stroke-width: 0.8"/>
      </g>
     </g>
     <g id="text_46">
      <!-- 1 -->
      <g transform="translate(586.179688 113.808781) scale(0.1 -0.1)">
       <use xlink:href="#DejaVuSans-31"/>
      </g>
     </g>
    </g>
    <g id="ytick_22">
     <g id="line2d_48">
      <g>
       <use xlink:href="#me5dac6da23" x="599.542188" y="81.520823" style="stroke: #000000; stroke-width: 0.8"/>
      </g>
     </g>
     <g id="text_47">
      <!-- 2 -->
      <g transform="translate(586.179688 85.320042) scale(0.1 -0.1)">
       <use xlink:href="#DejaVuSans-32"/>
      </g>
     </g>
    </g>
    <g id="ytick_23">
     <g id="line2d_49">
      <g>
       <use xlink:href="#me5dac6da23" x="599.542188" y="53.032083" style="stroke: #000000; stroke-width: 0.8"/>
      </g>
     </g>
     <g id="text_48">
      <!-- 3 -->
      <g transform="translate(586.179688 56.831302) scale(0.1 -0.1)">
       <use xlink:href="#DejaVuSans-33"/>
      </g>
     </g>
    </g>
    <g id="ytick_24">
     <g id="line2d_50">
      <g>
       <use xlink:href="#me5dac6da23" x="599.542188" y="24.543344" style="stroke: #000000; stroke-width: 0.8"/>
      </g>
     </g>
     <g id="text_49">
      <!-- 4 -->
      <g transform="translate(586.179688 28.342562) scale(0.1 -0.1)">
       <use xlink:href="#DejaVuSans-34"/>
      </g>
     </g>
    </g>
    <g id="text_50">
     <!-- 1e−7 -->
     <g transform="translate(599.542188 20.837812) scale(0.1 -0.1)">
      <use xlink:href="#DejaVuSans-31"/>
      <use xlink:href="#DejaVuSans-65" transform="translate(63.623047 0)"/>
      <use xlink:href="#DejaVuSans-2212" transform="translate(125.146484 0)"/>
      <use xlink:href="#DejaVuSans-37" transform="translate(208.935547 0)"/>
     </g>
    </g>
   </g>
   <g id="line2d_51">
    <path d="M 610.942026 150.429547 
L 614.561023 139.008703 
L 618.180019 120.604966 
L 621.799016 97.414392 
L 625.418012 73.087337 
L 629.037009 51.831851 
L 632.656005 38.27176 
L 636.275002 35.897564 
L 639.893998 46.017351 
L 643.512995 67.205687 
L 647.131991 95.359321 
L 650.750988 124.757723 
L 654.369984 149.843555 
L 657.988981 166.375761 
L 661.607977 172.672389 
L 665.226974 169.495904 
L 668.84597 159.159953 
L 672.464967 144.615147 
L 676.083963 128.41527 
L 679.70296 112.577621 
L 683.321956 98.437307 
L 686.940953 87.018662 
L 690.559949 79.236198 
L 694.178946 75.522235 
L 697.797942 75.962695 
L 701.416939 79.875195 
L 705.035935 86.248361 
L 708.654932 94.047435 
L 712.273928 102.466578 
L 715.892925 111.230168 
L 719.511921 120.298211 
L 723.130918 129.480556 
L 726.749914 138.207142 
L 730.368911 145.137676 
L 733.987907 149.004662 
L 737.606904 148.587393 
L 741.2259 143.902574 
L 744.844897 135.905504 
L 748.463893 126.639363 
L 752.08289 118.587171 
L 755.701886 114.125656 
L 759.320883 114.829495 
L 762.939879 120.991357 
L 766.558876 131.787151 
L 770.177872 145.402234 
L 773.796869 159.414381 
L 777.415865 171.462467 
L 781.034862 179.666129 
L 784.653858 183.188924 
L 788.272854 182.165706 
L 791.891851 177.365727 
L 795.510847 170.095433 
L 799.129844 161.683014 
L 802.74884 153.300209 
L 806.367837 145.858326 
L 809.986833 140.334738 
L 813.60583 137.602815 
L 817.224826 138.288067 
L 820.843823 142.415167 
L 824.462819 149.339954 
L 828.081816 157.456709 
L 831.700812 164.702202 
L 835.319809 169.154617 
L 838.938805 169.629893 
" clip-path="url(#p08b4eb080b)" style="fill: none; stroke: #d7255d; stroke-width: 3; stroke-linecap: square"/>
   </g>
   <g id="line2d_52">
    <path d="M 610.942026 72.983223 
L 614.561023 64.124763 
L 618.180019 62.801715 
L 621.799016 69.32202 
L 625.418012 81.170819 
L 629.037009 94.250361 
L 632.656005 104.969183 
L 636.275002 111.362033 
L 639.893998 113.323686 
L 643.512995 111.886516 
L 647.131991 107.900093 
L 650.750988 101.722261 
L 654.369984 93.569173 
L 657.988981 84.039872 
L 661.607977 75.246705 
L 665.226974 70.211582 
L 668.84597 71.989378 
L 672.464967 81.856487 
L 676.083963 98.621454 
L 679.70296 118.78383 
L 683.321956 137.891507 
L 686.940953 152.872557 
L 690.559949 162.998559 
L 694.178946 169.837353 
L 697.797942 176.195258 
L 701.416939 183.430552 
L 705.035935 190.8765 
L 708.654932 195.645233 
L 712.273928 194.163359 
L 715.892925 184.635954 
L 719.511921 168.642692 
L 723.130918 150.578593 
L 726.749914 136.234125 
L 730.368911 130.271107 
L 733.987907 133.792113 
L 737.606904 143.960056 
L 741.2259 155.695146 
L 744.844897 163.619961 
L 748.463893 164.53911 
L 752.08289 158.557664 
L 755.701886 148.462264 
L 759.320883 137.966547 
L 762.939879 130.06504 
L 766.558876 125.881573 
L 770.177872 124.875872 
L 773.796869 125.953121 
L 777.415865 128.28035 
L 781.034862 131.650182 
L 784.653858 136.401217 
L 788.272854 142.57187 
L 791.891851 149.279056 
L 795.510847 155.198931 
L 799.129844 158.533197 
L 802.74884 158.239451 
L 806.367837 154.465385 
L 809.986833 148.224327 
L 813.60583 140.888159 
L 817.224826 133.870731 
L 820.843823 127.994324 
L 824.462819 123.966182 
L 828.081816 122.576789 
L 831.700812 124.700361 
L 835.319809 130.981119 
L 838.938805 141.275979 
" clip-path="url(#p08b4eb080b)" style="fill: none; stroke: #009da1; stroke-width: 3; stroke-linecap: square"/>
   </g>
   <g id="line2d_53">
    <path d="M 610.942026 125.716845 
L 614.561023 120.175458 
L 618.180019 122.438302 
L 621.799016 130.63226 
L 625.418012 140.252525 
L 629.037009 145.79823 
L 632.656005 143.803666 
L 636.275002 133.985234 
L 639.893998 119.441278 
L 643.512995 105.519775 
L 647.131991 97.240934 
L 650.750988 97.659346 
L 654.369984 106.725432 
L 657.988981 121.503854 
L 661.607977 137.850617 
L 665.226974 151.417489 
L 668.84597 159.855424 
L 672.464967 162.478824 
L 676.083963 160.637604 
L 679.70296 156.277038 
L 683.321956 151.539604 
L 686.940953 147.431862 
L 690.559949 144.148388 
L 694.178946 141.001021 
L 697.797942 136.992906 
L 701.416939 131.978125 
L 705.035935 126.448688 
L 708.654932 122.032269 
L 712.273928 120.497516 
L 715.892925 123.040193 
L 719.511921 129.711766 
L 723.130918 138.766576 
L 726.749914 147.632485 
L 730.368911 153.789976 
L 733.987907 155.751452 
L 737.606904 153.916062 
L 741.2259 150.178466 
L 744.844897 147.161215 
L 748.463893 146.749954 
L 752.08289 149.457119 
L 755.701886 154.219234 
L 759.320883 159.209264 
L 762.939879 162.618984 
L 766.558876 163.790544 
L 770.177872 163.159778 
L 773.796869 162.115875 
L 777.415865 161.936228 
L 781.034862 163.255551 
L 784.653858 165.725927 
L 788.272854 167.995455 
L 791.891851 168.47076 
L 795.510847 165.742918 
L 799.129844 159.331166 
L 802.74884 150.044389 
L 806.367837 139.90103 
L 809.986833 131.718679 
L 813.60583 128.271318 
L 817.224826 131.08989 
L 820.843823 139.742906 
L 824.462819 151.752921 
L 828.081816 163.170503 
L 831.700812 170.204129 
L 835.319809 170.861075 
L 838.938805 165.726199 
" clip-path="url(#p08b4eb080b)" style="fill: none; stroke: #603e95; stroke-width: 3; stroke-linecap: square"/>
   </g>
   <g id="line2d_54">
    <path d="M 610.942026 85.871073 
L 614.561023 83.488324 
L 618.180019 86.520102 
L 621.799016 95.441128 
L 625.418012 109.152091 
L 629.037009 124.730437 
L 632.656005 138.351152 
L 636.275002 146.099478 
L 639.893998 145.498736 
L 643.512995 135.963581 
L 647.131991 119.513793 
L 650.750988 99.83956 
L 654.369984 81.275983 
L 657.988981 67.681267 
L 661.607977 61.614651 
L 665.226974 63.863844 
L 668.84597 73.82747 
L 672.464967 90.009051 
L 676.083963 110.221953 
L 679.70296 131.97415 
L 683.321956 152.473864 
L 686.940953 168.91327 
L 690.559949 179.045915 
L 694.178946 181.788131 
L 697.797942 177.822512 
L 701.416939 169.430015 
L 705.035935 159.500767 
L 708.654932 150.759438 
L 712.273928 144.465836 
L 715.892925 140.222279 
L 719.511921 136.795025 
L 723.130918 133.070834 
L 726.749914 129.035479 
L 730.368911 125.871102 
L 733.987907 125.196398 
L 737.606904 127.651908 
L 741.2259 131.973664 
L 744.844897 135.421763 
L 748.463893 134.915117 
L 752.08289 129.00944 
L 755.701886 119.134877 
L 759.320883 109.445581 
L 762.939879 105.136823 
L 766.558876 110.178226 
L 770.177872 124.88443 
L 773.796869 145.885794 
L 777.415865 166.980866 
L 781.034862 182.29081 
L 784.653858 188.248797 
L 788.272854 185.245946 
L 791.891851 176.608074 
L 795.510847 167.057728 
L 799.129844 160.085783 
L 802.74884 157.115083 
L 806.367837 157.371246 
L 809.986833 159.216232 
L 813.60583 161.678112 
L 817.224826 165.028006 
L 820.843823 170.201488 
L 824.462819 177.656855 
L 828.081816 186.158165 
L 831.700812 192.520394 
L 835.319809 193.036828 
L 838.938805 185.067889 
" clip-path="url(#p08b4eb080b)" style="fill: none; stroke: #ffa500; stroke-width: 3; stroke-linecap: square"/>
   </g>
   <g id="patch_13">
    <path d="M 599.542188 226.637812 
L 599.542188 23.837812 
" style="fill: none; stroke: #000000; stroke-width: 0.8; stroke-linejoin: miter; stroke-linecap: square"/>
   </g>
   <g id="patch_14">
    <path d="M 850.338644 226.637812 
L 850.338644 23.837812 
" style="fill: none; stroke: #000000; stroke-width: 0.8; stroke-linejoin: miter; stroke-linecap: square"/>
   </g>
   <g id="patch_15">
    <path d="M 599.542188 226.637812 
L 850.338644 226.637812 
" style="fill: none; stroke: #000000; stroke-width: 0.8; stroke-linejoin: miter; stroke-linecap: square"/>
   </g>
   <g id="patch_16">
    <path d="M 599.542188 23.837812 
L 850.338644 23.837812 
" style="fill: none; stroke: #000000; stroke-width: 0.8; stroke-linejoin: miter; stroke-linecap: square"/>
   </g>
   <g id="text_51">
    <!-- (FC) task=75bi -->
    <g transform="translate(672.443697 17.837812) scale(0.14 -0.14)">
     <use xlink:href="#DejaVuSans-28"/>
     <use xlink:href="#DejaVuSans-46" transform="translate(39.013672 0)"/>
     <use xlink:href="#DejaVuSans-43" transform="translate(96.533203 0)"/>
     <use xlink:href="#DejaVuSans-29" transform="translate(166.357422 0)"/>
     <use xlink:href="#DejaVuSans-20" transform="translate(205.371094 0)"/>
     <use xlink:href="#DejaVuSans-74" transform="translate(237.158203 0)"/>
     <use xlink:href="#DejaVuSans-61" transform="translate(276.367188 0)"/>
     <use xlink:href="#DejaVuSans-73" transform="translate(337.646484 0)"/>
     <use xlink:href="#DejaVuSans-6b" transform="translate(389.746094 0)"/>
     <use xlink:href="#DejaVuSans-3d" transform="translate(447.65625 0)"/>
     <use xlink:href="#DejaVuSans-37" transform="translate(531.445312 0)"/>
     <use xlink:href="#DejaVuSans-35" transform="translate(595.068359 0)"/>
     <use xlink:href="#DejaVuSans-62" transform="translate(658.691406 0)"/>
     <use xlink:href="#DejaVuSans-69" transform="translate(722.167969 0)"/>
    </g>
   </g>
  </g>
  <g id="axes_4">
   <g id="patch_17">
    <path d="M 884.842188 226.637812 
L 1135.638644 226.637812 
L 1135.638644 23.837812 
L 884.842188 23.837812 
z
" style="fill: #ffffff"/>
   </g>
   <g id="matplotlib.axis_7">
    <g id="xtick_19">
     <g id="line2d_55">
      <g>
       <use xlink:href="#m9cc1ff890c" x="896.242026" y="226.637812" style="stroke: #000000; stroke-width: 0.8"/>
      </g>
     </g>
     <g id="text_52">
      <!-- 0.0 -->
      <g transform="translate(888.290464 241.23625) scale(0.1 -0.1)">
       <use xlink:href="#DejaVuSans-30"/>
       <use xlink:href="#DejaVuSans-2e" transform="translate(63.623047 0)"/>
       <use xlink:href="#DejaVuSans-30" transform="translate(95.410156 0)"/>
      </g>
     </g>
    </g>
    <g id="xtick_20">
     <g id="line2d_56">
      <g>
       <use xlink:href="#m9cc1ff890c" x="942.565182" y="226.637812" style="stroke: #000000; stroke-width: 0.8"/>
      </g>
     </g>
     <g id="text_53">
      <!-- 0.1 -->
      <g transform="translate(934.613619 241.23625) scale(0.1 -0.1)">
       <use xlink:href="#DejaVuSans-30"/>
       <use xlink:href="#DejaVuSans-2e" transform="translate(63.623047 0)"/>
       <use xlink:href="#DejaVuSans-31" transform="translate(95.410156 0)"/>
      </g>
     </g>
    </g>
    <g id="xtick_21">
     <g id="line2d_57">
      <g>
       <use xlink:href="#m9cc1ff890c" x="988.888337" y="226.637812" style="stroke: #000000; stroke-width: 0.8"/>
      </g>
     </g>
     <g id="text_54">
      <!-- 0.2 -->
      <g transform="translate(980.936774 241.23625) scale(0.1 -0.1)">
       <use xlink:href="#DejaVuSans-30"/>
       <use xlink:href="#DejaVuSans-2e" transform="translate(63.623047 0)"/>
       <use xlink:href="#DejaVuSans-32" transform="translate(95.410156 0)"/>
      </g>
     </g>
    </g>
    <g id="xtick_22">
     <g id="line2d_58">
      <g>
       <use xlink:href="#m9cc1ff890c" x="1035.211492" y="226.637812" style="stroke: #000000; stroke-width: 0.8"/>
      </g>
     </g>
     <g id="text_55">
      <!-- 0.3 -->
      <g transform="translate(1027.259929 241.23625) scale(0.1 -0.1)">
       <use xlink:href="#DejaVuSans-30"/>
       <use xlink:href="#DejaVuSans-2e" transform="translate(63.623047 0)"/>
       <use xlink:href="#DejaVuSans-33" transform="translate(95.410156 0)"/>
      </g>
     </g>
    </g>
    <g id="xtick_23">
     <g id="line2d_59">
      <g>
       <use xlink:href="#m9cc1ff890c" x="1081.534647" y="226.637812" style="stroke: #000000; stroke-width: 0.8"/>
      </g>
     </g>
     <g id="text_56">
      <!-- 0.4 -->
      <g transform="translate(1073.583084 241.23625) scale(0.1 -0.1)">
       <use xlink:href="#DejaVuSans-30"/>
       <use xlink:href="#DejaVuSans-2e" transform="translate(63.623047 0)"/>
       <use xlink:href="#DejaVuSans-34" transform="translate(95.410156 0)"/>
      </g>
     </g>
    </g>
    <g id="xtick_24">
     <g id="line2d_60">
      <g>
       <use xlink:href="#m9cc1ff890c" x="1127.857802" y="226.637812" style="stroke: #000000; stroke-width: 0.8"/>
      </g>
     </g>
     <g id="text_57">
      <!-- 0.5 -->
      <g transform="translate(1119.906239 241.23625) scale(0.1 -0.1)">
       <use xlink:href="#DejaVuSans-30"/>
       <use xlink:href="#DejaVuSans-2e" transform="translate(63.623047 0)"/>
       <use xlink:href="#DejaVuSans-35" transform="translate(95.410156 0)"/>
      </g>
     </g>
    </g>
    <g id="text_58">
     <!-- Time (s) -->
     <g transform="translate(981.779947 257.95375) scale(0.14 -0.14)">
      <use xlink:href="#DejaVuSans-54"/>
      <use xlink:href="#DejaVuSans-69" transform="translate(57.958984 0)"/>
      <use xlink:href="#DejaVuSans-6d" transform="translate(85.742188 0)"/>
      <use xlink:href="#DejaVuSans-65" transform="translate(183.154297 0)"/>
      <use xlink:href="#DejaVuSans-20" transform="translate(244.677734 0)"/>
      <use xlink:href="#DejaVuSans-28" transform="translate(276.464844 0)"/>
      <use xlink:href="#DejaVuSans-73" transform="translate(315.478516 0)"/>
      <use xlink:href="#DejaVuSans-29" transform="translate(367.578125 0)"/>
     </g>
    </g>
   </g>
   <g id="matplotlib.axis_8">
    <g id="ytick_25">
     <g id="line2d_61">
      <g>
       <use xlink:href="#me5dac6da23" x="884.842188" y="223.964521" style="stroke: #000000; stroke-width: 0.8"/>
      </g>
     </g>
     <g id="text_59">
      <!-- −3 -->
      <g transform="translate(863.1 227.76374) scale(0.1 -0.1)">
       <use xlink:href="#DejaVuSans-2212"/>
       <use xlink:href="#DejaVuSans-33" transform="translate(83.789062 0)"/>
      </g>
     </g>
    </g>
    <g id="ytick_26">
     <g id="line2d_62">
      <g>
       <use xlink:href="#me5dac6da23" x="884.842188" y="195.475782" style="stroke: #000000; stroke-width: 0.8"/>
      </g>
     </g>
     <g id="text_60">
      <!-- −2 -->
      <g transform="translate(863.1 199.275) scale(0.1 -0.1)">
       <use xlink:href="#DejaVuSans-2212"/>
       <use xlink:href="#DejaVuSans-32" transform="translate(83.789062 0)"/>
      </g>
     </g>
    </g>
    <g id="ytick_27">
     <g id="line2d_63">
      <g>
       <use xlink:href="#me5dac6da23" x="884.842188" y="166.987042" style="stroke: #000000; stroke-width: 0.8"/>
      </g>
     </g>
     <g id="text_61">
      <!-- −1 -->
      <g transform="translate(863.1 170.786261) scale(0.1 -0.1)">
       <use xlink:href="#DejaVuSans-2212"/>
       <use xlink:href="#DejaVuSans-31" transform="translate(83.789062 0)"/>
      </g>
     </g>
    </g>
    <g id="ytick_28">
     <g id="line2d_64">
      <g>
       <use xlink:href="#me5dac6da23" x="884.842188" y="138.498302" style="stroke: #000000; stroke-width: 0.8"/>
      </g>
     </g>
     <g id="text_62">
      <!-- 0 -->
      <g transform="translate(871.479688 142.297521) scale(0.1 -0.1)">
       <use xlink:href="#DejaVuSans-30"/>
      </g>
     </g>
    </g>
    <g id="ytick_29">
     <g id="line2d_65">
      <g>
       <use xlink:href="#me5dac6da23" x="884.842188" y="110.009563" style="stroke: #000000; stroke-width: 0.8"/>
      </g>
     </g>
     <g id="text_63">
      <!-- 1 -->
      <g transform="translate(871.479688 113.808781) scale(0.1 -0.1)">
       <use xlink:href="#DejaVuSans-31"/>
      </g>
     </g>
    </g>
    <g id="ytick_30">
     <g id="line2d_66">
      <g>
       <use xlink:href="#me5dac6da23" x="884.842188" y="81.520823" style="stroke: #000000; stroke-width: 0.8"/>
      </g>
     </g>
     <g id="text_64">
      <!-- 2 -->
      <g transform="translate(871.479688 85.320042) scale(0.1 -0.1)">
       <use xlink:href="#DejaVuSans-32"/>
      </g>
     </g>
    </g>
    <g id="ytick_31">
     <g id="line2d_67">
      <g>
       <use xlink:href="#me5dac6da23" x="884.842188" y="53.032083" style="stroke: #000000; stroke-width: 0.8"/>
      </g>
     </g>
     <g id="text_65">
      <!-- 3 -->
      <g transform="translate(871.479688 56.831302) scale(0.1 -0.1)">
       <use xlink:href="#DejaVuSans-33"/>
      </g>
     </g>
    </g>
    <g id="ytick_32">
     <g id="line2d_68">
      <g>
       <use xlink:href="#me5dac6da23" x="884.842188" y="24.543344" style="stroke: #000000; stroke-width: 0.8"/>
      </g>
     </g>
     <g id="text_66">
      <!-- 4 -->
      <g transform="translate(871.479688 28.342562) scale(0.1 -0.1)">
       <use xlink:href="#DejaVuSans-34"/>
      </g>
     </g>
    </g>
    <g id="text_67">
     <!-- 1e−7 -->
     <g transform="translate(884.842188 20.837812) scale(0.1 -0.1)">
      <use xlink:href="#DejaVuSans-31"/>
      <use xlink:href="#DejaVuSans-65" transform="translate(63.623047 0)"/>
      <use xlink:href="#DejaVuSans-2212" transform="translate(125.146484 0)"/>
      <use xlink:href="#DejaVuSans-37" transform="translate(208.935547 0)"/>
     </g>
    </g>
   </g>
   <g id="line2d_69">
    <path d="M 896.242026 98.374139 
L 899.861023 108.129014 
L 903.480019 113.736066 
L 907.099016 113.117641 
L 910.718012 106.173051 
L 914.337009 95.301331 
L 917.956005 84.746608 
L 921.575002 78.950909 
L 925.193998 81.597694 
L 928.812995 93.865307 
L 932.431991 114.816413 
L 936.050988 140.816737 
L 939.669984 167.572186 
L 943.288981 190.778868 
L 946.907977 207.431128 
L 950.526974 216.206723 
L 954.14597 217.419631 
L 957.764967 212.19163 
L 961.383963 201.950851 
L 965.00296 188.220003 
L 968.621956 172.275916 
L 972.240953 155.360248 
L 975.859949 139.050416 
L 979.478946 125.077802 
L 983.097942 114.51292 
L 986.716939 107.784129 
L 990.335935 104.087249 
L 993.954932 101.731918 
L 997.573928 98.920049 
L 1001.192925 94.801604 
L 1004.811921 90.178546 
L 1008.430918 87.506728 
L 1012.049914 89.55342 
L 1015.668911 98.018241 
L 1019.287907 112.433442 
L 1022.906904 129.493931 
L 1026.5259 144.501559 
L 1030.144897 152.983169 
L 1033.763893 152.700034 
L 1037.38289 144.713947 
L 1041.001886 133.020354 
L 1044.620883 122.930061 
L 1048.239879 118.825836 
L 1051.858876 122.455192 
L 1055.477872 132.623508 
L 1059.096869 145.661612 
L 1062.715865 157.917007 
L 1066.334862 166.547142 
L 1069.953858 170.97479 
L 1073.572854 172.37963 
L 1077.191851 172.412867 
L 1080.810847 172.483944 
L 1084.429844 172.594565 
L 1088.04884 171.731083 
L 1091.667837 168.90232 
L 1095.286833 163.682559 
L 1098.90583 157.136778 
L 1102.524826 151.19515 
L 1106.143823 148.235132 
L 1109.762819 149.65578 
L 1113.381816 155.508382 
L 1117.000812 164.297378 
L 1120.619809 173.524109 
L 1124.238805 180.690662 
" clip-path="url(#pfd93fc15a4)" style="fill: none; stroke: #d7255d; stroke-width: 3; stroke-linecap: square"/>
   </g>
   <g id="line2d_70">
    <path d="M 896.242026 118.104258 
L 899.861023 117.495679 
L 903.480019 116.559297 
L 907.099016 116.717457 
L 910.718012 118.584244 
L 914.337009 121.507941 
L 917.956005 123.468495 
L 921.575002 121.76297 
L 925.193998 114.431167 
L 928.812995 101.573937 
L 932.431991 85.427774 
L 936.050988 70.110411 
L 939.669984 59.802818 
L 943.288981 56.975955 
L 946.907977 61.746722 
L 950.526974 71.828425 
L 954.14597 84.199635 
L 957.764967 95.8008 
L 961.383963 104.84279 
L 965.00296 111.075471 
L 968.621956 115.334023 
L 972.240953 118.685084 
L 975.859949 122.19987 
L 979.478946 126.75536 
L 983.097942 133.116016 
L 986.716939 141.949833 
L 990.335935 153.63959 
L 993.954932 167.742269 
L 997.573928 182.471487 
L 1001.192925 194.857885 
L 1004.811921 201.651187 
L 1008.430918 200.145219 
L 1012.049914 189.369943 
L 1015.668911 170.546848 
L 1019.287907 147.329099 
L 1022.906904 124.298971 
L 1026.5259 106.24218 
L 1030.144897 96.496817 
L 1033.763893 96.5006 
L 1037.38289 104.929409 
L 1041.001886 118.75145 
L 1044.620883 133.451825 
L 1048.239879 144.696833 
L 1051.858876 149.249356 
L 1055.477872 145.897966 
L 1059.096869 136.199975 
L 1062.715865 123.564352 
L 1066.334862 112.521761 
L 1069.953858 107.229332 
L 1073.572854 109.514691 
L 1077.191851 119.00782 
L 1080.810847 132.573055 
L 1084.429844 145.901166 
L 1088.04884 155.001164 
L 1091.667837 157.567339 
L 1095.286833 153.46634 
L 1098.90583 144.320244 
L 1102.524826 132.887788 
L 1106.143823 121.837727 
L 1109.762819 113.086848 
L 1113.381816 107.239797 
L 1117.000812 104.444481 
L 1120.619809 104.347189 
L 1124.238805 106.525841 
" clip-path="url(#pfd93fc15a4)" style="fill: none; stroke: #009da1; stroke-width: 3; stroke-linecap: square"/>
   </g>
   <g id="line2d_71">
    <path d="M 896.242026 121.990679 
L 899.861023 105.516704 
L 903.480019 95.178105 
L 907.099016 91.885882 
L 910.718012 95.170188 
L 914.337009 103.21237 
L 917.956005 113.826985 
L 921.575002 124.12968 
L 925.193998 131.102476 
L 928.812995 131.651166 
L 932.431991 123.761929 
L 936.050988 107.558324 
L 939.669984 85.420006 
L 943.288981 62.251088 
L 946.907977 43.415337 
L 950.526974 33.239217 
L 954.14597 33.055994 
L 957.764967 41.175074 
L 961.383963 53.34467 
L 965.00296 65.122178 
L 968.621956 73.512347 
L 972.240953 78.281852 
L 975.859949 81.403902 
L 979.478946 85.734738 
L 983.097942 93.40461 
L 986.716939 104.323452 
L 990.335935 116.052334 
L 993.954932 125.387704 
L 997.573928 129.510673 
L 1001.192925 128.026843 
L 1004.811921 123.346163 
L 1008.430918 119.695099 
L 1012.049914 121.239028 
L 1015.668911 130.050911 
L 1019.287907 144.750352 
L 1022.906904 161.117495 
L 1026.5259 173.385742 
L 1030.144897 177.16418 
L 1033.763893 171.42188 
L 1037.38289 158.987225 
L 1041.001886 145.645565 
L 1044.620883 136.985277 
L 1048.239879 136.220262 
L 1051.858876 142.195823 
L 1055.477872 150.111384 
L 1059.096869 154.022334 
L 1062.715865 149.606254 
L 1066.334862 136.633263 
L 1069.953858 118.851687 
L 1073.572854 102.478192 
L 1077.191851 93.138503 
L 1080.810847 93.514453 
L 1084.429844 102.054245 
L 1088.04884 114.509243 
L 1091.667837 125.686832 
L 1095.286833 132.0788 
L 1098.90583 132.849151 
L 1102.524826 129.455443 
L 1106.143823 123.972607 
L 1109.762819 118.014282 
L 1113.381816 111.694575 
L 1117.000812 104.742184 
L 1120.619809 97.304677 
L 1124.238805 91.157185 
" clip-path="url(#pfd93fc15a4)" style="fill: none; stroke: #603e95; stroke-width: 3; stroke-linecap: square"/>
   </g>
   <g id="line2d_72">
    <path d="M 896.242026 101.281327 
L 899.861023 106.565218 
L 903.480019 114.745465 
L 907.099016 125.000891 
L 910.718012 135.903183 
L 914.337009 145.507582 
L 917.956005 151.595986 
L 921.575002 152.221337 
L 925.193998 146.49304 
L 928.812995 134.999815 
L 932.431991 119.940038 
L 936.050988 104.753991 
L 939.669984 93.322302 
L 943.288981 88.766633 
L 946.907977 92.685097 
L 950.526974 104.203807 
L 954.14597 120.995498 
L 957.764967 139.004553 
L 961.383963 154.503862 
L 965.00296 164.450267 
L 968.621956 167.888438 
L 972.240953 165.720008 
L 975.859949 160.500429 
L 979.478946 155.47659 
L 983.097942 153.216016 
L 986.716939 154.85334 
L 990.335935 159.618025 
L 993.954932 165.375263 
L 997.573928 169.66763 
L 1001.192925 170.99221 
L 1004.811921 169.425783 
L 1008.430918 166.509334 
L 1012.049914 164.578641 
L 1015.668911 164.976069 
L 1019.287907 167.759411 
L 1022.906904 171.031365 
L 1026.5259 172.064791 
L 1030.144897 168.649844 
L 1033.763893 160.329434 
L 1037.38289 148.647187 
L 1041.001886 137.139742 
L 1044.620883 129.225285 
L 1048.239879 127.398687 
L 1051.858876 132.272284 
L 1055.477872 142.468008 
L 1059.096869 155.684285 
L 1062.715865 169.517378 
L 1066.334862 182.182344 
L 1069.953858 192.814596 
L 1073.572854 200.449531 
L 1077.191851 204.251259 
L 1080.810847 203.091004 
L 1084.429844 196.635192 
L 1088.04884 185.329102 
L 1091.667837 171.461469 
L 1095.286833 158.659847 
L 1098.90583 150.744769 
L 1102.524826 150.775183 
L 1106.143823 159.14456 
L 1109.762819 173.48715 
L 1113.381816 188.951064 
L 1117.000812 200.223358 
L 1120.619809 202.859685 
L 1124.238805 195.708617 
" clip-path="url(#pfd93fc15a4)" style="fill: none; stroke: #ffa500; stroke-width: 3; stroke-linecap: square"/>
   </g>
   <g id="patch_18">
    <path d="M 884.842188 226.637812 
L 884.842188 23.837812 
" style="fill: none; stroke: #000000; stroke-width: 0.8; stroke-linejoin: miter; stroke-linecap: square"/>
   </g>
   <g id="patch_19">
    <path d="M 1135.638644 226.637812 
L 1135.638644 23.837812 
" style="fill: none; stroke: #000000; stroke-width: 0.8; stroke-linejoin: miter; stroke-linecap: square"/>
   </g>
   <g id="patch_20">
    <path d="M 884.842188 226.637812 
L 1135.638644 226.637812 
" style="fill: none; stroke: #000000; stroke-width: 0.8; stroke-linejoin: miter; stroke-linecap: square"/>
   </g>
   <g id="patch_21">
    <path d="M 884.842188 23.837812 
L 1135.638644 23.837812 
" style="fill: none; stroke: #000000; stroke-width: 0.8; stroke-linejoin: miter; stroke-linecap: square"/>
   </g>
   <g id="text_68">
    <!-- (FC) task=75mo -->
    <g transform="translate(953.030728 17.837812) scale(0.14 -0.14)">
     <use xlink:href="#DejaVuSans-28"/>
     <use xlink:href="#DejaVuSans-46" transform="translate(39.013672 0)"/>
     <use xlink:href="#DejaVuSans-43" transform="translate(96.533203 0)"/>
     <use xlink:href="#DejaVuSans-29" transform="translate(166.357422 0)"/>
     <use xlink:href="#DejaVuSans-20" transform="translate(205.371094 0)"/>
     <use xlink:href="#DejaVuSans-74" transform="translate(237.158203 0)"/>
     <use xlink:href="#DejaVuSans-61" transform="translate(276.367188 0)"/>
     <use xlink:href="#DejaVuSans-73" transform="translate(337.646484 0)"/>
     <use xlink:href="#DejaVuSans-6b" transform="translate(389.746094 0)"/>
     <use xlink:href="#DejaVuSans-3d" transform="translate(447.65625 0)"/>
     <use xlink:href="#DejaVuSans-37" transform="translate(531.445312 0)"/>
     <use xlink:href="#DejaVuSans-35" transform="translate(595.068359 0)"/>
     <use xlink:href="#DejaVuSans-6d" transform="translate(658.691406 0)"/>
     <use xlink:href="#DejaVuSans-6f" transform="translate(756.103516 0)"/>
    </g>
   </g>
  </g>
  <g id="legend_1">
   <g id="line2d_73">
    <path d="M 319.67125 283.98625 
L 333.67125 283.98625 
L 347.67125 283.98625 
" style="fill: none; stroke: #d7255d; stroke-width: 3; stroke-linecap: square"/>
   </g>
   <g id="text_69">
    <!-- Vowel -->
    <g transform="translate(358.87125 288.88625) scale(0.14 -0.14)">
     <defs>
      <path id="DejaVuSans-56" d="M 1831 0 
L 50 4666 
L 709 4666 
L 2188 738 
L 3669 4666 
L 4325 4666 
L 2547 0 
L 1831 0 
z
" transform="scale(0.015625)"/>
      <path id="DejaVuSans-77" d="M 269 3500 
L 844 3500 
L 1563 769 
L 2278 3500 
L 2956 3500 
L 3675 769 
L 4391 3500 
L 4966 3500 
L 4050 0 
L 3372 0 
L 2619 2869 
L 1863 0 
L 1184 0 
L 269 3500 
z
" transform="scale(0.015625)"/>
      <path id="DejaVuSans-6c" d="M 603 4863 
L 1178 4863 
L 1178 0 
L 603 0 
L 603 4863 
z
" transform="scale(0.015625)"/>
     </defs>
     <use xlink:href="#DejaVuSans-56"/>
     <use xlink:href="#DejaVuSans-6f" transform="translate(60.658203 0)"/>
     <use xlink:href="#DejaVuSans-77" transform="translate(121.839844 0)"/>
     <use xlink:href="#DejaVuSans-65" transform="translate(203.626953 0)"/>
     <use xlink:href="#DejaVuSans-6c" transform="translate(265.150391 0)"/>
    </g>
   </g>
   <g id="line2d_74">
    <path d="M 427.8825 283.98625 
L 441.8825 283.98625 
L 455.8825 283.98625 
" style="fill: none; stroke: #009da1; stroke-width: 3; stroke-linecap: square"/>
   </g>
   <g id="text_70">
    <!-- Stop -->
    <g transform="translate(467.0825 288.88625) scale(0.14 -0.14)">
     <defs>
      <path id="DejaVuSans-53" d="M 3425 4513 
L 3425 3897 
Q 3066 4069 2747 4153 
Q 2428 4238 2131 4238 
Q 1616 4238 1336 4038 
Q 1056 3838 1056 3469 
Q 1056 3159 1242 3001 
Q 1428 2844 1947 2747 
L 2328 2669 
Q 3034 2534 3370 2195 
Q 3706 1856 3706 1288 
Q 3706 609 3251 259 
Q 2797 -91 1919 -91 
Q 1588 -91 1214 -16 
Q 841 59 441 206 
L 441 856 
Q 825 641 1194 531 
Q 1563 422 1919 422 
Q 2459 422 2753 634 
Q 3047 847 3047 1241 
Q 3047 1584 2836 1778 
Q 2625 1972 2144 2069 
L 1759 2144 
Q 1053 2284 737 2584 
Q 422 2884 422 3419 
Q 422 4038 858 4394 
Q 1294 4750 2059 4750 
Q 2388 4750 2728 4690 
Q 3069 4631 3425 4513 
z
" transform="scale(0.015625)"/>
      <path id="DejaVuSans-70" d="M 1159 525 
L 1159 -1331 
L 581 -1331 
L 581 3500 
L 1159 3500 
L 1159 2969 
Q 1341 3281 1617 3432 
Q 1894 3584 2278 3584 
Q 2916 3584 3314 3078 
Q 3713 2572 3713 1747 
Q 3713 922 3314 415 
Q 2916 -91 2278 -91 
Q 1894 -91 1617 61 
Q 1341 213 1159 525 
z
M 3116 1747 
Q 3116 2381 2855 2742 
Q 2594 3103 2138 3103 
Q 1681 3103 1420 2742 
Q 1159 2381 1159 1747 
Q 1159 1113 1420 752 
Q 1681 391 2138 391 
Q 2594 391 2855 752 
Q 3116 1113 3116 1747 
z
" transform="scale(0.015625)"/>
     </defs>
     <use xlink:href="#DejaVuSans-53"/>
     <use xlink:href="#DejaVuSans-74" transform="translate(63.476562 0)"/>
     <use xlink:href="#DejaVuSans-6f" transform="translate(102.685547 0)"/>
     <use xlink:href="#DejaVuSans-70" transform="translate(163.867188 0)"/>
    </g>
   </g>
   <g id="line2d_75">
    <path d="M 526.912812 283.98625 
L 540.912812 283.98625 
L 554.912812 283.98625 
" style="fill: none; stroke: #603e95; stroke-width: 3; stroke-linecap: square"/>
   </g>
   <g id="text_71">
    <!-- Fricative -->
    <g transform="translate(566.112813 288.88625) scale(0.14 -0.14)">
     <defs>
      <path id="DejaVuSans-72" d="M 2631 2963 
Q 2534 3019 2420 3045 
Q 2306 3072 2169 3072 
Q 1681 3072 1420 2755 
Q 1159 2438 1159 1844 
L 1159 0 
L 581 0 
L 581 3500 
L 1159 3500 
L 1159 2956 
Q 1341 3275 1631 3429 
Q 1922 3584 2338 3584 
Q 2397 3584 2469 3576 
Q 2541 3569 2628 3553 
L 2631 2963 
z
" transform="scale(0.015625)"/>
      <path id="DejaVuSans-63" d="M 3122 3366 
L 3122 2828 
Q 2878 2963 2633 3030 
Q 2388 3097 2138 3097 
Q 1578 3097 1268 2742 
Q 959 2388 959 1747 
Q 959 1106 1268 751 
Q 1578 397 2138 397 
Q 2388 397 2633 464 
Q 2878 531 3122 666 
L 3122 134 
Q 2881 22 2623 -34 
Q 2366 -91 2075 -91 
Q 1284 -91 818 406 
Q 353 903 353 1747 
Q 353 2603 823 3093 
Q 1294 3584 2113 3584 
Q 2378 3584 2631 3529 
Q 2884 3475 3122 3366 
z
" transform="scale(0.015625)"/>
      <path id="DejaVuSans-76" d="M 191 3500 
L 800 3500 
L 1894 563 
L 2988 3500 
L 3597 3500 
L 2284 0 
L 1503 0 
L 191 3500 
z
" transform="scale(0.015625)"/>
     </defs>
     <use xlink:href="#DejaVuSans-46"/>
     <use xlink:href="#DejaVuSans-72" transform="translate(50.269531 0)"/>
     <use xlink:href="#DejaVuSans-69" transform="translate(91.382812 0)"/>
     <use xlink:href="#DejaVuSans-63" transform="translate(119.166016 0)"/>
     <use xlink:href="#DejaVuSans-61" transform="translate(174.146484 0)"/>
     <use xlink:href="#DejaVuSans-74" transform="translate(235.425781 0)"/>
     <use xlink:href="#DejaVuSans-69" transform="translate(274.634766 0)"/>
     <use xlink:href="#DejaVuSans-76" transform="translate(302.417969 0)"/>
     <use xlink:href="#DejaVuSans-65" transform="translate(361.597656 0)"/>
    </g>
   </g>
   <g id="line2d_76">
    <path d="M 653.350312 283.98625 
L 667.350312 283.98625 
L 681.350312 283.98625 
" style="fill: none; stroke: #ffa500; stroke-width: 3; stroke-linecap: square"/>
   </g>
   <g id="text_72">
    <!-- Nasal-approximant -->
    <g transform="translate(692.550313 288.88625) scale(0.14 -0.14)">
     <defs>
      <path id="DejaVuSans-4e" d="M 628 4666 
L 1478 4666 
L 3547 763 
L 3547 4666 
L 4159 4666 
L 4159 0 
L 3309 0 
L 1241 3903 
L 1241 0 
L 628 0 
L 628 4666 
z
" transform="scale(0.015625)"/>
      <path id="DejaVuSans-2d" d="M 313 2009 
L 1997 2009 
L 1997 1497 
L 313 1497 
L 313 2009 
z
" transform="scale(0.015625)"/>
      <path id="DejaVuSans-78" d="M 3513 3500 
L 2247 1797 
L 3578 0 
L 2900 0 
L 1881 1375 
L 863 0 
L 184 0 
L 1544 1831 
L 300 3500 
L 978 3500 
L 1906 2253 
L 2834 3500 
L 3513 3500 
z
" transform="scale(0.015625)"/>
      <path id="DejaVuSans-6e" d="M 3513 2113 
L 3513 0 
L 2938 0 
L 2938 2094 
Q 2938 2591 2744 2837 
Q 2550 3084 2163 3084 
Q 1697 3084 1428 2787 
Q 1159 2491 1159 1978 
L 1159 0 
L 581 0 
L 581 3500 
L 1159 3500 
L 1159 2956 
Q 1366 3272 1645 3428 
Q 1925 3584 2291 3584 
Q 2894 3584 3203 3211 
Q 3513 2838 3513 2113 
z
" transform="scale(0.015625)"/>
     </defs>
     <use xlink:href="#DejaVuSans-4e"/>
     <use xlink:href="#DejaVuSans-61" transform="translate(74.804688 0)"/>
     <use xlink:href="#DejaVuSans-73" transform="translate(136.083984 0)"/>
     <use xlink:href="#DejaVuSans-61" transform="translate(188.183594 0)"/>
     <use xlink:href="#DejaVuSans-6c" transform="translate(249.462891 0)"/>
     <use xlink:href="#DejaVuSans-2d" transform="translate(277.246094 0)"/>
     <use xlink:href="#DejaVuSans-61" transform="translate(313.330078 0)"/>
     <use xlink:href="#DejaVuSans-70" transform="translate(374.609375 0)"/>
     <use xlink:href="#DejaVuSans-70" transform="translate(438.085938 0)"/>
     <use xlink:href="#DejaVuSans-72" transform="translate(501.5625 0)"/>
     <use xlink:href="#DejaVuSans-6f" transform="translate(540.425781 0)"/>
     <use xlink:href="#DejaVuSans-78" transform="translate(598.482422 0)"/>
     <use xlink:href="#DejaVuSans-69" transform="translate(657.662109 0)"/>
     <use xlink:href="#DejaVuSans-6d" transform="translate(685.445312 0)"/>
     <use xlink:href="#DejaVuSans-61" transform="translate(782.857422 0)"/>
     <use xlink:href="#DejaVuSans-6e" transform="translate(844.136719 0)"/>
     <use xlink:href="#DejaVuSans-74" transform="translate(907.515625 0)"/>
    </g>
   </g>
  </g>
 </g>
 <defs>
  <clipPath id="p7ed83c22b0">
   <rect x="28.942187" y="23.837812" width="250.796457" height="202.8"/>
  </clipPath>
  <clipPath id="p76685b09bc">
   <rect x="314.242188" y="23.837812" width="250.796457" height="202.8"/>
  </clipPath>
  <clipPath id="p08b4eb080b">
   <rect x="599.542188" y="23.837812" width="250.796457" height="202.8"/>
  </clipPath>
  <clipPath id="pfd93fc15a4">
   <rect x="884.842188" y="23.837812" width="250.796457" height="202.8"/>
  </clipPath>
 </defs>
</svg>
